<svg width="290" height="152" viewBox="0 0 290 152" fill="none" xmlns="http://www.w3.org/2000/svg">
<path d="M0.25 0.25H289.75V151.75H0.25V0.25Z" fill="black" fill-opacity="0.3" stroke="#A07B50" stroke-width="0.5"/>
<path d="M26.5244 58.0469H27.3721L31.0498 66.8105L34.7344 58.0469H35.5752L31.3711 68H30.7285L26.5244 58.0469ZM26.2646 58.0469H27.0098L27.0986 63.6523V68H26.2646V58.0469ZM35.1035 58.0469H35.8486V68H35.0078V63.6523L35.1035 58.0469ZM38.7949 63.2832H41.208C41.7913 63.2832 42.2835 63.3857 42.6846 63.5908C43.0856 63.7913 43.3887 64.0693 43.5938 64.4248C43.8034 64.7803 43.9082 65.1813 43.9082 65.6279C43.9082 65.9652 43.849 66.2796 43.7305 66.5713C43.6165 66.8584 43.4434 67.109 43.2109 67.3232C42.9831 67.5374 42.7005 67.7038 42.3633 67.8223C42.0306 67.9408 41.6455 68 41.208 68H38.2754V60.6035H39.0889V67.2959H41.208C41.6592 67.2959 42.0238 67.2184 42.3018 67.0635C42.5798 66.904 42.7803 66.6989 42.9033 66.4482C43.0309 66.1976 43.0947 65.931 43.0947 65.6484C43.0947 65.3704 43.0309 65.1061 42.9033 64.8555C42.7803 64.6003 42.5798 64.3929 42.3018 64.2334C42.0238 64.0693 41.6592 63.9873 41.208 63.9873H38.7949V63.2832ZM46.417 60.6035V68H45.6035V60.6035H46.417ZM52.9248 62.0254V70.8438H52.1045V60.6035H52.8701L52.9248 62.0254ZM58.0654 64.2334V64.377C58.0654 64.9284 58.0016 65.4342 57.874 65.8945C57.7464 66.3548 57.5618 66.7536 57.3203 67.0908C57.0833 67.4235 56.7894 67.681 56.4385 67.8633C56.0876 68.0456 55.6888 68.1367 55.2422 68.1367C54.8001 68.1367 54.4059 68.0684 54.0596 67.9316C53.7132 67.7949 53.4147 67.6012 53.1641 67.3506C52.918 67.0954 52.7197 66.7992 52.5693 66.4619C52.4235 66.1201 52.321 65.7464 52.2617 65.3408V63.4473C52.3301 63.0007 52.4417 62.5951 52.5967 62.2305C52.7516 61.8659 52.9499 61.5514 53.1914 61.2871C53.4375 61.0228 53.7292 60.82 54.0664 60.6787C54.4036 60.5374 54.7887 60.4668 55.2217 60.4668C55.6729 60.4668 56.0739 60.5557 56.4248 60.7334C56.7803 60.9066 57.0788 61.1595 57.3203 61.4922C57.5664 61.8203 57.751 62.2168 57.874 62.6816C58.0016 63.1419 58.0654 63.6592 58.0654 64.2334ZM57.2451 64.377V64.2334C57.2451 63.8005 57.1995 63.3994 57.1084 63.0303C57.0218 62.6611 56.8874 62.3398 56.7051 62.0664C56.5273 61.7884 56.2995 61.5719 56.0215 61.417C55.748 61.262 55.4222 61.1846 55.0439 61.1846C54.652 61.1846 54.3171 61.2507 54.0391 61.3828C53.7656 61.5104 53.5378 61.6813 53.3555 61.8955C53.1732 62.1051 53.0296 62.3353 52.9248 62.5859C52.82 62.8366 52.7425 63.0827 52.6924 63.3242V65.5049C52.779 65.8512 52.918 66.1725 53.1094 66.4688C53.3008 66.7604 53.556 66.9951 53.875 67.1729C54.1986 67.346 54.5928 67.4326 55.0576 67.4326C55.4313 67.4326 55.7549 67.3551 56.0283 67.2002C56.3018 67.0452 56.5273 66.8288 56.7051 66.5508C56.8874 66.2728 57.0218 65.9492 57.1084 65.5801C57.1995 65.2109 57.2451 64.8099 57.2451 64.377ZM64.3818 66.6738V62.8594C64.3818 62.5085 64.3089 62.2054 64.1631 61.9502C64.0173 61.695 63.8031 61.499 63.5205 61.3623C63.238 61.2256 62.8893 61.1572 62.4746 61.1572C62.0918 61.1572 61.75 61.2256 61.4492 61.3623C61.153 61.4945 60.9183 61.6745 60.7451 61.9023C60.5765 62.1257 60.4922 62.374 60.4922 62.6475L59.6719 62.6406C59.6719 62.3626 59.7402 62.0938 59.877 61.834C60.0137 61.5742 60.2074 61.3418 60.458 61.1367C60.7087 60.9316 61.0072 60.7699 61.3535 60.6514C61.7044 60.5283 62.0895 60.4668 62.5088 60.4668C63.0374 60.4668 63.5023 60.5557 63.9033 60.7334C64.3089 60.9111 64.6257 61.1777 64.8535 61.5332C65.0814 61.8887 65.1953 62.3353 65.1953 62.873V66.4482C65.1953 66.7035 65.2135 66.9678 65.25 67.2412C65.291 67.5146 65.348 67.7402 65.4209 67.918V68H64.5527C64.498 67.8359 64.4548 67.6309 64.4229 67.3848C64.3955 67.1341 64.3818 66.8971 64.3818 66.6738ZM64.5732 63.6934L64.5869 64.3223H62.9805C62.5612 64.3223 62.1852 64.361 61.8525 64.4385C61.5244 64.5114 61.2464 64.6208 61.0186 64.7666C60.7907 64.9079 60.6152 65.0788 60.4922 65.2793C60.3737 65.4798 60.3145 65.7077 60.3145 65.9629C60.3145 66.2272 60.3805 66.4688 60.5127 66.6875C60.6494 66.9062 60.8408 67.0817 61.0869 67.2139C61.3376 67.3415 61.6338 67.4053 61.9756 67.4053C62.4313 67.4053 62.8324 67.321 63.1787 67.1523C63.5296 66.9837 63.819 66.7627 64.0469 66.4893C64.2747 66.2158 64.4274 65.9173 64.5049 65.5938L64.8604 66.0654C64.8011 66.2933 64.6917 66.528 64.5322 66.7695C64.3773 67.0065 64.1745 67.2298 63.9238 67.4395C63.6732 67.6445 63.377 67.8132 63.0352 67.9453C62.6979 68.0729 62.3151 68.1367 61.8867 68.1367C61.4036 68.1367 60.9821 68.0456 60.6221 67.8633C60.2666 67.681 59.9886 67.4326 59.7881 67.1182C59.5921 66.7992 59.4941 66.4391 59.4941 66.0381C59.4941 65.6735 59.5716 65.3477 59.7266 65.0605C59.8815 64.7689 60.1048 64.5228 60.3965 64.3223C60.6927 64.1172 61.0482 63.9622 61.4629 63.8574C61.8822 63.748 62.3516 63.6934 62.8711 63.6934H64.5732ZM69.9463 64.418H68.7568V63.8643H69.8779C70.3337 63.8643 70.696 63.8118 70.9648 63.707C71.2337 63.5977 71.4274 63.445 71.5459 63.249C71.6644 63.0531 71.7236 62.8229 71.7236 62.5586C71.7236 62.3034 71.6598 62.071 71.5322 61.8613C71.4092 61.6517 71.2109 61.4831 70.9375 61.3555C70.6641 61.2279 70.3018 61.1641 69.8506 61.1641C69.5042 61.1641 69.1852 61.2256 68.8936 61.3486C68.6019 61.4717 68.3672 61.6403 68.1895 61.8545C68.0163 62.0687 67.9297 62.3171 67.9297 62.5996H67.1094C67.1094 62.1621 67.237 61.7839 67.4922 61.4648C67.7474 61.1458 68.0824 60.8997 68.4971 60.7266C68.9163 60.5534 69.3675 60.4668 69.8506 60.4668C70.2699 60.4668 70.6458 60.5124 70.9785 60.6035C71.3112 60.6947 71.5938 60.8291 71.8262 61.0068C72.0586 61.1846 72.2363 61.4056 72.3594 61.6699C72.4824 61.9297 72.5439 62.2282 72.5439 62.5654C72.5439 62.8206 72.4847 63.0599 72.3662 63.2832C72.2523 63.5065 72.0837 63.7048 71.8604 63.8779C71.6416 64.0465 71.3704 64.1787 71.0469 64.2744C70.7279 64.3701 70.361 64.418 69.9463 64.418ZM68.7568 64.042H69.9463C70.402 64.042 70.8008 64.0853 71.1426 64.1719C71.4844 64.2539 71.7692 64.377 71.9971 64.541C72.2249 64.7051 72.3936 64.9079 72.5029 65.1494C72.6169 65.3864 72.6738 65.6598 72.6738 65.9697C72.6738 66.307 72.6055 66.61 72.4688 66.8789C72.3366 67.1478 72.1452 67.3757 71.8945 67.5625C71.6439 67.7493 71.3454 67.8906 70.999 67.9863C70.6527 68.082 70.2699 68.1299 69.8506 68.1299C69.3994 68.1299 68.9528 68.0501 68.5107 67.8906C68.0732 67.7311 67.7109 67.485 67.4238 67.1523C67.1367 66.8197 66.9932 66.3958 66.9932 65.8809H67.8066C67.8066 66.1634 67.8955 66.4232 68.0732 66.6602C68.251 66.8971 68.4925 67.0863 68.7979 67.2275C69.1077 67.3688 69.4587 67.4395 69.8506 67.4395C70.2926 67.4395 70.6618 67.3779 70.958 67.2549C71.2542 67.1273 71.4775 66.9541 71.6279 66.7354C71.7783 66.5166 71.8535 66.266 71.8535 65.9834C71.8535 65.6507 71.7806 65.3818 71.6348 65.1768C71.4935 64.9717 71.277 64.8213 70.9854 64.7256C70.6937 64.6299 70.3245 64.582 69.8779 64.582H68.7568V64.042ZM75.292 62.0254V70.8438H74.4717V60.6035H75.2373L75.292 62.0254ZM80.4326 64.2334V64.377C80.4326 64.9284 80.3688 65.4342 80.2412 65.8945C80.1136 66.3548 79.929 66.7536 79.6875 67.0908C79.4505 67.4235 79.1566 67.681 78.8057 67.8633C78.4548 68.0456 78.056 68.1367 77.6094 68.1367C77.1673 68.1367 76.7731 68.0684 76.4268 67.9316C76.0804 67.7949 75.7819 67.6012 75.5312 67.3506C75.2852 67.0954 75.0869 66.7992 74.9365 66.4619C74.7907 66.1201 74.6882 65.7464 74.6289 65.3408V63.4473C74.6973 63.0007 74.8089 62.5951 74.9639 62.2305C75.1188 61.8659 75.3171 61.5514 75.5586 61.2871C75.8047 61.0228 76.0964 60.82 76.4336 60.6787C76.7708 60.5374 77.1559 60.4668 77.5889 60.4668C78.04 60.4668 78.4411 60.5557 78.792 60.7334C79.1475 60.9066 79.446 61.1595 79.6875 61.4922C79.9336 61.8203 80.1182 62.2168 80.2412 62.6816C80.3688 63.1419 80.4326 63.6592 80.4326 64.2334ZM79.6123 64.377V64.2334C79.6123 63.8005 79.5667 63.3994 79.4756 63.0303C79.389 62.6611 79.2546 62.3398 79.0723 62.0664C78.8945 61.7884 78.6667 61.5719 78.3887 61.417C78.1152 61.262 77.7894 61.1846 77.4111 61.1846C77.0192 61.1846 76.6842 61.2507 76.4062 61.3828C76.1328 61.5104 75.9049 61.6813 75.7227 61.8955C75.5404 62.1051 75.3968 62.3353 75.292 62.5859C75.1872 62.8366 75.1097 63.0827 75.0596 63.3242V65.5049C75.1462 65.8512 75.2852 66.1725 75.4766 66.4688C75.668 66.7604 75.9232 66.9951 76.2422 67.1729C76.5658 67.346 76.96 67.4326 77.4248 67.4326C77.7985 67.4326 78.1221 67.3551 78.3955 67.2002C78.6689 67.0452 78.8945 66.8288 79.0723 66.5508C79.2546 66.2728 79.389 65.9492 79.4756 65.5801C79.5667 65.2109 79.6123 64.8099 79.6123 64.377ZM86.749 66.6738V62.8594C86.749 62.5085 86.6761 62.2054 86.5303 61.9502C86.3844 61.695 86.1702 61.499 85.8877 61.3623C85.6051 61.2256 85.2565 61.1572 84.8418 61.1572C84.459 61.1572 84.1172 61.2256 83.8164 61.3623C83.5202 61.4945 83.2855 61.6745 83.1123 61.9023C82.9437 62.1257 82.8594 62.374 82.8594 62.6475L82.0391 62.6406C82.0391 62.3626 82.1074 62.0938 82.2441 61.834C82.3809 61.5742 82.5745 61.3418 82.8252 61.1367C83.0758 60.9316 83.3743 60.7699 83.7207 60.6514C84.0716 60.5283 84.4567 60.4668 84.876 60.4668C85.4046 60.4668 85.8695 60.5557 86.2705 60.7334C86.6761 60.9111 86.9928 61.1777 87.2207 61.5332C87.4486 61.8887 87.5625 62.3353 87.5625 62.873V66.4482C87.5625 66.7035 87.5807 66.9678 87.6172 67.2412C87.6582 67.5146 87.7152 67.7402 87.7881 67.918V68H86.9199C86.8652 67.8359 86.8219 67.6309 86.79 67.3848C86.7627 67.1341 86.749 66.8971 86.749 66.6738ZM86.9404 63.6934L86.9541 64.3223H85.3477C84.9284 64.3223 84.5524 64.361 84.2197 64.4385C83.8916 64.5114 83.6136 64.6208 83.3857 64.7666C83.1579 64.9079 82.9824 65.0788 82.8594 65.2793C82.7409 65.4798 82.6816 65.7077 82.6816 65.9629C82.6816 66.2272 82.7477 66.4688 82.8799 66.6875C83.0166 66.9062 83.208 67.0817 83.4541 67.2139C83.7048 67.3415 84.001 67.4053 84.3428 67.4053C84.7985 67.4053 85.1995 67.321 85.5459 67.1523C85.8968 66.9837 86.1862 66.7627 86.4141 66.4893C86.6419 66.2158 86.7946 65.9173 86.8721 65.5938L87.2275 66.0654C87.1683 66.2933 87.0589 66.528 86.8994 66.7695C86.7445 67.0065 86.5417 67.2298 86.291 67.4395C86.0404 67.6445 85.7441 67.8132 85.4023 67.9453C85.0651 68.0729 84.6823 68.1367 84.2539 68.1367C83.7708 68.1367 83.3493 68.0456 82.9893 67.8633C82.6338 67.681 82.3558 67.4326 82.1553 67.1182C81.9593 66.7992 81.8613 66.4391 81.8613 66.0381C81.8613 65.6735 81.9388 65.3477 82.0938 65.0605C82.2487 64.7689 82.472 64.5228 82.7637 64.3223C83.0599 64.1172 83.4154 63.9622 83.8301 63.8574C84.2493 63.748 84.7188 63.6934 85.2383 63.6934H86.9404ZM94.5557 57.3838H95.2598C95.2598 57.7256 95.1982 58.0104 95.0752 58.2383C94.9567 58.4661 94.7881 58.6507 94.5693 58.792C94.3506 58.9333 94.0931 59.0449 93.7969 59.127C93.5052 59.2044 93.1862 59.2705 92.8398 59.3252C92.416 59.389 92.0264 59.528 91.6709 59.7422C91.32 59.9564 91.0192 60.2503 90.7686 60.624C90.5179 60.9932 90.3288 61.4512 90.2012 61.998C90.0781 62.5404 90.028 63.1761 90.0508 63.9053V64.541H89.3467V63.9053C89.3467 63.1032 89.4242 62.3923 89.5791 61.7725C89.7386 61.1481 89.9642 60.6149 90.2559 60.1729C90.5521 59.7308 90.903 59.3799 91.3086 59.1201C91.7188 58.8558 92.1722 58.6826 92.6689 58.6006C93.1338 58.5277 93.5029 58.4388 93.7764 58.334C94.0544 58.2292 94.2526 58.0993 94.3711 57.9443C94.4941 57.7894 94.5557 57.6025 94.5557 57.3838ZM92.7373 61.0889C93.2204 61.0889 93.6556 61.1709 94.043 61.335C94.4303 61.499 94.7607 61.7314 95.0342 62.0322C95.3122 62.3285 95.5241 62.6794 95.6699 63.085C95.8203 63.486 95.8955 63.9258 95.8955 64.4043V64.623C95.8955 65.1335 95.818 65.6029 95.6631 66.0312C95.5127 66.4596 95.2939 66.8311 95.0068 67.1455C94.7243 67.46 94.3802 67.7038 93.9746 67.877C93.5736 68.0501 93.1247 68.1367 92.6279 68.1367C92.1266 68.1367 91.6755 68.0501 91.2744 67.877C90.8734 67.7038 90.5293 67.46 90.2422 67.1455C89.9551 66.8311 89.734 66.4596 89.5791 66.0312C89.4242 65.6029 89.3467 65.1335 89.3467 64.623V64.4043C89.3467 64.2721 89.3604 64.1423 89.3877 64.0146C89.4196 63.887 89.4583 63.7617 89.5039 63.6387C89.5495 63.5111 89.5951 63.3857 89.6406 63.2627C89.8001 62.848 90.0257 62.4788 90.3174 62.1553C90.609 61.8271 90.9577 61.5674 91.3633 61.376C91.7734 61.1846 92.2314 61.0889 92.7373 61.0889ZM92.6143 61.7861C92.0811 61.7861 91.6322 61.9092 91.2676 62.1553C90.9076 62.3968 90.6341 62.7181 90.4473 63.1191C90.2604 63.5156 90.167 63.944 90.167 64.4043V64.623C90.167 65.0013 90.2194 65.359 90.3242 65.6963C90.429 66.0335 90.584 66.3343 90.7891 66.5986C90.9987 66.8584 91.2562 67.0635 91.5615 67.2139C91.8669 67.3643 92.2223 67.4395 92.6279 67.4395C93.029 67.4395 93.3822 67.3643 93.6875 67.2139C93.9928 67.0635 94.248 66.8584 94.4531 66.5986C94.6582 66.3343 94.8132 66.0335 94.918 65.6963C95.0228 65.359 95.0752 65.0013 95.0752 64.623V64.4043C95.0752 64.0579 95.0228 63.7275 94.918 63.4131C94.8132 63.0986 94.6559 62.8206 94.4463 62.5791C94.2412 62.333 93.9837 62.1393 93.6738 61.998C93.3685 61.8568 93.0153 61.7861 92.6143 61.7861ZM97.0166 64.418V64.1924C97.0166 63.6546 97.0941 63.1579 97.249 62.7021C97.404 62.2464 97.625 61.8522 97.9121 61.5195C98.2038 61.1868 98.5524 60.9294 98.958 60.7471C99.3636 60.5602 99.8148 60.4668 100.312 60.4668C100.813 60.4668 101.266 60.5602 101.672 60.7471C102.077 60.9294 102.426 61.1868 102.718 61.5195C103.009 61.8522 103.233 62.2464 103.388 62.7021C103.543 63.1579 103.62 63.6546 103.62 64.1924V64.418C103.62 64.9557 103.543 65.4525 103.388 65.9082C103.233 66.3594 103.009 66.7513 102.718 67.084C102.431 67.4167 102.084 67.6764 101.679 67.8633C101.273 68.0456 100.822 68.1367 100.325 68.1367C99.8239 68.1367 99.3704 68.0456 98.9648 67.8633C98.5592 67.6764 98.2106 67.4167 97.9189 67.084C97.6273 66.7513 97.404 66.3594 97.249 65.9082C97.0941 65.4525 97.0166 64.9557 97.0166 64.418ZM97.8301 64.1924V64.418C97.8301 64.8236 97.8848 65.2087 97.9941 65.5732C98.1035 65.9333 98.263 66.2546 98.4727 66.5371C98.6823 66.8151 98.9421 67.0339 99.252 67.1934C99.5618 67.3529 99.9196 67.4326 100.325 67.4326C100.726 67.4326 101.079 67.3529 101.385 67.1934C101.695 67.0339 101.954 66.8151 102.164 66.5371C102.374 66.2546 102.531 65.9333 102.636 65.5732C102.745 65.2087 102.8 64.8236 102.8 64.418V64.1924C102.8 63.7913 102.745 63.4108 102.636 63.0508C102.531 62.6908 102.371 62.3695 102.157 62.0869C101.948 61.8044 101.688 61.5811 101.378 61.417C101.068 61.2529 100.713 61.1709 100.312 61.1709C99.9105 61.1709 99.555 61.2529 99.2451 61.417C98.9398 61.5811 98.68 61.8044 98.4658 62.0869C98.2562 62.3695 98.0967 62.6908 97.9873 63.0508C97.8825 63.4108 97.8301 63.7913 97.8301 64.1924ZM107.776 60.6035V68H106.963V60.6035H107.776ZM110.47 60.6035V61.3008H104.365V60.6035H110.47ZM116.212 66.6738V62.8594C116.212 62.5085 116.139 62.2054 115.993 61.9502C115.847 61.695 115.633 61.499 115.351 61.3623C115.068 61.2256 114.719 61.1572 114.305 61.1572C113.922 61.1572 113.58 61.2256 113.279 61.3623C112.983 61.4945 112.748 61.6745 112.575 61.9023C112.407 62.1257 112.322 62.374 112.322 62.6475L111.502 62.6406C111.502 62.3626 111.57 62.0938 111.707 61.834C111.844 61.5742 112.037 61.3418 112.288 61.1367C112.539 60.9316 112.837 60.7699 113.184 60.6514C113.535 60.5283 113.92 60.4668 114.339 60.4668C114.868 60.4668 115.332 60.5557 115.733 60.7334C116.139 60.9111 116.456 61.1777 116.684 61.5332C116.911 61.8887 117.025 62.3353 117.025 62.873V66.4482C117.025 66.7035 117.044 66.9678 117.08 67.2412C117.121 67.5146 117.178 67.7402 117.251 67.918V68H116.383C116.328 67.8359 116.285 67.6309 116.253 67.3848C116.226 67.1341 116.212 66.8971 116.212 66.6738ZM116.403 63.6934L116.417 64.3223H114.811C114.391 64.3223 114.015 64.361 113.683 64.4385C113.354 64.5114 113.076 64.6208 112.849 64.7666C112.621 64.9079 112.445 65.0788 112.322 65.2793C112.204 65.4798 112.145 65.7077 112.145 65.9629C112.145 66.2272 112.211 66.4688 112.343 66.6875C112.479 66.9062 112.671 67.0817 112.917 67.2139C113.168 67.3415 113.464 67.4053 113.806 67.4053C114.261 67.4053 114.662 67.321 115.009 67.1523C115.36 66.9837 115.649 66.7627 115.877 66.4893C116.105 66.2158 116.257 65.9173 116.335 65.5938L116.69 66.0654C116.631 66.2933 116.522 66.528 116.362 66.7695C116.207 67.0065 116.005 67.2298 115.754 67.4395C115.503 67.6445 115.207 67.8132 114.865 67.9453C114.528 68.0729 114.145 68.1367 113.717 68.1367C113.234 68.1367 112.812 68.0456 112.452 67.8633C112.097 67.681 111.819 67.4326 111.618 67.1182C111.422 66.7992 111.324 66.4391 111.324 66.0381C111.324 65.6735 111.402 65.3477 111.557 65.0605C111.712 64.7689 111.935 64.5228 112.227 64.3223C112.523 64.1172 112.878 63.9622 113.293 63.8574C113.712 63.748 114.182 63.6934 114.701 63.6934H116.403ZM124.237 60.6035V61.3145H120.491V60.6035H124.237ZM124.9 60.6035V68H124.087V60.6035H124.9ZM120.272 60.6035H121.086L120.922 64.0693C120.895 64.6299 120.849 65.1266 120.785 65.5596C120.726 65.9925 120.644 66.3639 120.539 66.6738C120.434 66.9792 120.3 67.2298 120.136 67.4258C119.976 67.6217 119.783 67.7676 119.555 67.8633C119.327 67.9544 119.06 68 118.755 68H118.447V67.2617L118.7 67.2549C118.896 67.2458 119.067 67.2048 119.213 67.1318C119.363 67.0589 119.491 66.9427 119.596 66.7832C119.705 66.6237 119.794 66.4141 119.862 66.1543C119.935 65.8945 119.992 65.5778 120.033 65.2041C120.079 64.8258 120.113 64.3815 120.136 63.8711L120.272 60.6035ZM127.97 66.6738L131.969 60.6035H132.789V68H131.969V61.9297L127.97 68H127.163V60.6035H127.97V66.6738ZM144.39 65.3613C144.39 65.9629 144.248 66.471 143.966 66.8857C143.688 67.3005 143.31 67.6126 142.831 67.8223C142.353 68.0319 141.817 68.1367 141.225 68.1367C140.628 68.1367 140.09 68.0319 139.611 67.8223C139.133 67.6126 138.752 67.3005 138.47 66.8857C138.192 66.471 138.053 65.9629 138.053 65.3613C138.053 64.9648 138.13 64.6048 138.285 64.2812C138.445 63.9531 138.666 63.6706 138.948 63.4336C139.235 63.1921 139.57 63.0052 139.953 62.873C140.336 62.7409 140.755 62.6748 141.211 62.6748C141.812 62.6748 142.353 62.791 142.831 63.0234C143.31 63.2513 143.688 63.5658 143.966 63.9668C144.248 64.3678 144.39 64.8327 144.39 65.3613ZM143.569 65.3613C143.569 64.9375 143.467 64.5661 143.262 64.2471C143.057 63.9281 142.776 63.682 142.421 63.5088C142.065 63.3311 141.662 63.2422 141.211 63.2422C140.755 63.2422 140.352 63.3311 140.001 63.5088C139.65 63.682 139.374 63.9281 139.174 64.2471C138.973 64.5661 138.873 64.9375 138.873 65.3613C138.873 65.8034 138.971 66.1794 139.167 66.4893C139.368 66.7992 139.646 67.0339 140.001 67.1934C140.356 67.3529 140.764 67.4326 141.225 67.4326C141.685 67.4326 142.09 67.3529 142.441 67.1934C142.792 67.0339 143.068 66.7992 143.269 66.4893C143.469 66.1794 143.569 65.8034 143.569 65.3613ZM144.13 60.6035C144.13 61.0911 144 61.5264 143.74 61.9092C143.485 62.2874 143.139 62.5859 142.701 62.8047C142.264 63.0189 141.769 63.126 141.218 63.126C140.662 63.126 140.163 63.0189 139.721 62.8047C139.283 62.5859 138.937 62.2874 138.682 61.9092C138.431 61.5264 138.306 61.0911 138.306 60.6035C138.306 60.0247 138.431 59.5371 138.682 59.1406C138.937 58.7396 139.283 58.4342 139.721 58.2246C140.158 58.015 140.655 57.9102 141.211 57.9102C141.762 57.9102 142.257 58.015 142.694 58.2246C143.136 58.4342 143.485 58.7396 143.74 59.1406C144 59.5371 144.13 60.0247 144.13 60.6035ZM143.316 60.5967C143.316 60.2093 143.223 59.8675 143.036 59.5713C142.854 59.2751 142.603 59.0426 142.284 58.874C141.97 58.7008 141.612 58.6143 141.211 58.6143C140.805 58.6143 140.445 58.694 140.131 58.8535C139.821 59.013 139.575 59.2409 139.393 59.5371C139.215 59.8333 139.126 60.1865 139.126 60.5967C139.126 60.9977 139.215 61.3441 139.393 61.6357C139.575 61.9229 139.823 62.1462 140.138 62.3057C140.452 62.4652 140.812 62.5449 141.218 62.5449C141.623 62.5449 141.983 62.4652 142.298 62.3057C142.612 62.1462 142.861 61.9229 143.043 61.6357C143.225 61.3441 143.316 60.9977 143.316 60.5967ZM154.596 60.6035V61.3145H150.269V60.6035H154.596ZM150.453 60.6035V68H149.64V60.6035H150.453ZM155.266 60.6035V68H154.445V60.6035H155.266ZM158.267 62.0254V70.8438H157.446V60.6035H158.212L158.267 62.0254ZM163.407 64.2334V64.377C163.407 64.9284 163.343 65.4342 163.216 65.8945C163.088 66.3548 162.904 66.7536 162.662 67.0908C162.425 67.4235 162.131 67.681 161.78 67.8633C161.429 68.0456 161.031 68.1367 160.584 68.1367C160.142 68.1367 159.748 68.0684 159.401 67.9316C159.055 67.7949 158.757 67.6012 158.506 67.3506C158.26 67.0954 158.062 66.7992 157.911 66.4619C157.765 66.1201 157.663 65.7464 157.604 65.3408V63.4473C157.672 63.0007 157.784 62.5951 157.938 62.2305C158.093 61.8659 158.292 61.5514 158.533 61.2871C158.779 61.0228 159.071 60.82 159.408 60.6787C159.745 60.5374 160.131 60.4668 160.563 60.4668C161.015 60.4668 161.416 60.5557 161.767 60.7334C162.122 60.9066 162.421 61.1595 162.662 61.4922C162.908 61.8203 163.093 62.2168 163.216 62.6816C163.343 63.1419 163.407 63.6592 163.407 64.2334ZM162.587 64.377V64.2334C162.587 63.8005 162.541 63.3994 162.45 63.0303C162.364 62.6611 162.229 62.3398 162.047 62.0664C161.869 61.7884 161.641 61.5719 161.363 61.417C161.09 61.262 160.764 61.1846 160.386 61.1846C159.994 61.1846 159.659 61.2507 159.381 61.3828C159.107 61.5104 158.88 61.6813 158.697 61.8955C158.515 62.1051 158.371 62.3353 158.267 62.5859C158.162 62.8366 158.084 63.0827 158.034 63.3242V65.5049C158.121 65.8512 158.26 66.1725 158.451 66.4688C158.643 66.7604 158.898 66.9951 159.217 67.1729C159.54 67.346 159.935 67.4326 160.399 67.4326C160.773 67.4326 161.097 67.3551 161.37 67.2002C161.644 67.0452 161.869 66.8288 162.047 66.5508C162.229 66.2728 162.364 65.9492 162.45 65.5801C162.541 65.2109 162.587 64.8099 162.587 64.377ZM169.724 66.6738V62.8594C169.724 62.5085 169.651 62.2054 169.505 61.9502C169.359 61.695 169.145 61.499 168.862 61.3623C168.58 61.2256 168.231 61.1572 167.816 61.1572C167.434 61.1572 167.092 61.2256 166.791 61.3623C166.495 61.4945 166.26 61.6745 166.087 61.9023C165.918 62.1257 165.834 62.374 165.834 62.6475L165.014 62.6406C165.014 62.3626 165.082 62.0938 165.219 61.834C165.355 61.5742 165.549 61.3418 165.8 61.1367C166.05 60.9316 166.349 60.7699 166.695 60.6514C167.046 60.5283 167.431 60.4668 167.851 60.4668C168.379 60.4668 168.844 60.5557 169.245 60.7334C169.651 60.9111 169.967 61.1777 170.195 61.5332C170.423 61.8887 170.537 62.3353 170.537 62.873V66.4482C170.537 66.7035 170.555 66.9678 170.592 67.2412C170.633 67.5146 170.69 67.7402 170.763 67.918V68H169.895C169.84 67.8359 169.797 67.6309 169.765 67.3848C169.737 67.1341 169.724 66.8971 169.724 66.6738ZM169.915 63.6934L169.929 64.3223H168.322C167.903 64.3223 167.527 64.361 167.194 64.4385C166.866 64.5114 166.588 64.6208 166.36 64.7666C166.132 64.9079 165.957 65.0788 165.834 65.2793C165.715 65.4798 165.656 65.7077 165.656 65.9629C165.656 66.2272 165.722 66.4688 165.854 66.6875C165.991 66.9062 166.183 67.0817 166.429 67.2139C166.679 67.3415 166.976 67.4053 167.317 67.4053C167.773 67.4053 168.174 67.321 168.521 67.1523C168.871 66.9837 169.161 66.7627 169.389 66.4893C169.617 66.2158 169.769 65.9173 169.847 65.5938L170.202 66.0654C170.143 66.2933 170.034 66.528 169.874 66.7695C169.719 67.0065 169.516 67.2298 169.266 67.4395C169.015 67.6445 168.719 67.8132 168.377 67.9453C168.04 68.0729 167.657 68.1367 167.229 68.1367C166.745 68.1367 166.324 68.0456 165.964 67.8633C165.608 67.681 165.33 67.4326 165.13 67.1182C164.934 66.7992 164.836 66.4391 164.836 66.0381C164.836 65.6735 164.913 65.3477 165.068 65.0605C165.223 64.7689 165.447 64.5228 165.738 64.3223C166.035 64.1172 166.39 63.9622 166.805 63.8574C167.224 63.748 167.693 63.6934 168.213 63.6934H169.915ZM175.999 64.5889H173.401L173.388 63.9053H175.603C176.049 63.9053 176.421 63.8574 176.717 63.7617C177.018 63.6615 177.243 63.5133 177.394 63.3174C177.549 63.1214 177.626 62.8799 177.626 62.5928C177.626 62.374 177.58 62.1826 177.489 62.0186C177.403 61.8545 177.271 61.7201 177.093 61.6152C176.92 61.5104 176.701 61.4329 176.437 61.3828C176.177 61.3281 175.874 61.3008 175.527 61.3008H173.634V68H172.82V60.6035H175.527C175.979 60.6035 176.382 60.6445 176.737 60.7266C177.097 60.804 177.405 60.9225 177.66 61.082C177.915 61.2415 178.109 61.4466 178.241 61.6973C178.378 61.9434 178.446 62.235 178.446 62.5723C178.446 62.8001 178.403 63.0143 178.316 63.2148C178.23 63.4108 178.102 63.5885 177.934 63.748C177.77 63.903 177.567 64.0306 177.325 64.1309C177.084 64.2266 176.806 64.2858 176.491 64.3086L175.999 64.5889ZM175.999 68H173.148L173.463 67.3027H175.999C176.409 67.3027 176.758 67.2503 177.045 67.1455C177.332 67.0407 177.549 66.8857 177.694 66.6807C177.845 66.4756 177.92 66.2272 177.92 65.9355C177.92 65.6621 177.845 65.4251 177.694 65.2246C177.549 65.0241 177.332 64.8691 177.045 64.7598C176.758 64.6458 176.409 64.5889 175.999 64.5889H174.112L174.126 63.9053H176.553L176.901 64.165C177.275 64.1969 177.599 64.2972 177.872 64.4658C178.146 64.6344 178.357 64.8486 178.508 65.1084C178.658 65.3636 178.733 65.6439 178.733 65.9492C178.733 66.2865 178.67 66.585 178.542 66.8447C178.414 67.0999 178.23 67.3141 177.988 67.4873C177.751 67.6559 177.464 67.7835 177.127 67.8701C176.79 67.9567 176.414 68 175.999 68ZM181.427 66.6738L185.426 60.6035H186.246V68H185.426V61.9297L181.427 68H180.62V60.6035H181.427V66.6738ZM193.458 60.6035V61.3145H189.712V60.6035H193.458ZM194.121 60.6035V68H193.308V60.6035H194.121ZM189.493 60.6035H190.307L190.143 64.0693C190.115 64.6299 190.07 65.1266 190.006 65.5596C189.947 65.9925 189.865 66.3639 189.76 66.6738C189.655 66.9792 189.521 67.2298 189.356 67.4258C189.197 67.6217 189.003 67.7676 188.775 67.8633C188.548 67.9544 188.281 68 187.976 68H187.668V67.2617L187.921 67.2549C188.117 67.2458 188.288 67.2048 188.434 67.1318C188.584 67.0589 188.712 66.9427 188.816 66.7832C188.926 66.6237 189.015 66.4141 189.083 66.1543C189.156 65.8945 189.213 65.5778 189.254 65.2041C189.299 64.8258 189.334 64.3815 189.356 63.8711L189.493 60.6035ZM197.115 66.708V67.665C197.115 68.0843 197.029 68.4876 196.855 68.875C196.682 69.2669 196.448 69.5973 196.151 69.8662L195.673 69.5107C195.814 69.3193 195.933 69.1279 196.028 68.9365C196.124 68.7497 196.195 68.5537 196.24 68.3486C196.29 68.1436 196.315 67.9225 196.315 67.6855V66.708H197.115ZM28.8008 86.4326C29.1471 86.4326 29.4707 86.3688 29.7715 86.2412C30.0768 86.109 30.3275 85.9154 30.5234 85.6602C30.724 85.4004 30.8379 85.0837 30.8652 84.71H31.6445C31.6217 85.1794 31.4782 85.5986 31.2139 85.9678C30.9541 86.3324 30.6123 86.6195 30.1885 86.8291C29.7692 87.0342 29.3066 87.1367 28.8008 87.1367C28.2858 87.1367 27.8301 87.0433 27.4336 86.8564C27.0417 86.6696 26.7135 86.4098 26.4492 86.0771C26.1849 85.7399 25.9844 85.348 25.8477 84.9014C25.7155 84.4502 25.6494 83.9648 25.6494 83.4453V83.1582C25.6494 82.6387 25.7155 82.1556 25.8477 81.709C25.9844 81.2578 26.1849 80.8659 26.4492 80.5332C26.7135 80.196 27.0417 79.9339 27.4336 79.7471C27.8255 79.5602 28.279 79.4668 28.7939 79.4668C29.3226 79.4668 29.7965 79.5739 30.2158 79.7881C30.6396 80.0023 30.9769 80.3053 31.2275 80.6973C31.4827 81.0892 31.6217 81.554 31.6445 82.0918H30.8652C30.8424 81.6953 30.7376 81.3535 30.5508 81.0664C30.3639 80.7793 30.1178 80.5583 29.8125 80.4033C29.5072 80.2484 29.1676 80.1709 28.7939 80.1709C28.3747 80.1709 28.0169 80.2529 27.7207 80.417C27.4245 80.5765 27.1829 80.7975 26.9961 81.0801C26.8138 81.3581 26.6794 81.6771 26.5928 82.0371C26.5062 82.3926 26.4629 82.7663 26.4629 83.1582V83.4453C26.4629 83.8418 26.5039 84.2201 26.5859 84.5801C26.6725 84.9355 26.807 85.2523 26.9893 85.5303C27.1761 85.8083 27.4176 86.0293 27.7139 86.1934C28.0146 86.3529 28.377 86.4326 28.8008 86.4326ZM38.3096 79.6035V80.3145H34.5635V79.6035H38.3096ZM38.9727 79.6035V87H38.1592V79.6035H38.9727ZM34.3447 79.6035H35.1582L34.9941 83.0693C34.9668 83.6299 34.9212 84.1266 34.8574 84.5596C34.7982 84.9925 34.7161 85.3639 34.6113 85.6738C34.5065 85.9792 34.3721 86.2298 34.208 86.4258C34.0485 86.6217 33.8548 86.7676 33.627 86.8633C33.3991 86.9544 33.1325 87 32.8271 87H32.5195V86.2617L32.7725 86.2549C32.9684 86.2458 33.1393 86.2048 33.2852 86.1318C33.4355 86.0589 33.5632 85.9427 33.668 85.7832C33.7773 85.6237 33.8662 85.4141 33.9346 85.1543C34.0075 84.8945 34.0645 84.5778 34.1055 84.2041C34.151 83.8258 34.1852 83.3815 34.208 82.8711L34.3447 79.6035ZM44.0381 87.1367C43.555 87.1367 43.1107 87.0479 42.7051 86.8701C42.304 86.6924 41.9531 86.4417 41.6523 86.1182C41.3561 85.7946 41.126 85.4118 40.9619 84.9697C40.8024 84.5231 40.7227 84.0355 40.7227 83.5068V83.2129C40.7227 82.6432 40.807 82.1283 40.9756 81.668C41.1442 81.2077 41.3766 80.8135 41.6729 80.4854C41.9691 80.1572 42.3063 79.9066 42.6846 79.7334C43.0674 79.5557 43.4684 79.4668 43.8877 79.4668C44.3571 79.4668 44.7741 79.5511 45.1387 79.7197C45.5033 79.8838 45.8086 80.1185 46.0547 80.4238C46.3053 80.7246 46.4945 81.0824 46.6221 81.4971C46.7497 81.9072 46.8135 82.3607 46.8135 82.8574V83.3564H41.2148V82.6592H46V82.5635C45.9909 82.1488 45.9066 81.7614 45.7471 81.4014C45.5921 81.0368 45.3597 80.7406 45.0498 80.5127C44.7399 80.2848 44.3525 80.1709 43.8877 80.1709C43.5413 80.1709 43.2223 80.2438 42.9307 80.3896C42.6436 80.5355 42.3952 80.7451 42.1855 81.0186C41.9805 81.2874 41.821 81.6087 41.707 81.9824C41.5977 82.3516 41.543 82.7617 41.543 83.2129V83.5068C41.543 83.917 41.6022 84.2998 41.7207 84.6553C41.8438 85.0062 42.0169 85.3161 42.2402 85.585C42.4681 85.8538 42.737 86.0635 43.0469 86.2139C43.3568 86.3643 43.6986 86.4395 44.0723 86.4395C44.5098 86.4395 44.8971 86.3597 45.2344 86.2002C45.5716 86.0361 45.8747 85.7786 46.1436 85.4277L46.6562 85.8242C46.4967 86.0612 46.2962 86.2799 46.0547 86.4805C45.8177 86.681 45.5329 86.8405 45.2002 86.959C44.8675 87.0775 44.4801 87.1367 44.0381 87.1367ZM49.7393 79.6035H50.5527L50.4297 82.2695C50.3978 82.9805 50.318 83.598 50.1904 84.1221C50.0674 84.6416 49.9147 85.0859 49.7324 85.4551C49.5501 85.8197 49.3496 86.1273 49.1309 86.3779C48.9167 86.624 48.6979 86.8314 48.4746 87H48.0303L48.0439 86.3027L48.249 86.2959C48.3812 86.1364 48.5179 85.9564 48.6592 85.7559C48.805 85.5508 48.944 85.3001 49.0762 85.0039C49.2083 84.7077 49.3223 84.3385 49.418 83.8965C49.5137 83.4544 49.5775 82.9121 49.6094 82.2695L49.7393 79.6035ZM50.0059 79.6035H54.1006V87H53.2871V80.3691H50.0059V79.6035ZM47.7158 86.2959H54.873V89.1738H54.0527V87H48.4951V89.1738H47.7158V86.2959ZM58.6465 86.2617L60.9502 79.6035H61.832L58.7012 88.1895C58.6374 88.3581 58.5553 88.5449 58.4551 88.75C58.3594 88.9551 58.2318 89.151 58.0723 89.3379C57.9173 89.5293 57.7214 89.6842 57.4844 89.8027C57.252 89.9258 56.9671 89.9873 56.6299 89.9873C56.5433 89.9873 56.4316 89.9759 56.2949 89.9531C56.1628 89.9349 56.0671 89.9167 56.0078 89.8984L56.001 89.208C56.0511 89.2217 56.124 89.2331 56.2197 89.2422C56.3154 89.2513 56.3815 89.2559 56.418 89.2559C56.7142 89.2559 56.9626 89.2057 57.1631 89.1055C57.3682 89.0052 57.5391 88.8548 57.6758 88.6543C57.8125 88.4583 57.9333 88.2122 58.0381 87.916L58.6465 86.2617ZM56.4932 79.6035L58.8516 85.9541L59.0703 86.8086L58.4756 87.1436L55.6045 79.6035H56.4932ZM64.7236 83.6094H65.626L63.5752 87H62.6729L64.7236 83.6094ZM65.5918 79.6035H68.4971V87H67.6836V80.3008H65.5918C65.1589 80.3008 64.8057 80.3737 64.5322 80.5195C64.2633 80.6608 64.0651 80.8477 63.9375 81.0801C63.8145 81.3125 63.7529 81.5609 63.7529 81.8252C63.7529 82.0758 63.8076 82.3151 63.917 82.543C64.0309 82.7708 64.2064 82.9577 64.4434 83.1035C64.6803 83.2448 64.988 83.3154 65.3662 83.3154H67.9775V84.0195H65.3662C64.9788 84.0195 64.6348 83.9648 64.334 83.8555C64.0332 83.7461 63.778 83.5934 63.5684 83.3975C63.3633 83.1969 63.2061 82.9622 63.0967 82.6934C62.9919 82.4199 62.9395 82.126 62.9395 81.8115C62.9395 81.4925 62.9964 81.2008 63.1104 80.9365C63.2288 80.6676 63.3997 80.4329 63.623 80.2324C63.8509 80.0319 64.1289 79.877 64.457 79.7676C64.7897 79.6582 65.168 79.6035 65.5918 79.6035ZM74.998 79.6035V87H74.1777V79.6035H74.998ZM79.8652 79.6035L76.4746 83.6094H74.7109L74.6221 82.8779H76.126L78.833 79.6035H79.8652ZM79.127 87L76.0439 83.5L76.5635 82.8711L80.207 87H79.127ZM80.7881 83.418V83.1924C80.7881 82.6546 80.8656 82.1579 81.0205 81.7021C81.1755 81.2464 81.3965 80.8522 81.6836 80.5195C81.9753 80.1868 82.3239 79.9294 82.7295 79.7471C83.1351 79.5602 83.5863 79.4668 84.083 79.4668C84.5843 79.4668 85.0378 79.5602 85.4434 79.7471C85.849 79.9294 86.1976 80.1868 86.4893 80.5195C86.7809 80.8522 87.0042 81.2464 87.1592 81.7021C87.3141 82.1579 87.3916 82.6546 87.3916 83.1924V83.418C87.3916 83.9557 87.3141 84.4525 87.1592 84.9082C87.0042 85.3594 86.7809 85.7513 86.4893 86.084C86.2021 86.4167 85.8558 86.6764 85.4502 86.8633C85.0446 87.0456 84.5934 87.1367 84.0967 87.1367C83.5954 87.1367 83.1419 87.0456 82.7363 86.8633C82.3307 86.6764 81.9821 86.4167 81.6904 86.084C81.3988 85.7513 81.1755 85.3594 81.0205 84.9082C80.8656 84.4525 80.7881 83.9557 80.7881 83.418ZM81.6016 83.1924V83.418C81.6016 83.8236 81.6562 84.2087 81.7656 84.5732C81.875 84.9333 82.0345 85.2546 82.2441 85.5371C82.4538 85.8151 82.7135 86.0339 83.0234 86.1934C83.3333 86.3529 83.6911 86.4326 84.0967 86.4326C84.4977 86.4326 84.8509 86.3529 85.1562 86.1934C85.4661 86.0339 85.7259 85.8151 85.9355 85.5371C86.1452 85.2546 86.3024 84.9333 86.4072 84.5732C86.5166 84.2087 86.5713 83.8236 86.5713 83.418V83.1924C86.5713 82.7913 86.5166 82.4108 86.4072 82.0508C86.3024 81.6908 86.1429 81.3695 85.9287 81.0869C85.7191 80.8044 85.4593 80.5811 85.1494 80.417C84.8395 80.2529 84.484 80.1709 84.083 80.1709C83.682 80.1709 83.3265 80.2529 83.0166 80.417C82.7113 80.5811 82.4515 80.8044 82.2373 81.0869C82.0277 81.3695 81.8682 81.6908 81.7588 82.0508C81.654 82.4108 81.6016 82.7913 81.6016 83.1924ZM91.5479 79.6035V87H90.7344V79.6035H91.5479ZM94.2412 79.6035V80.3008H88.1367V79.6035H94.2412ZM94.8564 83.418V83.1924C94.8564 82.6546 94.9339 82.1579 95.0889 81.7021C95.2438 81.2464 95.4648 80.8522 95.752 80.5195C96.0436 80.1868 96.3923 79.9294 96.7979 79.7471C97.2035 79.5602 97.6546 79.4668 98.1514 79.4668C98.6527 79.4668 99.1061 79.5602 99.5117 79.7471C99.9173 79.9294 100.266 80.1868 100.558 80.5195C100.849 80.8522 101.073 81.2464 101.228 81.7021C101.382 82.1579 101.46 82.6546 101.46 83.1924V83.418C101.46 83.9557 101.382 84.4525 101.228 84.9082C101.073 85.3594 100.849 85.7513 100.558 86.084C100.271 86.4167 99.9242 86.6764 99.5186 86.8633C99.113 87.0456 98.6618 87.1367 98.165 87.1367C97.6637 87.1367 97.2103 87.0456 96.8047 86.8633C96.3991 86.6764 96.0505 86.4167 95.7588 86.084C95.4671 85.7513 95.2438 85.3594 95.0889 84.9082C94.9339 84.4525 94.8564 83.9557 94.8564 83.418ZM95.6699 83.1924V83.418C95.6699 83.8236 95.7246 84.2087 95.834 84.5732C95.9434 84.9333 96.1029 85.2546 96.3125 85.5371C96.5221 85.8151 96.7819 86.0339 97.0918 86.1934C97.4017 86.3529 97.7594 86.4326 98.165 86.4326C98.5661 86.4326 98.9193 86.3529 99.2246 86.1934C99.5345 86.0339 99.7943 85.8151 100.004 85.5371C100.214 85.2546 100.371 84.9333 100.476 84.5732C100.585 84.2087 100.64 83.8236 100.64 83.418V83.1924C100.64 82.7913 100.585 82.4108 100.476 82.0508C100.371 81.6908 100.211 81.3695 99.9971 81.0869C99.7874 80.8044 99.5277 80.5811 99.2178 80.417C98.9079 80.2529 98.5524 80.1709 98.1514 80.1709C97.7503 80.1709 97.3949 80.2529 97.085 80.417C96.7796 80.5811 96.5199 80.8044 96.3057 81.0869C96.096 81.3695 95.9365 81.6908 95.8271 82.0508C95.7223 82.4108 95.6699 82.7913 95.6699 83.1924ZM103.962 81.0254V89.8438H103.142V79.6035H103.907L103.962 81.0254ZM109.103 83.2334V83.377C109.103 83.9284 109.039 84.4342 108.911 84.8945C108.784 85.3548 108.599 85.7536 108.357 86.0908C108.12 86.4235 107.826 86.681 107.476 86.8633C107.125 87.0456 106.726 87.1367 106.279 87.1367C105.837 87.1367 105.443 87.0684 105.097 86.9316C104.75 86.7949 104.452 86.6012 104.201 86.3506C103.955 86.0954 103.757 85.7992 103.606 85.4619C103.461 85.1201 103.358 84.7464 103.299 84.3408V82.4473C103.367 82.0007 103.479 81.5951 103.634 81.2305C103.789 80.8659 103.987 80.5514 104.229 80.2871C104.475 80.0228 104.766 79.82 105.104 79.6787C105.441 79.5374 105.826 79.4668 106.259 79.4668C106.71 79.4668 107.111 79.5557 107.462 79.7334C107.817 79.9066 108.116 80.1595 108.357 80.4922C108.604 80.8203 108.788 81.2168 108.911 81.6816C109.039 82.1419 109.103 82.6592 109.103 83.2334ZM108.282 83.377V83.2334C108.282 82.8005 108.237 82.3994 108.146 82.0303C108.059 81.6611 107.924 81.3398 107.742 81.0664C107.564 80.7884 107.337 80.5719 107.059 80.417C106.785 80.262 106.459 80.1846 106.081 80.1846C105.689 80.1846 105.354 80.2507 105.076 80.3828C104.803 80.5104 104.575 80.6813 104.393 80.8955C104.21 81.1051 104.067 81.3353 103.962 81.5859C103.857 81.8366 103.78 82.0827 103.729 82.3242V84.5049C103.816 84.8512 103.955 85.1725 104.146 85.4688C104.338 85.7604 104.593 85.9951 104.912 86.1729C105.236 86.346 105.63 86.4326 106.095 86.4326C106.468 86.4326 106.792 86.3551 107.065 86.2002C107.339 86.0452 107.564 85.8288 107.742 85.5508C107.924 85.2728 108.059 84.9492 108.146 84.5801C108.237 84.2109 108.282 83.8099 108.282 83.377ZM111.529 82.2832H113.942C114.526 82.2832 115.018 82.3857 115.419 82.5908C115.82 82.7913 116.123 83.0693 116.328 83.4248C116.538 83.7803 116.643 84.1813 116.643 84.6279C116.643 84.9652 116.583 85.2796 116.465 85.5713C116.351 85.8584 116.178 86.109 115.945 86.3232C115.717 86.5374 115.435 86.7038 115.098 86.8223C114.765 86.9408 114.38 87 113.942 87H111.01V79.6035H111.823V86.2959H113.942C114.394 86.2959 114.758 86.2184 115.036 86.0635C115.314 85.904 115.515 85.6989 115.638 85.4482C115.765 85.1976 115.829 84.931 115.829 84.6484C115.829 84.3704 115.765 84.1061 115.638 83.8555C115.515 83.6003 115.314 83.3929 115.036 83.2334C114.758 83.0693 114.394 82.9873 113.942 82.9873H111.529V82.2832ZM119.151 79.6035V87H118.338V79.6035H119.151ZM125.522 85.8789L128.462 79.6035H129.275L125.81 87H125.235L121.776 79.6035H122.59L125.522 85.8789ZM122.337 79.6035V87H121.523V79.6035H122.337ZM128.653 87V79.6035H129.474V87H128.653ZM132.461 85.708V86.665C132.461 87.0843 132.374 87.4876 132.201 87.875C132.028 88.2669 131.793 88.5973 131.497 88.8662L131.019 88.5107C131.16 88.3193 131.278 88.1279 131.374 87.9365C131.47 87.7497 131.54 87.5537 131.586 87.3486C131.636 87.1436 131.661 86.9225 131.661 86.6855V85.708H132.461ZM137.841 79.6035H138.654V86.2959H141.949V79.6035H142.77V86.2959H146.03V79.6035H146.844V87H137.841V79.6035ZM151.759 87.1367C151.276 87.1367 150.831 87.0479 150.426 86.8701C150.025 86.6924 149.674 86.4417 149.373 86.1182C149.077 85.7946 148.847 85.4118 148.683 84.9697C148.523 84.5231 148.443 84.0355 148.443 83.5068V83.2129C148.443 82.6432 148.528 82.1283 148.696 81.668C148.865 81.2077 149.097 80.8135 149.394 80.4854C149.69 80.1572 150.027 79.9066 150.405 79.7334C150.788 79.5557 151.189 79.4668 151.608 79.4668C152.078 79.4668 152.495 79.5511 152.859 79.7197C153.224 79.8838 153.529 80.1185 153.775 80.4238C154.026 80.7246 154.215 81.0824 154.343 81.4971C154.47 81.9072 154.534 82.3607 154.534 82.8574V83.3564H148.936V82.6592H153.721V82.5635C153.712 82.1488 153.627 81.7614 153.468 81.4014C153.313 81.0368 153.08 80.7406 152.771 80.5127C152.461 80.2848 152.073 80.1709 151.608 80.1709C151.262 80.1709 150.943 80.2438 150.651 80.3896C150.364 80.5355 150.116 80.7451 149.906 81.0186C149.701 81.2874 149.542 81.6087 149.428 81.9824C149.318 82.3516 149.264 82.7617 149.264 83.2129V83.5068C149.264 83.917 149.323 84.2998 149.441 84.6553C149.564 85.0062 149.738 85.3161 149.961 85.585C150.189 85.8538 150.458 86.0635 150.768 86.2139C151.077 86.3643 151.419 86.4395 151.793 86.4395C152.23 86.4395 152.618 86.3597 152.955 86.2002C153.292 86.0361 153.595 85.7786 153.864 85.4277L154.377 85.8242C154.217 86.0612 154.017 86.2799 153.775 86.4805C153.538 86.681 153.254 86.8405 152.921 86.959C152.588 87.0775 152.201 87.1367 151.759 87.1367ZM156.954 81.0254V89.8438H156.134V79.6035H156.899L156.954 81.0254ZM162.095 83.2334V83.377C162.095 83.9284 162.031 84.4342 161.903 84.8945C161.776 85.3548 161.591 85.7536 161.35 86.0908C161.113 86.4235 160.819 86.681 160.468 86.8633C160.117 87.0456 159.718 87.1367 159.271 87.1367C158.829 87.1367 158.435 87.0684 158.089 86.9316C157.743 86.7949 157.444 86.6012 157.193 86.3506C156.947 86.0954 156.749 85.7992 156.599 85.4619C156.453 85.1201 156.35 84.7464 156.291 84.3408V82.4473C156.359 82.0007 156.471 81.5951 156.626 81.2305C156.781 80.8659 156.979 80.5514 157.221 80.2871C157.467 80.0228 157.758 79.82 158.096 79.6787C158.433 79.5374 158.818 79.4668 159.251 79.4668C159.702 79.4668 160.103 79.5557 160.454 79.7334C160.81 79.9066 161.108 80.1595 161.35 80.4922C161.596 80.8203 161.78 81.2168 161.903 81.6816C162.031 82.1419 162.095 82.6592 162.095 83.2334ZM161.274 83.377V83.2334C161.274 82.8005 161.229 82.3994 161.138 82.0303C161.051 81.6611 160.917 81.3398 160.734 81.0664C160.557 80.7884 160.329 80.5719 160.051 80.417C159.777 80.262 159.451 80.1846 159.073 80.1846C158.681 80.1846 158.346 80.2507 158.068 80.3828C157.795 80.5104 157.567 80.6813 157.385 80.8955C157.202 81.1051 157.059 81.3353 156.954 81.5859C156.849 81.8366 156.772 82.0827 156.722 82.3242V84.5049C156.808 84.8512 156.947 85.1725 157.139 85.4688C157.33 85.7604 157.585 85.9951 157.904 86.1729C158.228 86.346 158.622 86.4326 159.087 86.4326C159.461 86.4326 159.784 86.3551 160.058 86.2002C160.331 86.0452 160.557 85.8288 160.734 85.5508C160.917 85.2728 161.051 84.9492 161.138 84.5801C161.229 84.2109 161.274 83.8099 161.274 83.377ZM166.641 86.4326C166.987 86.4326 167.311 86.3688 167.611 86.2412C167.917 86.109 168.167 85.9154 168.363 85.6602C168.564 85.4004 168.678 85.0837 168.705 84.71H169.484C169.462 85.1794 169.318 85.5986 169.054 85.9678C168.794 86.3324 168.452 86.6195 168.028 86.8291C167.609 87.0342 167.146 87.1367 166.641 87.1367C166.126 87.1367 165.67 87.0433 165.273 86.8564C164.882 86.6696 164.553 86.4098 164.289 86.0771C164.025 85.7399 163.824 85.348 163.688 84.9014C163.555 84.4502 163.489 83.9648 163.489 83.4453V83.1582C163.489 82.6387 163.555 82.1556 163.688 81.709C163.824 81.2578 164.025 80.8659 164.289 80.5332C164.553 80.196 164.882 79.9339 165.273 79.7471C165.665 79.5602 166.119 79.4668 166.634 79.4668C167.162 79.4668 167.636 79.5739 168.056 79.7881C168.479 80.0023 168.817 80.3053 169.067 80.6973C169.323 81.0892 169.462 81.554 169.484 82.0918H168.705C168.682 81.6953 168.577 81.3535 168.391 81.0664C168.204 80.7793 167.958 80.5583 167.652 80.4033C167.347 80.2484 167.007 80.1709 166.634 80.1709C166.215 80.1709 165.857 80.2529 165.561 80.417C165.264 80.5765 165.023 80.7975 164.836 81.0801C164.654 81.3581 164.519 81.6771 164.433 82.0371C164.346 82.3926 164.303 82.7663 164.303 83.1582V83.4453C164.303 83.8418 164.344 84.2201 164.426 84.5801C164.512 84.9355 164.647 85.2523 164.829 85.5303C165.016 85.8083 165.257 86.0293 165.554 86.1934C165.854 86.3529 166.217 86.4326 166.641 86.4326ZM173.743 79.6035V87H172.93V79.6035H173.743ZM176.437 79.6035V80.3008H170.332V79.6035H176.437ZM178.398 82.2832H180.812C181.395 82.2832 181.887 82.3857 182.288 82.5908C182.689 82.7913 182.992 83.0693 183.197 83.4248C183.407 83.7803 183.512 84.1813 183.512 84.6279C183.512 84.9652 183.452 85.2796 183.334 85.5713C183.22 85.8584 183.047 86.109 182.814 86.3232C182.587 86.5374 182.304 86.7038 181.967 86.8223C181.634 86.9408 181.249 87 180.812 87H177.879V79.6035H178.692V86.2959H180.812C181.263 86.2959 181.627 86.2184 181.905 86.0635C182.183 85.904 182.384 85.6989 182.507 85.4482C182.634 85.1976 182.698 84.931 182.698 84.6484C182.698 84.3704 182.634 84.1061 182.507 83.8555C182.384 83.6003 182.183 83.3929 181.905 83.2334C181.627 83.0693 181.263 82.9873 180.812 82.9873H178.398V82.2832ZM191.968 83.5889H189.37L189.356 82.9053H191.571C192.018 82.9053 192.389 82.8574 192.686 82.7617C192.986 82.6615 193.212 82.5133 193.362 82.3174C193.517 82.1214 193.595 81.8799 193.595 81.5928C193.595 81.374 193.549 81.1826 193.458 81.0186C193.371 80.8545 193.239 80.7201 193.062 80.6152C192.888 80.5104 192.67 80.4329 192.405 80.3828C192.146 80.3281 191.842 80.3008 191.496 80.3008H189.603V87H188.789V79.6035H191.496C191.947 79.6035 192.351 79.6445 192.706 79.7266C193.066 79.804 193.374 79.9225 193.629 80.082C193.884 80.2415 194.078 80.4466 194.21 80.6973C194.347 80.9434 194.415 81.235 194.415 81.5723C194.415 81.8001 194.372 82.0143 194.285 82.2148C194.199 82.4108 194.071 82.5885 193.902 82.748C193.738 82.903 193.535 83.0306 193.294 83.1309C193.052 83.2266 192.774 83.2858 192.46 83.3086L191.968 83.5889ZM191.968 87H189.117L189.432 86.3027H191.968C192.378 86.3027 192.727 86.2503 193.014 86.1455C193.301 86.0407 193.517 85.8857 193.663 85.6807C193.813 85.4756 193.889 85.2272 193.889 84.9355C193.889 84.6621 193.813 84.4251 193.663 84.2246C193.517 84.0241 193.301 83.8691 193.014 83.7598C192.727 83.6458 192.378 83.5889 191.968 83.5889H190.081L190.095 82.9053H192.521L192.87 83.165C193.244 83.1969 193.567 83.2972 193.841 83.4658C194.114 83.6344 194.326 83.8486 194.477 84.1084C194.627 84.3636 194.702 84.6439 194.702 84.9492C194.702 85.2865 194.638 85.585 194.511 85.8447C194.383 86.0999 194.199 86.3141 193.957 86.4873C193.72 86.6559 193.433 86.7835 193.096 86.8701C192.758 86.9567 192.382 87 191.968 87ZM201.032 85.6738V81.8594C201.032 81.5085 200.959 81.2054 200.813 80.9502C200.668 80.695 200.453 80.499 200.171 80.3623C199.888 80.2256 199.54 80.1572 199.125 80.1572C198.742 80.1572 198.4 80.2256 198.1 80.3623C197.803 80.4945 197.569 80.6745 197.396 80.9023C197.227 81.1257 197.143 81.374 197.143 81.6475L196.322 81.6406C196.322 81.3626 196.391 81.0938 196.527 80.834C196.664 80.5742 196.858 80.3418 197.108 80.1367C197.359 79.9316 197.658 79.7699 198.004 79.6514C198.355 79.5283 198.74 79.4668 199.159 79.4668C199.688 79.4668 200.153 79.5557 200.554 79.7334C200.959 79.9111 201.276 80.1777 201.504 80.5332C201.732 80.8887 201.846 81.3353 201.846 81.873V85.4482C201.846 85.7035 201.864 85.9678 201.9 86.2412C201.941 86.5146 201.998 86.7402 202.071 86.918V87H201.203C201.148 86.8359 201.105 86.6309 201.073 86.3848C201.046 86.1341 201.032 85.8971 201.032 85.6738ZM201.224 82.6934L201.237 83.3223H199.631C199.212 83.3223 198.836 83.361 198.503 83.4385C198.175 83.5114 197.897 83.6208 197.669 83.7666C197.441 83.9079 197.266 84.0788 197.143 84.2793C197.024 84.4798 196.965 84.7077 196.965 84.9629C196.965 85.2272 197.031 85.4688 197.163 85.6875C197.3 85.9062 197.491 86.0817 197.737 86.2139C197.988 86.3415 198.284 86.4053 198.626 86.4053C199.082 86.4053 199.483 86.321 199.829 86.1523C200.18 85.9837 200.469 85.7627 200.697 85.4893C200.925 85.2158 201.078 84.9173 201.155 84.5938L201.511 85.0654C201.451 85.2933 201.342 85.528 201.183 85.7695C201.028 86.0065 200.825 86.2298 200.574 86.4395C200.324 86.6445 200.027 86.8132 199.686 86.9453C199.348 87.0729 198.965 87.1367 198.537 87.1367C198.054 87.1367 197.632 87.0456 197.272 86.8633C196.917 86.681 196.639 86.4326 196.438 86.1182C196.243 85.7992 196.145 85.4391 196.145 85.0381C196.145 84.6735 196.222 84.3477 196.377 84.0605C196.532 83.7689 196.755 83.5228 197.047 83.3223C197.343 83.1172 197.699 82.9622 198.113 82.8574C198.533 82.748 199.002 82.6934 199.521 82.6934H201.224ZM204.095 79.6035H204.908V86.2959H208.203V79.6035H209.023V86.2959H212.284V79.6035H213.098V87H204.095V79.6035ZM218.013 87.1367C217.53 87.1367 217.085 87.0479 216.68 86.8701C216.279 86.6924 215.928 86.4417 215.627 86.1182C215.331 85.7946 215.101 85.4118 214.937 84.9697C214.777 84.5231 214.697 84.0355 214.697 83.5068V83.2129C214.697 82.6432 214.782 82.1283 214.95 81.668C215.119 81.2077 215.351 80.8135 215.647 80.4854C215.944 80.1572 216.281 79.9066 216.659 79.7334C217.042 79.5557 217.443 79.4668 217.862 79.4668C218.332 79.4668 218.749 79.5511 219.113 79.7197C219.478 79.8838 219.783 80.1185 220.029 80.4238C220.28 80.7246 220.469 81.0824 220.597 81.4971C220.724 81.9072 220.788 82.3607 220.788 82.8574V83.3564H215.189V82.6592H219.975V82.5635C219.965 82.1488 219.881 81.7614 219.722 81.4014C219.567 81.0368 219.334 80.7406 219.024 80.5127C218.715 80.2848 218.327 80.1709 217.862 80.1709C217.516 80.1709 217.197 80.2438 216.905 80.3896C216.618 80.5355 216.37 80.7451 216.16 81.0186C215.955 81.2874 215.796 81.6087 215.682 81.9824C215.572 82.3516 215.518 82.7617 215.518 83.2129V83.5068C215.518 83.917 215.577 84.2998 215.695 84.6553C215.818 85.0062 215.992 85.3161 216.215 85.585C216.443 85.8538 216.712 86.0635 217.021 86.2139C217.331 86.3643 217.673 86.4395 218.047 86.4395C218.484 86.4395 218.872 86.3597 219.209 86.2002C219.546 86.0361 219.849 85.7786 220.118 85.4277L220.631 85.8242C220.471 86.0612 220.271 86.2799 220.029 86.4805C219.792 86.681 219.507 86.8405 219.175 86.959C218.842 87.0775 218.455 87.1367 218.013 87.1367ZM227.009 79.6035V80.3145H223.263V87H222.449V79.6035H227.009ZM227.72 83.418V83.1924C227.72 82.6546 227.797 82.1579 227.952 81.7021C228.107 81.2464 228.328 80.8522 228.615 80.5195C228.907 80.1868 229.256 79.9294 229.661 79.7471C230.067 79.5602 230.518 79.4668 231.015 79.4668C231.516 79.4668 231.969 79.5602 232.375 79.7471C232.781 79.9294 233.129 80.1868 233.421 80.5195C233.713 80.8522 233.936 81.2464 234.091 81.7021C234.246 82.1579 234.323 82.6546 234.323 83.1924V83.418C234.323 83.9557 234.246 84.4525 234.091 84.9082C233.936 85.3594 233.713 85.7513 233.421 86.084C233.134 86.4167 232.787 86.6764 232.382 86.8633C231.976 87.0456 231.525 87.1367 231.028 87.1367C230.527 87.1367 230.074 87.0456 229.668 86.8633C229.262 86.6764 228.914 86.4167 228.622 86.084C228.33 85.7513 228.107 85.3594 227.952 84.9082C227.797 84.4525 227.72 83.9557 227.72 83.418ZM228.533 83.1924V83.418C228.533 83.8236 228.588 84.2087 228.697 84.5732C228.807 84.9333 228.966 85.2546 229.176 85.5371C229.385 85.8151 229.645 86.0339 229.955 86.1934C230.265 86.3529 230.623 86.4326 231.028 86.4326C231.429 86.4326 231.783 86.3529 232.088 86.1934C232.398 86.0339 232.658 85.8151 232.867 85.5371C233.077 85.2546 233.234 84.9333 233.339 84.5732C233.448 84.2087 233.503 83.8236 233.503 83.418V83.1924C233.503 82.7913 233.448 82.4108 233.339 82.0508C233.234 81.6908 233.075 81.3695 232.86 81.0869C232.651 80.8044 232.391 80.5811 232.081 80.417C231.771 80.2529 231.416 80.1709 231.015 80.1709C230.614 80.1709 230.258 80.2529 229.948 80.417C229.643 80.5811 229.383 80.8044 229.169 81.0869C228.959 81.3695 228.8 81.6908 228.69 82.0508C228.586 82.4108 228.533 82.7913 228.533 83.1924ZM26.9414 99.6035V107H26.1211V99.6035H26.9414ZM31.8086 99.6035L28.418 103.609H26.6543L26.5654 102.878H28.0693L30.7764 99.6035H31.8086ZM31.0703 107L27.9873 103.5L28.5068 102.871L32.1504 107H31.0703ZM32.7314 103.418V103.192C32.7314 102.655 32.8089 102.158 32.9639 101.702C33.1188 101.246 33.3398 100.852 33.627 100.52C33.9186 100.187 34.2673 99.9294 34.6729 99.7471C35.0785 99.5602 35.5296 99.4668 36.0264 99.4668C36.5277 99.4668 36.9811 99.5602 37.3867 99.7471C37.7923 99.9294 38.141 100.187 38.4326 100.52C38.7243 100.852 38.9476 101.246 39.1025 101.702C39.2575 102.158 39.335 102.655 39.335 103.192V103.418C39.335 103.956 39.2575 104.452 39.1025 104.908C38.9476 105.359 38.7243 105.751 38.4326 106.084C38.1455 106.417 37.7992 106.676 37.3936 106.863C36.988 107.046 36.5368 107.137 36.04 107.137C35.5387 107.137 35.0853 107.046 34.6797 106.863C34.2741 106.676 33.9255 106.417 33.6338 106.084C33.3421 105.751 33.1188 105.359 32.9639 104.908C32.8089 104.452 32.7314 103.956 32.7314 103.418ZM33.5449 103.192V103.418C33.5449 103.824 33.5996 104.209 33.709 104.573C33.8184 104.933 33.9779 105.255 34.1875 105.537C34.3971 105.815 34.6569 106.034 34.9668 106.193C35.2767 106.353 35.6344 106.433 36.04 106.433C36.4411 106.433 36.7943 106.353 37.0996 106.193C37.4095 106.034 37.6693 105.815 37.8789 105.537C38.0885 105.255 38.2458 104.933 38.3506 104.573C38.46 104.209 38.5146 103.824 38.5146 103.418V103.192C38.5146 102.791 38.46 102.411 38.3506 102.051C38.2458 101.691 38.0863 101.369 37.8721 101.087C37.6624 100.804 37.4027 100.581 37.0928 100.417C36.7829 100.253 36.4274 100.171 36.0264 100.171C35.6253 100.171 35.2699 100.253 34.96 100.417C34.6546 100.581 34.3949 100.804 34.1807 101.087C33.971 101.369 33.8115 101.691 33.7021 102.051C33.5973 102.411 33.5449 102.791 33.5449 103.192ZM43.4912 99.6035V107H42.6777V99.6035H43.4912ZM46.1846 99.6035V100.301H40.0801V99.6035H46.1846ZM51.9268 105.674V101.859C51.9268 101.508 51.8538 101.205 51.708 100.95C51.5622 100.695 51.348 100.499 51.0654 100.362C50.7829 100.226 50.4342 100.157 50.0195 100.157C49.6367 100.157 49.2949 100.226 48.9941 100.362C48.6979 100.494 48.4632 100.674 48.29 100.902C48.1214 101.126 48.0371 101.374 48.0371 101.647L47.2168 101.641C47.2168 101.363 47.2852 101.094 47.4219 100.834C47.5586 100.574 47.7523 100.342 48.0029 100.137C48.2536 99.9316 48.5521 99.7699 48.8984 99.6514C49.2493 99.5283 49.6344 99.4668 50.0537 99.4668C50.5824 99.4668 51.0472 99.5557 51.4482 99.7334C51.8538 99.9111 52.1706 100.178 52.3984 100.533C52.6263 100.889 52.7402 101.335 52.7402 101.873V105.448C52.7402 105.703 52.7585 105.968 52.7949 106.241C52.8359 106.515 52.8929 106.74 52.9658 106.918V107H52.0977C52.043 106.836 51.9997 106.631 51.9678 106.385C51.9404 106.134 51.9268 105.897 51.9268 105.674ZM52.1182 102.693L52.1318 103.322H50.5254C50.1061 103.322 49.7301 103.361 49.3975 103.438C49.0693 103.511 48.7913 103.621 48.5635 103.767C48.3356 103.908 48.1602 104.079 48.0371 104.279C47.9186 104.48 47.8594 104.708 47.8594 104.963C47.8594 105.227 47.9255 105.469 48.0576 105.688C48.1943 105.906 48.3857 106.082 48.6318 106.214C48.8825 106.341 49.1787 106.405 49.5205 106.405C49.9762 106.405 50.3773 106.321 50.7236 106.152C51.0745 105.984 51.3639 105.763 51.5918 105.489C51.8197 105.216 51.9723 104.917 52.0498 104.594L52.4053 105.065C52.346 105.293 52.2367 105.528 52.0771 105.77C51.9222 106.007 51.7194 106.23 51.4688 106.439C51.2181 106.645 50.9219 106.813 50.5801 106.945C50.2428 107.073 49.86 107.137 49.4316 107.137C48.9486 107.137 48.527 107.046 48.167 106.863C47.8115 106.681 47.5335 106.433 47.333 106.118C47.137 105.799 47.0391 105.439 47.0391 105.038C47.0391 104.674 47.1165 104.348 47.2715 104.061C47.4264 103.769 47.6497 103.523 47.9414 103.322C48.2376 103.117 48.5931 102.962 49.0078 102.857C49.4271 102.748 49.8965 102.693 50.416 102.693H52.1182ZM61.6201 103.589H59.0225L59.0088 102.905H61.2236C61.6702 102.905 62.0417 102.857 62.3379 102.762C62.6387 102.661 62.8643 102.513 63.0146 102.317C63.1696 102.121 63.2471 101.88 63.2471 101.593C63.2471 101.374 63.2015 101.183 63.1104 101.019C63.0238 100.854 62.8916 100.72 62.7139 100.615C62.5407 100.51 62.3219 100.433 62.0576 100.383C61.7979 100.328 61.4948 100.301 61.1484 100.301H59.2549V107H58.4414V99.6035H61.1484C61.5996 99.6035 62.0029 99.6445 62.3584 99.7266C62.7184 99.804 63.026 99.9225 63.2812 100.082C63.5365 100.242 63.7301 100.447 63.8623 100.697C63.999 100.943 64.0674 101.235 64.0674 101.572C64.0674 101.8 64.0241 102.014 63.9375 102.215C63.8509 102.411 63.7233 102.589 63.5547 102.748C63.3906 102.903 63.1878 103.031 62.9463 103.131C62.7048 103.227 62.4268 103.286 62.1123 103.309L61.6201 103.589ZM61.6201 107H58.7695L59.084 106.303H61.6201C62.0303 106.303 62.3789 106.25 62.666 106.146C62.9531 106.041 63.1696 105.886 63.3154 105.681C63.4658 105.476 63.541 105.227 63.541 104.936C63.541 104.662 63.4658 104.425 63.3154 104.225C63.1696 104.024 62.9531 103.869 62.666 103.76C62.3789 103.646 62.0303 103.589 61.6201 103.589H59.7334L59.7471 102.905H62.1738L62.5225 103.165C62.8962 103.197 63.2197 103.297 63.4932 103.466C63.7666 103.634 63.9785 103.849 64.1289 104.108C64.2793 104.364 64.3545 104.644 64.3545 104.949C64.3545 105.286 64.2907 105.585 64.1631 105.845C64.0355 106.1 63.8509 106.314 63.6094 106.487C63.3724 106.656 63.0853 106.784 62.748 106.87C62.4108 106.957 62.0348 107 61.6201 107ZM68.9141 106.433C69.2604 106.433 69.584 106.369 69.8848 106.241C70.1901 106.109 70.4408 105.915 70.6367 105.66C70.8372 105.4 70.9512 105.084 70.9785 104.71H71.7578C71.735 105.179 71.5915 105.599 71.3271 105.968C71.0674 106.332 70.7256 106.619 70.3018 106.829C69.8825 107.034 69.4199 107.137 68.9141 107.137C68.3991 107.137 67.9434 107.043 67.5469 106.856C67.1549 106.67 66.8268 106.41 66.5625 106.077C66.2982 105.74 66.0977 105.348 65.9609 104.901C65.8288 104.45 65.7627 103.965 65.7627 103.445V103.158C65.7627 102.639 65.8288 102.156 65.9609 101.709C66.0977 101.258 66.2982 100.866 66.5625 100.533C66.8268 100.196 67.1549 99.9339 67.5469 99.7471C67.9388 99.5602 68.3923 99.4668 68.9072 99.4668C69.4359 99.4668 69.9098 99.5739 70.3291 99.7881C70.7529 100.002 71.0902 100.305 71.3408 100.697C71.596 101.089 71.735 101.554 71.7578 102.092H70.9785C70.9557 101.695 70.8509 101.354 70.6641 101.066C70.4772 100.779 70.2311 100.558 69.9258 100.403C69.6204 100.248 69.2809 100.171 68.9072 100.171C68.488 100.171 68.1302 100.253 67.834 100.417C67.5378 100.576 67.2962 100.798 67.1094 101.08C66.9271 101.358 66.7926 101.677 66.7061 102.037C66.6195 102.393 66.5762 102.766 66.5762 103.158V103.445C66.5762 103.842 66.6172 104.22 66.6992 104.58C66.7858 104.936 66.9202 105.252 67.1025 105.53C67.2894 105.808 67.5309 106.029 67.8271 106.193C68.1279 106.353 68.4902 106.433 68.9141 106.433ZM76.2627 107.137C75.7796 107.137 75.3353 107.048 74.9297 106.87C74.5286 106.692 74.1777 106.442 73.877 106.118C73.5807 105.795 73.3506 105.412 73.1865 104.97C73.027 104.523 72.9473 104.035 72.9473 103.507V103.213C72.9473 102.643 73.0316 102.128 73.2002 101.668C73.3688 101.208 73.6012 100.813 73.8975 100.485C74.1937 100.157 74.5309 99.9066 74.9092 99.7334C75.292 99.5557 75.693 99.4668 76.1123 99.4668C76.5817 99.4668 76.9987 99.5511 77.3633 99.7197C77.7279 99.8838 78.0332 100.118 78.2793 100.424C78.5299 100.725 78.7191 101.082 78.8467 101.497C78.9743 101.907 79.0381 102.361 79.0381 102.857V103.356H73.4395V102.659H78.2246V102.563C78.2155 102.149 78.1312 101.761 77.9717 101.401C77.8167 101.037 77.5843 100.741 77.2744 100.513C76.9645 100.285 76.5771 100.171 76.1123 100.171C75.766 100.171 75.4469 100.244 75.1553 100.39C74.8682 100.535 74.6198 100.745 74.4102 101.019C74.2051 101.287 74.0456 101.609 73.9316 101.982C73.8223 102.352 73.7676 102.762 73.7676 103.213V103.507C73.7676 103.917 73.8268 104.3 73.9453 104.655C74.0684 105.006 74.2415 105.316 74.4648 105.585C74.6927 105.854 74.9616 106.063 75.2715 106.214C75.5814 106.364 75.9232 106.439 76.2969 106.439C76.7344 106.439 77.1217 106.36 77.459 106.2C77.7962 106.036 78.0993 105.779 78.3682 105.428L78.8809 105.824C78.7214 106.061 78.5208 106.28 78.2793 106.48C78.0423 106.681 77.7575 106.84 77.4248 106.959C77.0921 107.077 76.7048 107.137 76.2627 107.137ZM85.2588 99.6035V100.314H81.5127V107H80.6992V99.6035H85.2588ZM87.4873 99.6035H88.3008L88.1777 102.27C88.1458 102.98 88.0661 103.598 87.9385 104.122C87.8154 104.642 87.6628 105.086 87.4805 105.455C87.2982 105.82 87.0977 106.127 86.8789 106.378C86.6647 106.624 86.446 106.831 86.2227 107H85.7783L85.792 106.303L85.9971 106.296C86.1292 106.136 86.266 105.956 86.4072 105.756C86.5531 105.551 86.6921 105.3 86.8242 105.004C86.9564 104.708 87.0703 104.339 87.166 103.896C87.2617 103.454 87.3255 102.912 87.3574 102.27L87.4873 99.6035ZM87.7539 99.6035H91.8486V107H91.0352V100.369H87.7539V99.6035ZM85.4639 106.296H92.6211V109.174H91.8008V107H86.2432V109.174H85.4639V106.296ZM98.6982 105.674V101.859C98.6982 101.508 98.6253 101.205 98.4795 100.95C98.3337 100.695 98.1195 100.499 97.8369 100.362C97.5544 100.226 97.2057 100.157 96.791 100.157C96.4082 100.157 96.0664 100.226 95.7656 100.362C95.4694 100.494 95.2347 100.674 95.0615 100.902C94.8929 101.126 94.8086 101.374 94.8086 101.647L93.9883 101.641C93.9883 101.363 94.0566 101.094 94.1934 100.834C94.3301 100.574 94.5238 100.342 94.7744 100.137C95.0251 99.9316 95.3236 99.7699 95.6699 99.6514C96.0208 99.5283 96.4059 99.4668 96.8252 99.4668C97.3538 99.4668 97.8187 99.5557 98.2197 99.7334C98.6253 99.9111 98.9421 100.178 99.1699 100.533C99.3978 100.889 99.5117 101.335 99.5117 101.873V105.448C99.5117 105.703 99.5299 105.968 99.5664 106.241C99.6074 106.515 99.6644 106.74 99.7373 106.918V107H98.8691C98.8145 106.836 98.7712 106.631 98.7393 106.385C98.7119 106.134 98.6982 105.897 98.6982 105.674ZM98.8896 102.693L98.9033 103.322H97.2969C96.8776 103.322 96.5016 103.361 96.1689 103.438C95.8408 103.511 95.5628 103.621 95.335 103.767C95.1071 103.908 94.9316 104.079 94.8086 104.279C94.6901 104.48 94.6309 104.708 94.6309 104.963C94.6309 105.227 94.6969 105.469 94.8291 105.688C94.9658 105.906 95.1572 106.082 95.4033 106.214C95.654 106.341 95.9502 106.405 96.292 106.405C96.7477 106.405 97.1488 106.321 97.4951 106.152C97.846 105.984 98.1354 105.763 98.3633 105.489C98.5911 105.216 98.7438 104.917 98.8213 104.594L99.1768 105.065C99.1175 105.293 99.0081 105.528 98.8486 105.77C98.6937 106.007 98.4909 106.23 98.2402 106.439C97.9896 106.645 97.6934 106.813 97.3516 106.945C97.0143 107.073 96.6315 107.137 96.2031 107.137C95.7201 107.137 95.2985 107.046 94.9385 106.863C94.583 106.681 94.305 106.433 94.1045 106.118C93.9085 105.799 93.8105 105.439 93.8105 105.038C93.8105 104.674 93.888 104.348 94.043 104.061C94.1979 103.769 94.4212 103.523 94.7129 103.322C95.0091 103.117 95.3646 102.962 95.7793 102.857C96.1986 102.748 96.668 102.693 97.1875 102.693H98.8896ZM109.923 96.3838H110.627C110.627 96.7256 110.565 97.0104 110.442 97.2383C110.324 97.4661 110.155 97.6507 109.937 97.792C109.718 97.9333 109.46 98.0449 109.164 98.127C108.872 98.2044 108.553 98.2705 108.207 98.3252C107.783 98.389 107.394 98.528 107.038 98.7422C106.687 98.9564 106.386 99.2503 106.136 99.624C105.885 99.9932 105.696 100.451 105.568 100.998C105.445 101.54 105.395 102.176 105.418 102.905V103.541H104.714V102.905C104.714 102.103 104.791 101.392 104.946 100.772C105.106 100.148 105.331 99.6149 105.623 99.1729C105.919 98.7308 106.27 98.3799 106.676 98.1201C107.086 97.8558 107.539 97.6826 108.036 97.6006C108.501 97.5277 108.87 97.4388 109.144 97.334C109.422 97.2292 109.62 97.0993 109.738 96.9443C109.861 96.7894 109.923 96.6025 109.923 96.3838ZM108.104 100.089C108.588 100.089 109.023 100.171 109.41 100.335C109.798 100.499 110.128 100.731 110.401 101.032C110.679 101.328 110.891 101.679 111.037 102.085C111.188 102.486 111.263 102.926 111.263 103.404V103.623C111.263 104.133 111.185 104.603 111.03 105.031C110.88 105.46 110.661 105.831 110.374 106.146C110.091 106.46 109.747 106.704 109.342 106.877C108.941 107.05 108.492 107.137 107.995 107.137C107.494 107.137 107.043 107.05 106.642 106.877C106.241 106.704 105.896 106.46 105.609 106.146C105.322 105.831 105.101 105.46 104.946 105.031C104.791 104.603 104.714 104.133 104.714 103.623V103.404C104.714 103.272 104.728 103.142 104.755 103.015C104.787 102.887 104.826 102.762 104.871 102.639C104.917 102.511 104.962 102.386 105.008 102.263C105.167 101.848 105.393 101.479 105.685 101.155C105.976 100.827 106.325 100.567 106.73 100.376C107.141 100.185 107.599 100.089 108.104 100.089ZM107.981 100.786C107.448 100.786 106.999 100.909 106.635 101.155C106.275 101.397 106.001 101.718 105.814 102.119C105.628 102.516 105.534 102.944 105.534 103.404V103.623C105.534 104.001 105.587 104.359 105.691 104.696C105.796 105.034 105.951 105.334 106.156 105.599C106.366 105.858 106.623 106.063 106.929 106.214C107.234 106.364 107.59 106.439 107.995 106.439C108.396 106.439 108.749 106.364 109.055 106.214C109.36 106.063 109.615 105.858 109.82 105.599C110.025 105.334 110.18 105.034 110.285 104.696C110.39 104.359 110.442 104.001 110.442 103.623V103.404C110.442 103.058 110.39 102.728 110.285 102.413C110.18 102.099 110.023 101.821 109.813 101.579C109.608 101.333 109.351 101.139 109.041 100.998C108.736 100.857 108.382 100.786 107.981 100.786ZM115.029 106.262L117.333 99.6035H118.215L115.084 108.189C115.02 108.358 114.938 108.545 114.838 108.75C114.742 108.955 114.615 109.151 114.455 109.338C114.3 109.529 114.104 109.684 113.867 109.803C113.635 109.926 113.35 109.987 113.013 109.987C112.926 109.987 112.814 109.976 112.678 109.953C112.546 109.935 112.45 109.917 112.391 109.898L112.384 109.208C112.434 109.222 112.507 109.233 112.603 109.242C112.698 109.251 112.764 109.256 112.801 109.256C113.097 109.256 113.345 109.206 113.546 109.105C113.751 109.005 113.922 108.855 114.059 108.654C114.195 108.458 114.316 108.212 114.421 107.916L115.029 106.262ZM112.876 99.6035L115.234 105.954L115.453 106.809L114.858 107.144L111.987 99.6035H112.876ZM120.423 99.6035H121.236L121.113 102.27C121.081 102.98 121.002 103.598 120.874 104.122C120.751 104.642 120.598 105.086 120.416 105.455C120.234 105.82 120.033 106.127 119.814 106.378C119.6 106.624 119.382 106.831 119.158 107H118.714L118.728 106.303L118.933 106.296C119.065 106.136 119.201 105.956 119.343 105.756C119.489 105.551 119.628 105.3 119.76 105.004C119.892 104.708 120.006 104.339 120.102 103.896C120.197 103.454 120.261 102.912 120.293 102.27L120.423 99.6035ZM120.689 99.6035H124.784V107H123.971V100.369H120.689V99.6035ZM118.399 106.296H125.557V109.174H124.736V107H119.179V109.174H118.399V106.296ZM129.993 107.137C129.51 107.137 129.066 107.048 128.66 106.87C128.259 106.692 127.908 106.442 127.607 106.118C127.311 105.795 127.081 105.412 126.917 104.97C126.757 104.523 126.678 104.035 126.678 103.507V103.213C126.678 102.643 126.762 102.128 126.931 101.668C127.099 101.208 127.332 100.813 127.628 100.485C127.924 100.157 128.261 99.9066 128.64 99.7334C129.022 99.5557 129.424 99.4668 129.843 99.4668C130.312 99.4668 130.729 99.5511 131.094 99.7197C131.458 99.8838 131.764 100.118 132.01 100.424C132.26 100.725 132.45 101.082 132.577 101.497C132.705 101.907 132.769 102.361 132.769 102.857V103.356H127.17V102.659H131.955V102.563C131.946 102.149 131.862 101.761 131.702 101.401C131.547 101.037 131.315 100.741 131.005 100.513C130.695 100.285 130.308 100.171 129.843 100.171C129.496 100.171 129.177 100.244 128.886 100.39C128.599 100.535 128.35 100.745 128.141 101.019C127.936 101.287 127.776 101.609 127.662 101.982C127.553 102.352 127.498 102.762 127.498 103.213V103.507C127.498 103.917 127.557 104.3 127.676 104.655C127.799 105.006 127.972 105.316 128.195 105.585C128.423 105.854 128.692 106.063 129.002 106.214C129.312 106.364 129.654 106.439 130.027 106.439C130.465 106.439 130.852 106.36 131.189 106.2C131.527 106.036 131.83 105.779 132.099 105.428L132.611 105.824C132.452 106.061 132.251 106.28 132.01 106.48C131.773 106.681 131.488 106.84 131.155 106.959C130.823 107.077 130.435 107.137 129.993 107.137ZM136.911 99.6035V107H136.098V99.6035H136.911ZM139.604 99.6035V100.301H133.5V99.6035H139.604ZM149.175 96.3838H149.879C149.879 96.7256 149.817 97.0104 149.694 97.2383C149.576 97.4661 149.407 97.6507 149.188 97.792C148.97 97.9333 148.712 98.0449 148.416 98.127C148.124 98.2044 147.805 98.2705 147.459 98.3252C147.035 98.389 146.646 98.528 146.29 98.7422C145.939 98.9564 145.638 99.2503 145.388 99.624C145.137 99.9932 144.948 100.451 144.82 100.998C144.697 101.54 144.647 102.176 144.67 102.905V103.541H143.966V102.905C143.966 102.103 144.043 101.392 144.198 100.772C144.358 100.148 144.583 99.6149 144.875 99.1729C145.171 98.7308 145.522 98.3799 145.928 98.1201C146.338 97.8558 146.791 97.6826 147.288 97.6006C147.753 97.5277 148.122 97.4388 148.396 97.334C148.674 97.2292 148.872 97.0993 148.99 96.9443C149.113 96.7894 149.175 96.6025 149.175 96.3838ZM147.356 100.089C147.84 100.089 148.275 100.171 148.662 100.335C149.049 100.499 149.38 100.731 149.653 101.032C149.931 101.328 150.143 101.679 150.289 102.085C150.439 102.486 150.515 102.926 150.515 103.404V103.623C150.515 104.133 150.437 104.603 150.282 105.031C150.132 105.46 149.913 105.831 149.626 106.146C149.343 106.46 148.999 106.704 148.594 106.877C148.193 107.05 147.744 107.137 147.247 107.137C146.746 107.137 146.295 107.05 145.894 106.877C145.493 106.704 145.148 106.46 144.861 106.146C144.574 105.831 144.353 105.46 144.198 105.031C144.043 104.603 143.966 104.133 143.966 103.623V103.404C143.966 103.272 143.979 103.142 144.007 103.015C144.039 102.887 144.077 102.762 144.123 102.639C144.169 102.511 144.214 102.386 144.26 102.263C144.419 101.848 144.645 101.479 144.937 101.155C145.228 100.827 145.577 100.567 145.982 100.376C146.393 100.185 146.851 100.089 147.356 100.089ZM147.233 100.786C146.7 100.786 146.251 100.909 145.887 101.155C145.527 101.397 145.253 101.718 145.066 102.119C144.88 102.516 144.786 102.944 144.786 103.404V103.623C144.786 104.001 144.839 104.359 144.943 104.696C145.048 105.034 145.203 105.334 145.408 105.599C145.618 105.858 145.875 106.063 146.181 106.214C146.486 106.364 146.841 106.439 147.247 106.439C147.648 106.439 148.001 106.364 148.307 106.214C148.612 106.063 148.867 105.858 149.072 105.599C149.277 105.334 149.432 105.034 149.537 104.696C149.642 104.359 149.694 104.001 149.694 103.623V103.404C149.694 103.058 149.642 102.728 149.537 102.413C149.432 102.099 149.275 101.821 149.065 101.579C148.86 101.333 148.603 101.139 148.293 100.998C147.988 100.857 147.634 100.786 147.233 100.786ZM157.104 99.6035V100.314H153.358V99.6035H157.104ZM157.768 99.6035V107H156.954V99.6035H157.768ZM153.14 99.6035H153.953L153.789 103.069C153.762 103.63 153.716 104.127 153.652 104.56C153.593 104.993 153.511 105.364 153.406 105.674C153.301 105.979 153.167 106.23 153.003 106.426C152.843 106.622 152.65 106.768 152.422 106.863C152.194 106.954 151.927 107 151.622 107H151.314V106.262L151.567 106.255C151.763 106.246 151.934 106.205 152.08 106.132C152.23 106.059 152.358 105.943 152.463 105.783C152.572 105.624 152.661 105.414 152.729 105.154C152.802 104.895 152.859 104.578 152.9 104.204C152.946 103.826 152.98 103.382 153.003 102.871L153.14 99.6035ZM162.833 107.137C162.35 107.137 161.906 107.048 161.5 106.87C161.099 106.692 160.748 106.442 160.447 106.118C160.151 105.795 159.921 105.412 159.757 104.97C159.597 104.523 159.518 104.035 159.518 103.507V103.213C159.518 102.643 159.602 102.128 159.771 101.668C159.939 101.208 160.172 100.813 160.468 100.485C160.764 100.157 161.101 99.9066 161.479 99.7334C161.862 99.5557 162.263 99.4668 162.683 99.4668C163.152 99.4668 163.569 99.5511 163.934 99.7197C164.298 99.8838 164.604 100.118 164.85 100.424C165.1 100.725 165.289 101.082 165.417 101.497C165.545 101.907 165.608 102.361 165.608 102.857V103.356H160.01V102.659H164.795V102.563C164.786 102.149 164.701 101.761 164.542 101.401C164.387 101.037 164.155 100.741 163.845 100.513C163.535 100.285 163.147 100.171 162.683 100.171C162.336 100.171 162.017 100.244 161.726 100.39C161.438 100.535 161.19 100.745 160.98 101.019C160.775 101.287 160.616 101.609 160.502 101.982C160.393 102.352 160.338 102.762 160.338 103.213V103.507C160.338 103.917 160.397 104.3 160.516 104.655C160.639 105.006 160.812 105.316 161.035 105.585C161.263 105.854 161.532 106.063 161.842 106.214C162.152 106.364 162.493 106.439 162.867 106.439C163.305 106.439 163.692 106.36 164.029 106.2C164.367 106.036 164.67 105.779 164.938 105.428L165.451 105.824C165.292 106.061 165.091 106.28 164.85 106.48C164.613 106.681 164.328 106.84 163.995 106.959C163.662 107.077 163.275 107.137 162.833 107.137ZM169.949 106.433C170.296 106.433 170.619 106.369 170.92 106.241C171.225 106.109 171.476 105.915 171.672 105.66C171.872 105.4 171.986 105.084 172.014 104.71H172.793C172.77 105.179 172.627 105.599 172.362 105.968C172.103 106.332 171.761 106.619 171.337 106.829C170.918 107.034 170.455 107.137 169.949 107.137C169.434 107.137 168.979 107.043 168.582 106.856C168.19 106.67 167.862 106.41 167.598 106.077C167.333 105.74 167.133 105.348 166.996 104.901C166.864 104.45 166.798 103.965 166.798 103.445V103.158C166.798 102.639 166.864 102.156 166.996 101.709C167.133 101.258 167.333 100.866 167.598 100.533C167.862 100.196 168.19 99.9339 168.582 99.7471C168.974 99.5602 169.427 99.4668 169.942 99.4668C170.471 99.4668 170.945 99.5739 171.364 99.7881C171.788 100.002 172.125 100.305 172.376 100.697C172.631 101.089 172.77 101.554 172.793 102.092H172.014C171.991 101.695 171.886 101.354 171.699 101.066C171.512 100.779 171.266 100.558 170.961 100.403C170.656 100.248 170.316 100.171 169.942 100.171C169.523 100.171 169.165 100.253 168.869 100.417C168.573 100.576 168.331 100.798 168.145 101.08C167.962 101.358 167.828 101.677 167.741 102.037C167.655 102.393 167.611 102.766 167.611 103.158V103.445C167.611 103.842 167.652 104.22 167.734 104.58C167.821 104.936 167.955 105.252 168.138 105.53C168.325 105.808 168.566 106.029 168.862 106.193C169.163 106.353 169.525 106.433 169.949 106.433ZM177.052 99.6035V107H176.238V99.6035H177.052ZM179.745 99.6035V100.301H173.641V99.6035H179.745ZM182.712 103.609H183.614L181.563 107H180.661L182.712 103.609ZM183.58 99.6035H186.485V107H185.672V100.301H183.58C183.147 100.301 182.794 100.374 182.521 100.52C182.252 100.661 182.053 100.848 181.926 101.08C181.803 101.312 181.741 101.561 181.741 101.825C181.741 102.076 181.796 102.315 181.905 102.543C182.019 102.771 182.195 102.958 182.432 103.104C182.669 103.245 182.976 103.315 183.354 103.315H185.966V104.02H183.354C182.967 104.02 182.623 103.965 182.322 103.855C182.021 103.746 181.766 103.593 181.557 103.397C181.352 103.197 181.194 102.962 181.085 102.693C180.98 102.42 180.928 102.126 180.928 101.812C180.928 101.493 180.985 101.201 181.099 100.937C181.217 100.668 181.388 100.433 181.611 100.232C181.839 100.032 182.117 99.877 182.445 99.7676C182.778 99.6582 183.156 99.6035 183.58 99.6035ZM198.605 106.296L198.544 109.194H197.799V107H196.924V106.296H198.605ZM188.714 99.6035H189.527V106.296H192.822V99.6035H193.643V106.296H196.903V99.6035H197.717V107H188.714V99.6035ZM202.878 107.137C202.395 107.137 201.951 107.048 201.545 106.87C201.144 106.692 200.793 106.442 200.492 106.118C200.196 105.795 199.966 105.412 199.802 104.97C199.642 104.523 199.562 104.035 199.562 103.507V103.213C199.562 102.643 199.647 102.128 199.815 101.668C199.984 101.208 200.216 100.813 200.513 100.485C200.809 100.157 201.146 99.9066 201.524 99.7334C201.907 99.5557 202.308 99.4668 202.728 99.4668C203.197 99.4668 203.614 99.5511 203.979 99.7197C204.343 99.8838 204.648 100.118 204.895 100.424C205.145 100.725 205.334 101.082 205.462 101.497C205.59 101.907 205.653 102.361 205.653 102.857V103.356H200.055V102.659H204.84V102.563C204.831 102.149 204.746 101.761 204.587 101.401C204.432 101.037 204.2 100.741 203.89 100.513C203.58 100.285 203.192 100.171 202.728 100.171C202.381 100.171 202.062 100.244 201.771 100.39C201.483 100.535 201.235 100.745 201.025 101.019C200.82 101.287 200.661 101.609 200.547 101.982C200.438 102.352 200.383 102.762 200.383 103.213V103.507C200.383 103.917 200.442 104.3 200.561 104.655C200.684 105.006 200.857 105.316 201.08 105.585C201.308 105.854 201.577 106.063 201.887 106.214C202.197 106.364 202.538 106.439 202.912 106.439C203.35 106.439 203.737 106.36 204.074 106.2C204.411 106.036 204.715 105.779 204.983 105.428L205.496 105.824C205.337 106.061 205.136 106.28 204.895 106.48C204.658 106.681 204.373 106.84 204.04 106.959C203.707 107.077 203.32 107.137 202.878 107.137ZM208.128 105.674L212.127 99.6035H212.947V107H212.127V100.93L208.128 107H207.321V99.6035H208.128V105.674ZM211.375 96.9512H212.072C212.072 97.293 211.993 97.596 211.833 97.8604C211.678 98.1247 211.452 98.332 211.156 98.4824C210.86 98.6328 210.509 98.708 210.104 98.708C209.493 98.708 209.01 98.5439 208.654 98.2158C208.303 97.8877 208.128 97.4661 208.128 96.9512H208.818C208.818 97.2656 208.914 97.5391 209.105 97.7715C209.301 97.9993 209.634 98.1133 210.104 98.1133C210.559 98.1133 210.885 97.9971 211.081 97.7646C211.277 97.5322 211.375 97.2611 211.375 96.9512ZM215.928 105.708V106.665C215.928 107.084 215.841 107.488 215.668 107.875C215.495 108.267 215.26 108.597 214.964 108.866L214.485 108.511C214.627 108.319 214.745 108.128 214.841 107.937C214.937 107.75 215.007 107.554 215.053 107.349C215.103 107.144 215.128 106.923 215.128 106.686V105.708H215.928ZM30.1611 125.879L33.1006 119.604H33.9141L30.4482 127H29.874L26.415 119.604H27.2285L30.1611 125.879ZM26.9756 119.604V127H26.1621V119.604H26.9756ZM33.292 127V119.604H34.1123V127H33.292ZM37.9268 123.609H38.8291L36.7783 127H35.876L37.9268 123.609ZM38.7949 119.604H41.7002V127H40.8867V120.301H38.7949C38.362 120.301 38.0088 120.374 37.7354 120.52C37.4665 120.661 37.2682 120.848 37.1406 121.08C37.0176 121.312 36.9561 121.561 36.9561 121.825C36.9561 122.076 37.0107 122.315 37.1201 122.543C37.234 122.771 37.4095 122.958 37.6465 123.104C37.8835 123.245 38.1911 123.315 38.5693 123.315H41.1807V124.02H38.5693C38.182 124.02 37.8379 123.965 37.5371 123.855C37.2363 123.746 36.9811 123.593 36.7715 123.397C36.5664 123.197 36.4092 122.962 36.2998 122.693C36.195 122.42 36.1426 122.126 36.1426 121.812C36.1426 121.493 36.1995 121.201 36.3135 120.937C36.432 120.668 36.6029 120.433 36.8262 120.232C37.054 120.032 37.332 119.877 37.6602 119.768C37.9928 119.658 38.3711 119.604 38.7949 119.604ZM48.5225 119.604V120.314H44.7764V127H43.9629V119.604H48.5225ZM50.6895 119.604V127H49.8691V119.604H50.6895ZM55.5566 119.604L52.166 123.609H50.4023L50.3135 122.878H51.8174L54.5244 119.604H55.5566ZM54.8184 127L51.7354 123.5L52.2549 122.871L55.8984 127H54.8184ZM56.4795 123.418V123.192C56.4795 122.655 56.557 122.158 56.7119 121.702C56.8669 121.246 57.0879 120.852 57.375 120.52C57.6667 120.187 58.0153 119.929 58.4209 119.747C58.8265 119.56 59.2777 119.467 59.7744 119.467C60.2757 119.467 60.7292 119.56 61.1348 119.747C61.5404 119.929 61.889 120.187 62.1807 120.52C62.4723 120.852 62.6956 121.246 62.8506 121.702C63.0055 122.158 63.083 122.655 63.083 123.192V123.418C63.083 123.956 63.0055 124.452 62.8506 124.908C62.6956 125.359 62.4723 125.751 62.1807 126.084C61.8936 126.417 61.5472 126.676 61.1416 126.863C60.736 127.046 60.2848 127.137 59.7881 127.137C59.2868 127.137 58.8333 127.046 58.4277 126.863C58.0221 126.676 57.6735 126.417 57.3818 126.084C57.0902 125.751 56.8669 125.359 56.7119 124.908C56.557 124.452 56.4795 123.956 56.4795 123.418ZM57.293 123.192V123.418C57.293 123.824 57.3477 124.209 57.457 124.573C57.5664 124.933 57.7259 125.255 57.9355 125.537C58.1452 125.815 58.4049 126.034 58.7148 126.193C59.0247 126.353 59.3825 126.433 59.7881 126.433C60.1891 126.433 60.5423 126.353 60.8477 126.193C61.1576 126.034 61.4173 125.815 61.627 125.537C61.8366 125.255 61.9938 124.933 62.0986 124.573C62.208 124.209 62.2627 123.824 62.2627 123.418V123.192C62.2627 122.791 62.208 122.411 62.0986 122.051C61.9938 121.691 61.8343 121.369 61.6201 121.087C61.4105 120.804 61.1507 120.581 60.8408 120.417C60.5309 120.253 60.1755 120.171 59.7744 120.171C59.3734 120.171 59.0179 120.253 58.708 120.417C58.4027 120.581 58.1429 120.804 57.9287 121.087C57.7191 121.369 57.5596 121.691 57.4502 122.051C57.3454 122.411 57.293 122.791 57.293 123.192ZM65.6396 125.674L69.6387 119.604H70.459V127H69.6387V120.93L65.6396 127H64.833V119.604H65.6396V125.674ZM68.8867 116.951H69.584C69.584 117.293 69.5042 117.596 69.3447 117.86C69.1898 118.125 68.9642 118.332 68.668 118.482C68.3717 118.633 68.0208 118.708 67.6152 118.708C67.0046 118.708 66.5215 118.544 66.166 118.216C65.8151 117.888 65.6396 117.466 65.6396 116.951H66.3301C66.3301 117.266 66.4258 117.539 66.6172 117.771C66.8132 117.999 67.1458 118.113 67.6152 118.113C68.071 118.113 68.3968 117.997 68.5928 117.765C68.7887 117.532 68.8867 117.261 68.8867 116.951ZM76.9326 125.674L80.9316 119.604H81.752V127H80.9316V120.93L76.9326 127H76.126V119.604H76.9326V125.674ZM92.375 119.604V120.314H88.0479V119.604H92.375ZM88.2324 119.604V127H87.4189V119.604H88.2324ZM93.0449 119.604V127H92.2246V119.604H93.0449ZM94.7881 123.418V123.192C94.7881 122.655 94.8656 122.158 95.0205 121.702C95.1755 121.246 95.3965 120.852 95.6836 120.52C95.9753 120.187 96.3239 119.929 96.7295 119.747C97.1351 119.56 97.5863 119.467 98.083 119.467C98.5843 119.467 99.0378 119.56 99.4434 119.747C99.849 119.929 100.198 120.187 100.489 120.52C100.781 120.852 101.004 121.246 101.159 121.702C101.314 122.158 101.392 122.655 101.392 123.192V123.418C101.392 123.956 101.314 124.452 101.159 124.908C101.004 125.359 100.781 125.751 100.489 126.084C100.202 126.417 99.8558 126.676 99.4502 126.863C99.0446 127.046 98.5934 127.137 98.0967 127.137C97.5954 127.137 97.1419 127.046 96.7363 126.863C96.3307 126.676 95.9821 126.417 95.6904 126.084C95.3988 125.751 95.1755 125.359 95.0205 124.908C94.8656 124.452 94.7881 123.956 94.7881 123.418ZM95.6016 123.192V123.418C95.6016 123.824 95.6562 124.209 95.7656 124.573C95.875 124.933 96.0345 125.255 96.2441 125.537C96.4538 125.815 96.7135 126.034 97.0234 126.193C97.3333 126.353 97.6911 126.433 98.0967 126.433C98.4977 126.433 98.8509 126.353 99.1562 126.193C99.4661 126.034 99.7259 125.815 99.9355 125.537C100.145 125.255 100.302 124.933 100.407 124.573C100.517 124.209 100.571 123.824 100.571 123.418V123.192C100.571 122.791 100.517 122.411 100.407 122.051C100.302 121.691 100.143 121.369 99.9287 121.087C99.7191 120.804 99.4593 120.581 99.1494 120.417C98.8395 120.253 98.484 120.171 98.083 120.171C97.682 120.171 97.3265 120.253 97.0166 120.417C96.7113 120.581 96.4515 120.804 96.2373 121.087C96.0277 121.369 95.8682 121.691 95.7588 122.051C95.654 122.411 95.6016 122.791 95.6016 123.192ZM105.814 126.433C106.161 126.433 106.484 126.369 106.785 126.241C107.09 126.109 107.341 125.915 107.537 125.66C107.738 125.4 107.852 125.084 107.879 124.71H108.658C108.635 125.179 108.492 125.599 108.228 125.968C107.968 126.332 107.626 126.619 107.202 126.829C106.783 127.034 106.32 127.137 105.814 127.137C105.299 127.137 104.844 127.043 104.447 126.856C104.055 126.67 103.727 126.41 103.463 126.077C103.199 125.74 102.998 125.348 102.861 124.901C102.729 124.45 102.663 123.965 102.663 123.445V123.158C102.663 122.639 102.729 122.156 102.861 121.709C102.998 121.258 103.199 120.866 103.463 120.533C103.727 120.196 104.055 119.934 104.447 119.747C104.839 119.56 105.293 119.467 105.808 119.467C106.336 119.467 106.81 119.574 107.229 119.788C107.653 120.002 107.991 120.305 108.241 120.697C108.496 121.089 108.635 121.554 108.658 122.092H107.879C107.856 121.695 107.751 121.354 107.564 121.066C107.378 120.779 107.132 120.558 106.826 120.403C106.521 120.248 106.181 120.171 105.808 120.171C105.388 120.171 105.031 120.253 104.734 120.417C104.438 120.576 104.197 120.798 104.01 121.08C103.827 121.358 103.693 121.677 103.606 122.037C103.52 122.393 103.477 122.766 103.477 123.158V123.445C103.477 123.842 103.518 124.22 103.6 124.58C103.686 124.936 103.821 125.252 104.003 125.53C104.19 125.808 104.431 126.029 104.728 126.193C105.028 126.353 105.391 126.433 105.814 126.433ZM115.323 119.604V120.314H111.577V119.604H115.323ZM115.986 119.604V127H115.173V119.604H115.986ZM111.358 119.604H112.172L112.008 123.069C111.98 123.63 111.935 124.127 111.871 124.56C111.812 124.993 111.73 125.364 111.625 125.674C111.52 125.979 111.386 126.23 111.222 126.426C111.062 126.622 110.868 126.768 110.641 126.863C110.413 126.954 110.146 127 109.841 127H109.533V126.262L109.786 126.255C109.982 126.246 110.153 126.205 110.299 126.132C110.449 126.059 110.577 125.943 110.682 125.783C110.791 125.624 110.88 125.414 110.948 125.154C111.021 124.895 111.078 124.578 111.119 124.204C111.165 123.826 111.199 123.382 111.222 122.871L111.358 119.604ZM120.389 126.262L122.692 119.604H123.574L120.443 128.189C120.38 128.358 120.298 128.545 120.197 128.75C120.102 128.955 119.974 129.151 119.814 129.338C119.66 129.529 119.464 129.684 119.227 129.803C118.994 129.926 118.709 129.987 118.372 129.987C118.285 129.987 118.174 129.976 118.037 129.953C117.905 129.935 117.809 129.917 117.75 129.898L117.743 129.208C117.793 129.222 117.866 129.233 117.962 129.242C118.058 129.251 118.124 129.256 118.16 129.256C118.456 129.256 118.705 129.206 118.905 129.105C119.11 129.005 119.281 128.855 119.418 128.654C119.555 128.458 119.675 128.212 119.78 127.916L120.389 126.262ZM118.235 119.604L120.594 125.954L120.812 126.809L120.218 127.144L117.347 119.604H118.235ZM124.907 119.604H125.721V126.296H129.016V119.604H129.836V126.296H133.097V119.604H133.91V127H124.907V119.604ZM141.013 122.912V123.609H136.624V122.912H141.013ZM136.836 119.604V127H136.022V119.604H136.836ZM141.642 119.604V127H140.821V119.604H141.642ZM143.392 123.418V123.192C143.392 122.655 143.469 122.158 143.624 121.702C143.779 121.246 144 120.852 144.287 120.52C144.579 120.187 144.927 119.929 145.333 119.747C145.739 119.56 146.19 119.467 146.687 119.467C147.188 119.467 147.641 119.56 148.047 119.747C148.452 119.929 148.801 120.187 149.093 120.52C149.384 120.852 149.608 121.246 149.763 121.702C149.918 122.158 149.995 122.655 149.995 123.192V123.418C149.995 123.956 149.918 124.452 149.763 124.908C149.608 125.359 149.384 125.751 149.093 126.084C148.806 126.417 148.459 126.676 148.054 126.863C147.648 127.046 147.197 127.137 146.7 127.137C146.199 127.137 145.745 127.046 145.34 126.863C144.934 126.676 144.586 126.417 144.294 126.084C144.002 125.751 143.779 125.359 143.624 124.908C143.469 124.452 143.392 123.956 143.392 123.418ZM144.205 123.192V123.418C144.205 123.824 144.26 124.209 144.369 124.573C144.479 124.933 144.638 125.255 144.848 125.537C145.057 125.815 145.317 126.034 145.627 126.193C145.937 126.353 146.295 126.433 146.7 126.433C147.101 126.433 147.454 126.353 147.76 126.193C148.07 126.034 148.329 125.815 148.539 125.537C148.749 125.255 148.906 124.933 149.011 124.573C149.12 124.209 149.175 123.824 149.175 123.418V123.192C149.175 122.791 149.12 122.411 149.011 122.051C148.906 121.691 148.746 121.369 148.532 121.087C148.323 120.804 148.063 120.581 147.753 120.417C147.443 120.253 147.088 120.171 146.687 120.171C146.285 120.171 145.93 120.253 145.62 120.417C145.315 120.581 145.055 120.804 144.841 121.087C144.631 121.369 144.472 121.691 144.362 122.051C144.257 122.411 144.205 122.791 144.205 123.192ZM152.552 125.674L156.551 119.604H157.371V127H156.551V120.93L152.552 127H151.745V119.604H152.552V125.674ZM155.799 116.951H156.496C156.496 117.293 156.416 117.596 156.257 117.86C156.102 118.125 155.876 118.332 155.58 118.482C155.284 118.633 154.933 118.708 154.527 118.708C153.917 118.708 153.434 118.544 153.078 118.216C152.727 117.888 152.552 117.466 152.552 116.951H153.242C153.242 117.266 153.338 117.539 153.529 117.771C153.725 117.999 154.058 118.113 154.527 118.113C154.983 118.113 155.309 117.997 155.505 117.765C155.701 117.532 155.799 117.261 155.799 116.951Z" fill="white"/>
<rect x="244" width="46" height="152" fill="#A07B50"/>
<path d="M263 85L271 76L263 67" stroke="white" stroke-width="0.5"/>
<path d="M28.7705 25.2031V35.8818H32.3213V25.2031H34.9668V35.8818H38.4824V25.2031H41.1191V38H26.125V25.2031H28.7705ZM47.6143 38.1758C46.2197 38.1758 45.083 37.748 44.2041 36.8926C43.3311 36.0371 42.8945 34.8975 42.8945 33.4736V33.2275C42.8945 32.2725 43.0791 31.4199 43.4482 30.6699C43.8174 29.9141 44.3389 29.334 45.0127 28.9297C45.6924 28.5195 46.4658 28.3145 47.333 28.3145C48.6338 28.3145 49.6562 28.7246 50.4004 29.5449C51.1504 30.3652 51.5254 31.5283 51.5254 33.0342V34.0713H45.4697C45.5518 34.6924 45.7979 35.1904 46.208 35.5654C46.624 35.9404 47.1484 36.1279 47.7812 36.1279C48.7598 36.1279 49.5244 35.7734 50.0752 35.0645L51.3232 36.4619C50.9424 37.001 50.4268 37.4229 49.7764 37.7275C49.126 38.0264 48.4053 38.1758 47.6143 38.1758ZM47.3242 30.3711C46.8203 30.3711 46.4102 30.541 46.0938 30.8809C45.7832 31.2207 45.584 31.707 45.4961 32.3398H49.0293V32.1377C49.0176 31.5752 48.8652 31.1416 48.5723 30.8369C48.2793 30.5264 47.8633 30.3711 47.3242 30.3711ZM61.5361 33.333C61.5361 34.7979 61.2021 35.9727 60.5342 36.8574C59.8721 37.7363 58.9756 38.1758 57.8447 38.1758C56.8838 38.1758 56.1074 37.8418 55.5156 37.1738V41.6562H52.9756V28.4902H55.3311L55.4189 29.4219C56.0342 28.6836 56.8369 28.3145 57.8271 28.3145C58.999 28.3145 59.9102 28.748 60.5605 29.6152C61.2109 30.4824 61.5361 31.6777 61.5361 33.2012V33.333ZM58.9961 33.1484C58.9961 32.2637 58.8379 31.5811 58.5215 31.1006C58.2109 30.6201 57.7568 30.3799 57.1592 30.3799C56.3623 30.3799 55.8145 30.6846 55.5156 31.2939V35.1875C55.8262 35.8145 56.3799 36.1279 57.1768 36.1279C58.3896 36.1279 58.9961 35.1348 58.9961 33.1484ZM67.0732 36.1279C67.542 36.1279 67.9229 35.999 68.2158 35.7412C68.5088 35.4834 68.6611 35.1406 68.6729 34.7129H71.0547C71.0488 35.3574 70.873 35.9492 70.5273 36.4883C70.1816 37.0215 69.707 37.4375 69.1035 37.7363C68.5059 38.0293 67.8438 38.1758 67.1172 38.1758C65.7578 38.1758 64.6855 37.7451 63.9004 36.8838C63.1152 36.0166 62.7227 34.8213 62.7227 33.2979V33.1309C62.7227 31.666 63.1123 30.4971 63.8916 29.624C64.6709 28.751 65.7402 28.3145 67.0996 28.3145C68.2891 28.3145 69.2412 28.6543 69.9561 29.334C70.6768 30.0078 71.043 30.9072 71.0547 32.0322H68.6729C68.6611 31.54 68.5088 31.1416 68.2158 30.8369C67.9229 30.5264 67.5361 30.3711 67.0557 30.3711C66.4639 30.3711 66.0156 30.5879 65.7109 31.0215C65.4121 31.4492 65.2627 32.1465 65.2627 33.1133V33.377C65.2627 34.3555 65.4121 35.0586 65.7109 35.4863C66.0098 35.9141 66.4639 36.1279 67.0732 36.1279ZM80.3975 30.5293H77.3477V38H74.7988V30.5293H71.8018V28.4902H80.3975V30.5293ZM84.3965 31.2764H86.2158C87.0361 31.2764 87.7568 31.4141 88.3779 31.6895C88.999 31.9648 89.4736 32.3604 89.8018 32.876C90.1357 33.3857 90.3027 33.9805 90.3027 34.6602C90.3027 35.6621 89.9307 36.4707 89.1865 37.0859C88.4482 37.6953 87.4404 38 86.1631 38H81.8477V28.4902H84.3965V31.2764ZM84.3965 33.3154V35.9697H86.1982C86.7021 35.9697 87.0889 35.8525 87.3584 35.6182C87.6279 35.3838 87.7627 35.0645 87.7627 34.6602C87.7627 34.25 87.6309 33.9248 87.3672 33.6846C87.1035 33.4385 86.7139 33.3154 86.1982 33.3154H84.3965Z" fill="#A07B50"/>
</svg>
