<svg width="290" height="171" viewBox="0 0 290 171" fill="none" xmlns="http://www.w3.org/2000/svg">
<path d="M0.25 170.75V0.25H289.75V170.75H0.25Z" fill="black" fill-opacity="0.3" stroke="#A07B50" stroke-width="0.5"/>
<path d="M33.6338 68H32.7861V63.2285H27.0986V68H26.2578V58.0469H27.0986V62.5176H32.7861V58.0469H33.6338V68ZM38.3232 66.8242L40.4834 60.6035H41.3652L38.207 69.2578L38.043 69.6406C37.6374 70.5384 37.0107 70.9873 36.1631 70.9873C35.9671 70.9873 35.7575 70.9554 35.5342 70.8916L35.5273 70.2148L35.9512 70.2559C36.3522 70.2559 36.6758 70.1556 36.9219 69.9551C37.1725 69.7591 37.3844 69.4196 37.5576 68.9365L37.9199 67.9385L35.1309 60.6035H36.0264L38.3232 66.8242ZM48.29 64.582H47.3057V68H46.4854V64.582H45.5078L42.7734 68H41.7344L44.7969 64.2061L42.0762 60.6035H43.0674L45.4941 63.8506H46.4854V60.6035H47.3057V63.8506H48.3037L50.7305 60.6035H51.7354L49.001 64.2061L52.0703 68H51.0244L48.29 64.582ZM59.0635 68H58.2432V64.6094H54.2578V68H53.4375V60.6035H54.2578V63.9189H58.2432V60.6035H59.0635V68ZM60.8066 64.1924C60.8066 63.4814 60.9434 62.8411 61.2168 62.2715C61.4948 61.7018 61.8844 61.2598 62.3857 60.9453C62.8916 60.6263 63.4635 60.4668 64.1016 60.4668C65.0859 60.4668 65.8835 60.8132 66.4941 61.5059C67.1048 62.194 67.4102 63.1077 67.4102 64.2471V64.418C67.4102 65.1335 67.2712 65.7783 66.9932 66.3525C66.7197 66.9222 66.3324 67.362 65.8311 67.6719C65.3298 67.9818 64.7578 68.1367 64.1152 68.1367C63.1354 68.1367 62.3379 67.7926 61.7227 67.1045C61.112 66.4118 60.8066 65.4958 60.8066 64.3564V64.1924ZM61.627 64.418C61.627 65.3021 61.8548 66.029 62.3105 66.5986C62.7708 67.1637 63.3724 67.4463 64.1152 67.4463C64.8535 67.4463 65.4505 67.1637 65.9062 66.5986C66.3665 66.029 66.5967 65.2793 66.5967 64.3496V64.1924C66.5967 63.6273 66.4919 63.11 66.2822 62.6406C66.0726 62.1712 65.7786 61.8089 65.4004 61.5537C65.0221 61.2939 64.5892 61.1641 64.1016 61.1641C63.3724 61.1641 62.7777 61.4512 62.3174 62.0254C61.8571 62.5951 61.627 63.3424 61.627 64.2676V64.418ZM78.1973 60.6035V68H77.377V61.3076H74.3486L74.2188 64.0762C74.1641 65.1016 74.0615 65.8854 73.9111 66.4277C73.7607 66.9655 73.5374 67.362 73.2412 67.6172C72.945 67.8724 72.5508 68 72.0586 68H71.7441V67.2754L71.9971 67.2617C72.4665 67.2526 72.8037 67.0247 73.0088 66.5781C73.2139 66.1315 73.3483 65.334 73.4121 64.1855L73.5625 60.6035H78.1973ZM85.2588 60.6035H86.0791V68H85.2588V61.9229L81.2666 68H80.4531V60.6035H81.2666V66.6875L85.2588 60.6035ZM94.4121 67.4463C94.9818 67.4463 95.458 67.2868 95.8408 66.9678C96.2282 66.6442 96.4378 66.2272 96.4697 65.7168H97.2559C97.2331 66.168 97.0918 66.5804 96.832 66.9541C96.5723 67.3232 96.2259 67.6126 95.793 67.8223C95.3646 68.0319 94.9043 68.1367 94.4121 68.1367C93.4414 68.1367 92.6712 67.7995 92.1016 67.125C91.5365 66.4505 91.2539 65.5436 91.2539 64.4043V64.1582C91.2539 63.429 91.3815 62.7842 91.6367 62.2236C91.8919 61.6631 92.2565 61.2301 92.7305 60.9248C93.209 60.6195 93.7673 60.4668 94.4053 60.4668C95.2165 60.4668 95.8841 60.7083 96.4082 61.1914C96.9368 61.6745 97.2194 62.3102 97.2559 63.0986H96.4697C96.4333 62.5199 96.2236 62.0527 95.8408 61.6973C95.4626 61.3418 94.984 61.1641 94.4053 61.1641C93.667 61.1641 93.0928 61.4307 92.6826 61.9639C92.277 62.4971 92.0742 63.2445 92.0742 64.2061V64.4453C92.0742 65.3887 92.277 66.1247 92.6826 66.6533C93.0928 67.182 93.6693 67.4463 94.4121 67.4463ZM104.208 61.3008H101.515V68H100.694V61.3008H98.1035V60.6035H104.208V61.3008ZM111.502 64.377C111.502 65.5299 111.247 66.446 110.736 67.125C110.226 67.7995 109.542 68.1367 108.686 68.1367C107.674 68.1367 106.899 67.7812 106.361 67.0703V70.8438H105.548V60.6035H106.307L106.348 61.6494C106.881 60.861 107.653 60.4668 108.665 60.4668C109.549 60.4668 110.242 60.8018 110.743 61.4717C111.249 62.1416 111.502 63.0713 111.502 64.2607V64.377ZM110.682 64.2334C110.682 63.29 110.488 62.5449 110.101 61.998C109.713 61.4512 109.173 61.1777 108.48 61.1777C107.979 61.1777 107.549 61.2985 107.188 61.54C106.828 61.7816 106.553 62.1325 106.361 62.5928V66.1406C106.557 66.5645 106.838 66.888 107.202 67.1113C107.567 67.3346 107.997 67.4463 108.494 67.4463C109.182 67.4463 109.718 67.1729 110.101 66.626C110.488 66.0745 110.682 65.277 110.682 64.2334ZM118.181 60.6035H119.001V68H118.181V61.9229L114.188 68H113.375V60.6035H114.188V66.6875L118.181 60.6035ZM126.459 68H125.639V64.8896C124.964 65.1357 124.319 65.2588 123.704 65.2588C122.724 65.2588 122.013 65.0446 121.571 64.6162C121.129 64.1833 120.899 63.5111 120.881 62.5996V60.6035H121.694V62.5586C121.703 63.265 121.858 63.7754 122.159 64.0898C122.465 64.3997 122.979 64.5547 123.704 64.5547C124.365 64.5365 125.01 64.418 125.639 64.1992V60.6035H126.459V68ZM129.549 63.29H131.682C132.229 63.29 132.707 63.3903 133.117 63.5908C133.532 63.7868 133.844 64.0602 134.054 64.4111C134.268 64.762 134.375 65.1699 134.375 65.6348C134.375 66.3503 134.129 66.9245 133.637 67.3574C133.149 67.7858 132.488 68 131.654 68H128.735V60.6035H129.549V63.29ZM129.549 63.9873V67.3096H131.668C132.256 67.3096 132.716 67.1615 133.049 66.8652C133.386 66.569 133.555 66.1634 133.555 65.6484C133.555 65.1562 133.391 64.7598 133.062 64.459C132.739 64.1536 132.295 63.9964 131.729 63.9873H129.549ZM141.553 64.6094H140.418V68H139.591V60.6035H140.418V63.8848H141.539L144.253 60.6035H145.285L142.25 64.1924L145.62 68H144.54L141.553 64.6094ZM146.201 64.1924C146.201 63.4814 146.338 62.8411 146.611 62.2715C146.889 61.7018 147.279 61.2598 147.78 60.9453C148.286 60.6263 148.858 60.4668 149.496 60.4668C150.48 60.4668 151.278 60.8132 151.889 61.5059C152.499 62.194 152.805 63.1077 152.805 64.2471V64.418C152.805 65.1335 152.666 65.7783 152.388 66.3525C152.114 66.9222 151.727 67.362 151.226 67.6719C150.724 67.9818 150.152 68.1367 149.51 68.1367C148.53 68.1367 147.732 67.7926 147.117 67.1045C146.507 66.4118 146.201 65.4958 146.201 64.3564V64.1924ZM147.021 64.418C147.021 65.3021 147.249 66.029 147.705 66.5986C148.165 67.1637 148.767 67.4463 149.51 67.4463C150.248 67.4463 150.845 67.1637 151.301 66.5986C151.761 66.029 151.991 65.2793 151.991 64.3496V64.1924C151.991 63.6273 151.886 63.11 151.677 62.6406C151.467 62.1712 151.173 61.8089 150.795 61.5537C150.417 61.2939 149.984 61.1641 149.496 61.1641C148.767 61.1641 148.172 61.4512 147.712 62.0254C147.252 62.5951 147.021 63.3424 147.021 64.2676V64.418ZM159.107 61.3076H155.368V68H154.548V60.6035H159.107V61.3076ZM165.718 61.3008H163.024V68H162.204V61.3008H159.613V60.6035H165.718V61.3008ZM171.925 60.6035H172.745V68H171.925V61.9229L167.933 68H167.119V60.6035H167.933V66.6875L171.925 60.6035ZM176.443 65.2383C176.452 64.7005 176.525 64.2676 176.662 63.9395C176.799 63.6113 177.093 63.2262 177.544 62.7842C177.995 62.3376 178.285 62.0231 178.412 61.8408C178.544 61.654 178.645 61.4512 178.713 61.2324C178.786 61.0091 178.822 60.7562 178.822 60.4736C178.822 59.904 178.67 59.4574 178.364 59.1338C178.063 58.8057 177.642 58.6416 177.1 58.6416C176.553 58.6416 176.111 58.7988 175.773 59.1133C175.441 59.4232 175.27 59.8447 175.261 60.3779H174.447C174.456 59.6305 174.709 59.0335 175.206 58.5869C175.703 58.1357 176.334 57.9102 177.1 57.9102C177.883 57.9102 178.501 58.1403 178.952 58.6006C179.408 59.0563 179.636 59.6761 179.636 60.46C179.636 60.9521 179.524 61.4147 179.301 61.8477C179.077 62.276 178.654 62.7773 178.029 63.3516C177.514 63.7845 177.257 64.4134 177.257 65.2383H176.443ZM176.334 67.5215C176.334 67.3665 176.382 67.2367 176.478 67.1318C176.578 67.0225 176.717 66.9678 176.895 66.9678C177.068 66.9678 177.204 67.0225 177.305 67.1318C177.41 67.2367 177.462 67.3665 177.462 67.5215C177.462 67.6719 177.41 67.7995 177.305 67.9043C177.204 68.0046 177.068 68.0547 176.895 68.0547C176.717 68.0547 176.578 68.0046 176.478 67.9043C176.382 67.7995 176.334 67.6719 176.334 67.5215ZM26.8047 83.8965C26.9186 84.7669 27.2012 85.4072 27.6523 85.8174C28.1035 86.223 28.7598 86.4258 29.6211 86.4258C30.5189 86.4258 31.2275 86.0794 31.7471 85.3867C32.2666 84.694 32.5264 83.7666 32.5264 82.6045V82.3584H28.3701V81.6406H32.5264V81.3945C32.5264 80.2415 32.2598 79.3255 31.7266 78.6465C31.1934 77.9674 30.4733 77.6279 29.5664 77.6279C27.9349 77.6279 27.0143 78.4733 26.8047 80.1641H25.9639C26.0641 79.1341 26.4264 78.3343 27.0508 77.7646C27.6751 77.195 28.5137 76.9102 29.5664 76.9102C30.7103 76.9102 31.6286 77.3203 32.3213 78.1406C33.0186 78.9564 33.3672 80.0638 33.3672 81.4629V82.6523C33.3672 83.5365 33.21 84.3226 32.8955 85.0107C32.5856 85.6943 32.1458 86.2207 31.5762 86.5898C31.0111 86.9544 30.3594 87.1367 29.6211 87.1367C28.5547 87.1367 27.7048 86.8564 27.0713 86.2959C26.4378 85.7354 26.0687 84.9355 25.9639 83.8965H26.8047ZM40.6201 80.3008H37.9268V87H37.1064V80.3008H34.5156V79.6035H40.6201V80.3008ZM41.2285 83.1924C41.2285 82.4814 41.3652 81.8411 41.6387 81.2715C41.9167 80.7018 42.3063 80.2598 42.8076 79.9453C43.3135 79.6263 43.8854 79.4668 44.5234 79.4668C45.5078 79.4668 46.3053 79.8132 46.916 80.5059C47.5267 81.194 47.832 82.1077 47.832 83.2471V83.418C47.832 84.1335 47.693 84.7783 47.415 85.3525C47.1416 85.9222 46.7542 86.362 46.2529 86.6719C45.7516 86.9818 45.1797 87.1367 44.5371 87.1367C43.5573 87.1367 42.7598 86.7926 42.1445 86.1045C41.5339 85.4118 41.2285 84.4958 41.2285 83.3564V83.1924ZM42.0488 83.418C42.0488 84.3021 42.2767 85.029 42.7324 85.5986C43.1927 86.1637 43.7943 86.4463 44.5371 86.4463C45.2754 86.4463 45.8724 86.1637 46.3281 85.5986C46.7884 85.029 47.0186 84.2793 47.0186 83.3496V83.1924C47.0186 82.6273 46.9137 82.11 46.7041 81.6406C46.4945 81.1712 46.2005 80.8089 45.8223 80.5537C45.444 80.2939 45.0111 80.1641 44.5234 80.1641C43.7943 80.1641 43.1995 80.4512 42.7393 81.0254C42.279 81.5951 42.0488 82.3424 42.0488 83.2676V83.418ZM57.0264 85.8926L59.9658 79.6035H60.9775V87H60.1572V80.9297L57.3135 87H56.7324L53.834 80.793V87H53.0205V79.6035H54.0938L57.0264 85.8926ZM64.0742 82.29H66.207C66.7539 82.29 67.2324 82.3903 67.6426 82.5908C68.0573 82.7868 68.3695 83.0602 68.5791 83.4111C68.7933 83.762 68.9004 84.1699 68.9004 84.6348C68.9004 85.3503 68.6543 85.9245 68.1621 86.3574C67.6745 86.7858 67.0137 87 66.1797 87H63.2607V79.6035H64.0742V82.29ZM64.0742 82.9873V86.3096H66.1934C66.7812 86.3096 67.2415 86.1615 67.5742 85.8652C67.9115 85.569 68.0801 85.1634 68.0801 84.6484C68.0801 84.1562 67.916 83.7598 67.5879 83.459C67.2643 83.1536 66.82 82.9964 66.2549 82.9873H64.0742ZM71.4092 87H70.5889V79.6035H71.4092V87ZM81.9502 79.6035H82.7705V87H81.9502V80.9229L77.958 87H77.1445V79.6035H77.958V85.6875L81.9502 79.6035ZM88.458 87V79.6035H91.1719C92.1107 79.6035 92.8307 79.7721 93.332 80.1094C93.8333 80.4421 94.084 80.932 94.084 81.5791C94.084 81.9482 93.9723 82.2786 93.749 82.5703C93.5257 82.8574 93.1999 83.0671 92.7715 83.1992C93.2546 83.2904 93.6419 83.4977 93.9336 83.8213C94.2298 84.1449 94.3779 84.5208 94.3779 84.9492C94.3779 85.6009 94.1364 86.1068 93.6533 86.4668C93.1748 86.8223 92.4958 87 91.6162 87H88.458ZM89.2715 83.5957V86.3164H91.6436C92.2588 86.3164 92.7327 86.1979 93.0654 85.9609C93.3981 85.724 93.5645 85.3822 93.5645 84.9355C93.5645 84.5254 93.3981 84.1995 93.0654 83.958C92.7327 83.7165 92.2588 83.5957 91.6436 83.5957H89.2715ZM89.2715 82.9121H91.3428C92.6279 82.8939 93.2705 82.4564 93.2705 81.5996C93.2705 81.1484 93.0928 80.8203 92.7373 80.6152C92.3864 80.4056 91.8646 80.3008 91.1719 80.3008H89.2715V82.9121ZM97.1055 82.29H99.2383C99.7852 82.29 100.264 82.3903 100.674 82.5908C101.089 82.7868 101.401 83.0602 101.61 83.4111C101.825 83.762 101.932 84.1699 101.932 84.6348C101.932 85.3503 101.686 85.9245 101.193 86.3574C100.706 86.7858 100.045 87 99.2109 87H96.292V79.6035H97.1055V82.29ZM97.1055 82.9873V86.3096H99.2246C99.8125 86.3096 100.273 86.1615 100.605 85.8652C100.943 85.569 101.111 85.1634 101.111 84.6484C101.111 84.1562 100.947 83.7598 100.619 83.459C100.296 83.1536 99.8512 82.9964 99.2861 82.9873H97.1055ZM104.44 87H103.62V79.6035H104.44V87ZM112.11 79.6035V87H111.29V84.0195H108.993L107.188 87H106.286L108.146 83.917C107.64 83.7848 107.245 83.5296 106.963 83.1514C106.685 82.7731 106.546 82.3265 106.546 81.8115C106.546 81.1416 106.785 80.6061 107.264 80.2051C107.747 79.804 108.398 79.6035 109.219 79.6035H112.11ZM107.366 81.8252C107.366 82.2581 107.503 82.6136 107.776 82.8916C108.054 83.1696 108.439 83.3132 108.932 83.3223H111.29V80.3008H109.198C108.629 80.3008 108.18 80.4375 107.852 80.7109C107.528 80.9844 107.366 81.3558 107.366 81.8252ZM117.053 86.4463C117.622 86.4463 118.099 86.2868 118.481 85.9678C118.869 85.6442 119.078 85.2272 119.11 84.7168H119.896C119.874 85.168 119.732 85.5804 119.473 85.9541C119.213 86.3232 118.867 86.6126 118.434 86.8223C118.005 87.0319 117.545 87.1367 117.053 87.1367C116.082 87.1367 115.312 86.7995 114.742 86.125C114.177 85.4505 113.895 84.5436 113.895 83.4043V83.1582C113.895 82.429 114.022 81.7842 114.277 81.2236C114.533 80.6631 114.897 80.2301 115.371 79.9248C115.85 79.6195 116.408 79.4668 117.046 79.4668C117.857 79.4668 118.525 79.7083 119.049 80.1914C119.577 80.6745 119.86 81.3102 119.896 82.0986H119.11C119.074 81.5199 118.864 81.0527 118.481 80.6973C118.103 80.3418 117.625 80.1641 117.046 80.1641C116.308 80.1641 115.733 80.4307 115.323 80.9639C114.918 81.4971 114.715 82.2445 114.715 83.2061V83.4453C114.715 84.3887 114.918 85.1247 115.323 85.6533C115.733 86.182 116.31 86.4463 117.053 86.4463ZM127.218 87H126.397V83.6094H122.412V87H121.592V79.6035H122.412V82.9189H126.397V79.6035H127.218V87ZM134.272 79.6035H135.093V87H134.272V80.9229L130.28 87H129.467V79.6035H130.28V85.6875L134.272 79.6035ZM141.382 85.8926L144.321 79.6035H145.333V87H144.513V80.9297L141.669 87H141.088L138.189 80.793V87H137.376V79.6035H138.449L141.382 85.8926ZM147.356 88.8594L146.871 88.5039C147.286 87.9479 147.5 87.3714 147.514 86.7744V85.7148H148.313V86.5693C148.313 87.5173 147.994 88.2806 147.356 88.8594ZM159.292 87H158.472V80.3076H154.486V87H153.666V79.6035H159.292V87ZM167.174 79.6035V87H166.354V80.3076H163.325L163.195 83.0762C163.141 84.1016 163.038 84.8854 162.888 85.4277C162.737 85.9655 162.514 86.362 162.218 86.6172C161.922 86.8724 161.527 87 161.035 87H160.721V86.2754L160.974 86.2617C161.443 86.2526 161.78 86.0247 161.985 85.5781C162.19 85.1315 162.325 84.334 162.389 83.1855L162.539 79.6035H167.174ZM170.277 82.9736H172.39C172.412 82.2992 172.567 81.693 172.854 81.1553C173.142 80.613 173.531 80.196 174.023 79.9043C174.516 79.6126 175.067 79.4668 175.678 79.4668C176.658 79.4668 177.453 79.8132 178.063 80.5059C178.679 81.1986 178.986 82.1146 178.986 83.2539V83.418C178.986 84.1289 178.847 84.7715 178.569 85.3457C178.291 85.9199 177.902 86.362 177.4 86.6719C176.899 86.9818 176.329 87.1367 175.691 87.1367C174.748 87.1367 173.973 86.8177 173.367 86.1797C172.761 85.5371 172.435 84.7008 172.39 83.6709H170.277V87H169.464V79.6035H170.277V82.9736ZM173.196 83.418C173.196 84.3021 173.424 85.029 173.88 85.5986C174.34 86.1637 174.944 86.4463 175.691 86.4463C176.425 86.4463 177.02 86.1637 177.476 85.5986C177.936 85.029 178.166 84.2793 178.166 83.3496V83.1924C178.166 82.3174 177.936 81.5951 177.476 81.0254C177.015 80.4512 176.416 80.1641 175.678 80.1641C174.944 80.1641 174.347 80.4512 173.887 81.0254C173.426 81.5951 173.196 82.3424 173.196 83.2676V83.418ZM183.498 86.4463C184.068 86.4463 184.544 86.2868 184.927 85.9678C185.314 85.6442 185.524 85.2272 185.556 84.7168H186.342C186.319 85.168 186.178 85.5804 185.918 85.9541C185.658 86.3232 185.312 86.6126 184.879 86.8223C184.451 87.0319 183.99 87.1367 183.498 87.1367C182.527 87.1367 181.757 86.7995 181.188 86.125C180.622 85.4505 180.34 84.5436 180.34 83.4043V83.1582C180.34 82.429 180.467 81.7842 180.723 81.2236C180.978 80.6631 181.342 80.2301 181.816 79.9248C182.295 79.6195 182.853 79.4668 183.491 79.4668C184.302 79.4668 184.97 79.7083 185.494 80.1914C186.023 80.6745 186.305 81.3102 186.342 82.0986H185.556C185.519 81.5199 185.31 81.0527 184.927 80.6973C184.549 80.3418 184.07 80.1641 183.491 80.1641C182.753 80.1641 182.179 80.4307 181.769 80.9639C181.363 81.4971 181.16 82.2445 181.16 83.2061V83.4453C181.16 84.3887 181.363 85.1247 181.769 85.6533C182.179 86.182 182.755 86.4463 183.498 86.4463ZM28.0762 103.609H26.9414V107H26.1143V99.6035H26.9414V102.885H28.0625L30.7764 99.6035H31.8086L28.7734 103.192L32.1436 107H31.0635L28.0762 103.609ZM32.7246 103.192C32.7246 102.481 32.8613 101.841 33.1348 101.271C33.4128 100.702 33.8024 100.26 34.3037 99.9453C34.8096 99.6263 35.3815 99.4668 36.0195 99.4668C37.0039 99.4668 37.8014 99.8132 38.4121 100.506C39.0228 101.194 39.3281 102.108 39.3281 103.247V103.418C39.3281 104.133 39.1891 104.778 38.9111 105.353C38.6377 105.922 38.2503 106.362 37.749 106.672C37.2477 106.982 36.6758 107.137 36.0332 107.137C35.0534 107.137 34.2559 106.793 33.6406 106.104C33.0299 105.412 32.7246 104.496 32.7246 103.356V103.192ZM33.5449 103.418C33.5449 104.302 33.7728 105.029 34.2285 105.599C34.6888 106.164 35.2904 106.446 36.0332 106.446C36.7715 106.446 37.3685 106.164 37.8242 105.599C38.2845 105.029 38.5146 104.279 38.5146 103.35V103.192C38.5146 102.627 38.4098 102.11 38.2002 101.641C37.9906 101.171 37.6966 100.809 37.3184 100.554C36.9401 100.294 36.5072 100.164 36.0195 100.164C35.2904 100.164 34.6956 100.451 34.2354 101.025C33.7751 101.595 33.5449 102.342 33.5449 103.268V103.418ZM44.5166 107V99.6035H47.2305C48.1693 99.6035 48.8893 99.7721 49.3906 100.109C49.8919 100.442 50.1426 100.932 50.1426 101.579C50.1426 101.948 50.0309 102.279 49.8076 102.57C49.5843 102.857 49.2585 103.067 48.8301 103.199C49.3132 103.29 49.7005 103.498 49.9922 103.821C50.2884 104.145 50.4365 104.521 50.4365 104.949C50.4365 105.601 50.195 106.107 49.7119 106.467C49.2334 106.822 48.5544 107 47.6748 107H44.5166ZM45.3301 103.596V106.316H47.7021C48.3174 106.316 48.7913 106.198 49.124 105.961C49.4567 105.724 49.623 105.382 49.623 104.936C49.623 104.525 49.4567 104.2 49.124 103.958C48.7913 103.716 48.3174 103.596 47.7021 103.596H45.3301ZM45.3301 102.912H47.4014C48.6865 102.894 49.3291 102.456 49.3291 101.6C49.3291 101.148 49.1514 100.82 48.7959 100.615C48.445 100.406 47.9232 100.301 47.2305 100.301H45.3301V102.912ZM54.9961 106.446C55.5658 106.446 56.042 106.287 56.4248 105.968C56.8122 105.644 57.0218 105.227 57.0537 104.717H57.8398C57.8171 105.168 57.6758 105.58 57.416 105.954C57.1562 106.323 56.8099 106.613 56.377 106.822C55.9486 107.032 55.4883 107.137 54.9961 107.137C54.0254 107.137 53.2552 106.799 52.6855 106.125C52.1204 105.451 51.8379 104.544 51.8379 103.404V103.158C51.8379 102.429 51.9655 101.784 52.2207 101.224C52.4759 100.663 52.8405 100.23 53.3145 99.9248C53.793 99.6195 54.3512 99.4668 54.9893 99.4668C55.8005 99.4668 56.4681 99.7083 56.9922 100.191C57.5208 100.674 57.8034 101.31 57.8398 102.099H57.0537C57.0173 101.52 56.8076 101.053 56.4248 100.697C56.0465 100.342 55.568 100.164 54.9893 100.164C54.251 100.164 53.6768 100.431 53.2666 100.964C52.861 101.497 52.6582 102.244 52.6582 103.206V103.445C52.6582 104.389 52.861 105.125 53.2666 105.653C53.6768 106.182 54.2533 106.446 54.9961 106.446ZM62.3447 107.137C61.7158 107.137 61.1462 106.982 60.6357 106.672C60.1299 106.362 59.7357 105.931 59.4531 105.38C59.1706 104.824 59.0293 104.202 59.0293 103.514V103.22C59.0293 102.509 59.166 101.868 59.4395 101.299C59.7174 100.729 60.1025 100.283 60.5947 99.959C61.0869 99.6309 61.6201 99.4668 62.1943 99.4668C63.0921 99.4668 63.8031 99.7744 64.3271 100.39C64.8558 101 65.1201 101.837 65.1201 102.898V103.356H59.8428V103.514C59.8428 104.352 60.082 105.052 60.5605 105.612C61.0436 106.168 61.6497 106.446 62.3789 106.446C62.8164 106.446 63.2015 106.367 63.5342 106.207C63.8714 106.048 64.1768 105.792 64.4502 105.441L64.9629 105.831C64.3613 106.701 63.4886 107.137 62.3447 107.137ZM62.1943 100.164C61.5791 100.164 61.0596 100.39 60.6357 100.841C60.2165 101.292 59.9613 101.898 59.8701 102.659H64.3066V102.57C64.2839 101.859 64.0811 101.281 63.6982 100.834C63.3154 100.387 62.8141 100.164 62.1943 100.164ZM70.8076 105.893L73.7471 99.6035H74.7588V107H73.9385V100.93L71.0947 107H70.5137L67.6152 100.793V107H66.8018V99.6035H67.875L70.8076 105.893ZM79.2979 105.824L81.458 99.6035H82.3398L79.1816 108.258L79.0176 108.641C78.612 109.538 77.9854 109.987 77.1377 109.987C76.9417 109.987 76.7321 109.955 76.5088 109.892L76.502 109.215L76.9258 109.256C77.3268 109.256 77.6504 109.156 77.8965 108.955C78.1471 108.759 78.359 108.42 78.5322 107.937L78.8945 106.938L76.1055 99.6035H77.001L79.2979 105.824ZM92.9629 103.377C92.9629 104.53 92.7077 105.446 92.1973 106.125C91.6868 106.799 91.0033 107.137 90.1465 107.137C89.1348 107.137 88.36 106.781 87.8223 106.07V109.844H87.0088V99.6035H87.7676L87.8086 100.649C88.3418 99.861 89.1143 99.4668 90.126 99.4668C91.0101 99.4668 91.7028 99.8018 92.2041 100.472C92.71 101.142 92.9629 102.071 92.9629 103.261V103.377ZM92.1426 103.233C92.1426 102.29 91.9489 101.545 91.5615 100.998C91.1742 100.451 90.6341 100.178 89.9414 100.178C89.4401 100.178 89.0094 100.299 88.6494 100.54C88.2894 100.782 88.0137 101.132 87.8223 101.593V105.141C88.0182 105.564 88.2985 105.888 88.6631 106.111C89.0277 106.335 89.4583 106.446 89.9551 106.446C90.6432 106.446 91.1787 106.173 91.5615 105.626C91.9489 105.075 92.1426 104.277 92.1426 103.233ZM99.4502 107C99.3682 106.768 99.3158 106.424 99.293 105.968C99.0059 106.341 98.639 106.631 98.1924 106.836C97.7503 107.036 97.2809 107.137 96.7842 107.137C96.0732 107.137 95.4967 106.938 95.0547 106.542C94.6172 106.146 94.3984 105.644 94.3984 105.038C94.3984 104.318 94.6969 103.748 95.2939 103.329C95.8955 102.91 96.7318 102.7 97.8027 102.7H99.2861V101.859C99.2861 101.331 99.1221 100.916 98.7939 100.615C98.4704 100.31 97.9964 100.157 97.3721 100.157C96.8024 100.157 96.3307 100.303 95.957 100.595C95.5833 100.886 95.3965 101.237 95.3965 101.647L94.5762 101.641C94.5762 101.053 94.8496 100.545 95.3965 100.116C95.9434 99.6833 96.6156 99.4668 97.4131 99.4668C98.238 99.4668 98.8874 99.6742 99.3613 100.089C99.8398 100.499 100.086 101.073 100.1 101.812V105.312C100.1 106.027 100.175 106.562 100.325 106.918V107H99.4502ZM96.8799 106.412C97.4268 106.412 97.9144 106.28 98.3428 106.016C98.7757 105.751 99.0902 105.398 99.2861 104.956V103.329H97.8232C97.0075 103.338 96.3695 103.489 95.9092 103.78C95.4489 104.067 95.2188 104.464 95.2188 104.97C95.2188 105.384 95.3714 105.729 95.6768 106.002C95.9867 106.275 96.3877 106.412 96.8799 106.412ZM105.021 106.446C105.591 106.446 106.067 106.287 106.45 105.968C106.838 105.644 107.047 105.227 107.079 104.717H107.865C107.842 105.168 107.701 105.58 107.441 105.954C107.182 106.323 106.835 106.613 106.402 106.822C105.974 107.032 105.514 107.137 105.021 107.137C104.051 107.137 103.281 106.799 102.711 106.125C102.146 105.451 101.863 104.544 101.863 103.404V103.158C101.863 102.429 101.991 101.784 102.246 101.224C102.501 100.663 102.866 100.23 103.34 99.9248C103.818 99.6195 104.377 99.4668 105.015 99.4668C105.826 99.4668 106.493 99.7083 107.018 100.191C107.546 100.674 107.829 101.31 107.865 102.099H107.079C107.043 101.52 106.833 101.053 106.45 100.697C106.072 100.342 105.593 100.164 105.015 100.164C104.276 100.164 103.702 100.431 103.292 100.964C102.886 101.497 102.684 102.244 102.684 103.206V103.445C102.684 104.389 102.886 105.125 103.292 105.653C103.702 106.182 104.279 106.446 105.021 106.446ZM112.24 106.446C112.81 106.446 113.286 106.287 113.669 105.968C114.056 105.644 114.266 105.227 114.298 104.717H115.084C115.061 105.168 114.92 105.58 114.66 105.954C114.4 106.323 114.054 106.613 113.621 106.822C113.193 107.032 112.732 107.137 112.24 107.137C111.27 107.137 110.499 106.799 109.93 106.125C109.365 105.451 109.082 104.544 109.082 103.404V103.158C109.082 102.429 109.21 101.784 109.465 101.224C109.72 100.663 110.085 100.23 110.559 99.9248C111.037 99.6195 111.595 99.4668 112.233 99.4668C113.045 99.4668 113.712 99.7083 114.236 100.191C114.765 100.674 115.048 101.31 115.084 102.099H114.298C114.261 101.52 114.052 101.053 113.669 100.697C113.291 100.342 112.812 100.164 112.233 100.164C111.495 100.164 110.921 100.431 110.511 100.964C110.105 101.497 109.902 102.244 109.902 103.206V103.445C109.902 104.389 110.105 105.125 110.511 105.653C110.921 106.182 111.497 106.446 112.24 106.446ZM118.734 103.609H117.6V107H116.772V99.6035H117.6V102.885H118.721L121.435 99.6035H122.467L119.432 103.192L122.802 107H121.722L118.734 103.609ZM128.653 107C128.571 106.768 128.519 106.424 128.496 105.968C128.209 106.341 127.842 106.631 127.396 106.836C126.953 107.036 126.484 107.137 125.987 107.137C125.276 107.137 124.7 106.938 124.258 106.542C123.82 106.146 123.602 105.644 123.602 105.038C123.602 104.318 123.9 103.748 124.497 103.329C125.099 102.91 125.935 102.7 127.006 102.7H128.489V101.859C128.489 101.331 128.325 100.916 127.997 100.615C127.674 100.31 127.2 100.157 126.575 100.157C126.006 100.157 125.534 100.303 125.16 100.595C124.786 100.886 124.6 101.237 124.6 101.647L123.779 101.641C123.779 101.053 124.053 100.545 124.6 100.116C125.146 99.6833 125.819 99.4668 126.616 99.4668C127.441 99.4668 128.09 99.6742 128.564 100.089C129.043 100.499 129.289 101.073 129.303 101.812V105.312C129.303 106.027 129.378 106.562 129.528 106.918V107H128.653ZM126.083 106.412C126.63 106.412 127.118 106.28 127.546 106.016C127.979 105.751 128.293 105.398 128.489 104.956V103.329H127.026C126.211 103.338 125.573 103.489 125.112 103.78C124.652 104.067 124.422 104.464 124.422 104.97C124.422 105.384 124.575 105.729 124.88 106.002C125.19 106.275 125.591 106.412 126.083 106.412ZM137.144 103.582H136.159V107H135.339V103.582H134.361L131.627 107H130.588L133.65 103.206L130.93 99.6035H131.921L134.348 102.851H135.339V99.6035H136.159V102.851H137.157L139.584 99.6035H140.589L137.854 103.206L140.924 107H139.878L137.144 103.582ZM144.964 107.137C144.335 107.137 143.765 106.982 143.255 106.672C142.749 106.362 142.355 105.931 142.072 105.38C141.79 104.824 141.648 104.202 141.648 103.514V103.22C141.648 102.509 141.785 101.868 142.059 101.299C142.337 100.729 142.722 100.283 143.214 99.959C143.706 99.6309 144.239 99.4668 144.813 99.4668C145.711 99.4668 146.422 99.7744 146.946 100.39C147.475 101 147.739 101.837 147.739 102.898V103.356H142.462V103.514C142.462 104.352 142.701 105.052 143.18 105.612C143.663 106.168 144.269 106.446 144.998 106.446C145.436 106.446 145.821 106.367 146.153 106.207C146.491 106.048 146.796 105.792 147.069 105.441L147.582 105.831C146.98 106.701 146.108 107.137 144.964 107.137ZM144.813 100.164C144.198 100.164 143.679 100.39 143.255 100.841C142.836 101.292 142.58 101.898 142.489 102.659H146.926V102.57C146.903 101.859 146.7 101.281 146.317 100.834C145.935 100.387 145.433 100.164 144.813 100.164ZM153.427 105.893L156.366 99.6035H157.378V107H156.558V100.93L153.714 107H153.133L150.234 100.793V107H149.421V99.6035H150.494L153.427 105.893ZM164.986 103.609H163.852V107H163.024V99.6035H163.852V102.885H164.973L167.687 99.6035H168.719L165.684 103.192L169.054 107H167.974L164.986 103.609ZM174.905 107C174.823 106.768 174.771 106.424 174.748 105.968C174.461 106.341 174.094 106.631 173.647 106.836C173.205 107.036 172.736 107.137 172.239 107.137C171.528 107.137 170.952 106.938 170.51 106.542C170.072 106.146 169.854 105.644 169.854 105.038C169.854 104.318 170.152 103.748 170.749 103.329C171.351 102.91 172.187 102.7 173.258 102.7H174.741V101.859C174.741 101.331 174.577 100.916 174.249 100.615C173.925 100.31 173.451 100.157 172.827 100.157C172.257 100.157 171.786 100.303 171.412 100.595C171.038 100.886 170.852 101.237 170.852 101.647L170.031 101.641C170.031 101.053 170.305 100.545 170.852 100.116C171.398 99.6833 172.071 99.4668 172.868 99.4668C173.693 99.4668 174.342 99.6742 174.816 100.089C175.295 100.499 175.541 101.073 175.555 101.812V105.312C175.555 106.027 175.63 106.562 175.78 106.918V107H174.905ZM172.335 106.412C172.882 106.412 173.369 106.28 173.798 106.016C174.231 105.751 174.545 105.398 174.741 104.956V103.329H173.278C172.463 103.338 171.825 103.489 171.364 103.78C170.904 104.067 170.674 104.464 170.674 104.97C170.674 105.384 170.826 105.729 171.132 106.002C171.442 106.275 171.843 106.412 172.335 106.412ZM179.752 103.609H178.617V107H177.79V99.6035H178.617V102.885H179.738L182.452 99.6035H183.484L180.449 103.192L183.819 107H182.739L179.752 103.609ZM31.7471 126H30.9268V119.308H26.9414V126H26.1211V118.604H31.7471V126ZM33.4902 122.192C33.4902 121.481 33.627 120.841 33.9004 120.271C34.1784 119.702 34.568 119.26 35.0693 118.945C35.5752 118.626 36.1471 118.467 36.7852 118.467C37.7695 118.467 38.5671 118.813 39.1777 119.506C39.7884 120.194 40.0938 121.108 40.0938 122.247V122.418C40.0938 123.133 39.9548 123.778 39.6768 124.353C39.4033 124.922 39.016 125.362 38.5146 125.672C38.0133 125.982 37.4414 126.137 36.7988 126.137C35.819 126.137 35.0215 125.793 34.4062 125.104C33.7956 124.412 33.4902 123.496 33.4902 122.356V122.192ZM34.3105 122.418C34.3105 123.302 34.5384 124.029 34.9941 124.599C35.4544 125.164 36.056 125.446 36.7988 125.446C37.5371 125.446 38.1341 125.164 38.5898 124.599C39.0501 124.029 39.2803 123.279 39.2803 122.35V122.192C39.2803 121.627 39.1755 121.11 38.9658 120.641C38.7562 120.171 38.4622 119.809 38.084 119.554C37.7057 119.294 37.2728 119.164 36.7852 119.164C36.056 119.164 35.4613 119.451 35.001 120.025C34.5407 120.595 34.3105 121.342 34.3105 122.268V122.418ZM41.126 125.31L41.4883 124.838C42.0625 124.059 42.3929 122.919 42.4795 121.42L42.6094 118.604H46.9775V125.31H47.7432V128.174H46.9297V126H41.3721V128.174H40.5859L40.5928 125.31H41.126ZM42.0693 125.31H46.1572V119.369H43.3887L43.2998 121.29C43.2178 123.054 42.8076 124.394 42.0693 125.31ZM48.8711 122.192C48.8711 121.481 49.0078 120.841 49.2812 120.271C49.5592 119.702 49.9489 119.26 50.4502 118.945C50.9561 118.626 51.528 118.467 52.166 118.467C53.1504 118.467 53.9479 118.813 54.5586 119.506C55.1693 120.194 55.4746 121.108 55.4746 122.247V122.418C55.4746 123.133 55.3356 123.778 55.0576 124.353C54.7842 124.922 54.3968 125.362 53.8955 125.672C53.3942 125.982 52.8223 126.137 52.1797 126.137C51.1999 126.137 50.4023 125.793 49.7871 125.104C49.1764 124.412 48.8711 123.496 48.8711 122.356V122.192ZM49.6914 122.418C49.6914 123.302 49.9193 124.029 50.375 124.599C50.8353 125.164 51.4368 125.446 52.1797 125.446C52.918 125.446 53.515 125.164 53.9707 124.599C54.431 124.029 54.6611 123.279 54.6611 122.35V122.192C54.6611 121.627 54.5563 121.11 54.3467 120.641C54.137 120.171 53.8431 119.809 53.4648 119.554C53.0866 119.294 52.6536 119.164 52.166 119.164C51.4368 119.164 50.8421 119.451 50.3818 120.025C49.9215 120.595 49.6914 121.342 49.6914 122.268V122.418ZM60.1504 119.096C61.0892 119.096 61.8503 119.403 62.4336 120.019C63.0169 120.629 63.3086 121.44 63.3086 122.452V122.63C63.3086 123.3 63.1742 123.904 62.9053 124.441C62.641 124.975 62.2581 125.392 61.7568 125.692C61.2601 125.989 60.6882 126.137 60.041 126.137C59.0658 126.137 58.2751 125.813 57.6689 125.166C57.0674 124.514 56.7666 123.646 56.7666 122.562V121.905C56.7666 120.374 57.0583 119.15 57.6416 118.234C58.2249 117.318 59.0544 116.771 60.1299 116.594C60.8089 116.484 61.2852 116.336 61.5586 116.149C61.8366 115.963 61.9756 115.707 61.9756 115.384H62.6797C62.6797 115.767 62.5999 116.083 62.4404 116.334C62.2809 116.585 62.0417 116.787 61.7227 116.942C61.4036 117.093 60.916 117.22 60.2598 117.325C59.5078 117.444 58.9017 117.765 58.4414 118.289C57.9857 118.809 57.6895 119.506 57.5527 120.381C57.8444 119.998 58.209 119.688 58.6465 119.451C59.0885 119.214 59.5898 119.096 60.1504 119.096ZM57.5869 122.459V122.63C57.5869 123.464 57.8125 124.143 58.2637 124.667C58.7148 125.187 59.3073 125.446 60.041 125.446C60.7793 125.446 61.3717 125.184 61.8184 124.66C62.265 124.132 62.4883 123.439 62.4883 122.582V122.404C62.4883 121.634 62.2604 121.005 61.8047 120.518C61.3535 120.03 60.7611 119.786 60.0273 119.786C59.2936 119.786 58.7035 120.035 58.2568 120.531C57.8102 121.023 57.5869 121.666 57.5869 122.459ZM70.7051 122.377C70.7051 123.53 70.4499 124.446 69.9395 125.125C69.429 125.799 68.7454 126.137 67.8887 126.137C66.877 126.137 66.1022 125.781 65.5645 125.07V128.844H64.751V118.604H65.5098L65.5508 119.649C66.084 118.861 66.8564 118.467 67.8682 118.467C68.7523 118.467 69.445 118.802 69.9463 119.472C70.4521 120.142 70.7051 121.071 70.7051 122.261V122.377ZM69.8848 122.233C69.8848 121.29 69.6911 120.545 69.3037 119.998C68.9163 119.451 68.3763 119.178 67.6836 119.178C67.1823 119.178 66.7516 119.299 66.3916 119.54C66.0316 119.782 65.7559 120.132 65.5645 120.593V124.141C65.7604 124.564 66.0407 124.888 66.4053 125.111C66.7699 125.335 67.2005 125.446 67.6973 125.446C68.3854 125.446 68.9209 125.173 69.3037 124.626C69.6911 124.075 69.8848 123.277 69.8848 122.233ZM77.1924 126C77.1104 125.768 77.0579 125.424 77.0352 124.968C76.748 125.341 76.3812 125.631 75.9346 125.836C75.4925 126.036 75.0231 126.137 74.5264 126.137C73.8154 126.137 73.2389 125.938 72.7969 125.542C72.3594 125.146 72.1406 124.644 72.1406 124.038C72.1406 123.318 72.4391 122.748 73.0361 122.329C73.6377 121.91 74.474 121.7 75.5449 121.7H77.0283V120.859C77.0283 120.331 76.8643 119.916 76.5361 119.615C76.2126 119.31 75.7386 119.157 75.1143 119.157C74.5446 119.157 74.0729 119.303 73.6992 119.595C73.3255 119.886 73.1387 120.237 73.1387 120.647L72.3184 120.641C72.3184 120.053 72.5918 119.545 73.1387 119.116C73.6855 118.683 74.3577 118.467 75.1553 118.467C75.9801 118.467 76.6296 118.674 77.1035 119.089C77.582 119.499 77.8281 120.073 77.8418 120.812V124.312C77.8418 125.027 77.917 125.562 78.0674 125.918V126H77.1924ZM74.6221 125.412C75.1689 125.412 75.6566 125.28 76.085 125.016C76.5179 124.751 76.8324 124.398 77.0283 123.956V122.329H75.5654C74.7497 122.338 74.1117 122.489 73.6514 122.78C73.1911 123.067 72.9609 123.464 72.9609 123.97C72.9609 124.384 73.1136 124.729 73.4189 125.002C73.7288 125.275 74.1299 125.412 74.6221 125.412ZM85.2314 119.301H82.5381V126H81.7178V119.301H79.127V118.604H85.2314V119.301ZM87.4805 121.29H89.6133C90.1602 121.29 90.6387 121.39 91.0488 121.591C91.4635 121.787 91.7757 122.06 91.9854 122.411C92.1995 122.762 92.3066 123.17 92.3066 123.635C92.3066 124.35 92.0605 124.924 91.5684 125.357C91.0807 125.786 90.4199 126 89.5859 126H86.667V118.604H87.4805V121.29ZM87.4805 121.987V125.31H89.5996C90.1875 125.31 90.6478 125.161 90.9805 124.865C91.3177 124.569 91.4863 124.163 91.4863 123.648C91.4863 123.156 91.3223 122.76 90.9941 122.459C90.6706 122.154 90.2262 121.996 89.6611 121.987H87.4805ZM102.335 118.604H103.155V126H102.335V119.923L98.3428 126H97.5293V118.604H98.3428V124.688L102.335 118.604ZM105.179 125.31L105.541 124.838C106.115 124.059 106.446 122.919 106.532 121.42L106.662 118.604H111.03V125.31H111.796V128.174H110.982V126H105.425V128.174H104.639L104.646 125.31H105.179ZM106.122 125.31H110.21V119.369H107.441L107.353 121.29C107.271 123.054 106.86 124.394 106.122 125.31ZM116.239 126.137C115.61 126.137 115.041 125.982 114.53 125.672C114.024 125.362 113.63 124.931 113.348 124.38C113.065 123.824 112.924 123.202 112.924 122.514V122.22C112.924 121.509 113.061 120.868 113.334 120.299C113.612 119.729 113.997 119.283 114.489 118.959C114.981 118.631 115.515 118.467 116.089 118.467C116.987 118.467 117.698 118.774 118.222 119.39C118.75 120 119.015 120.837 119.015 121.898V122.356H113.737V122.514C113.737 123.352 113.977 124.052 114.455 124.612C114.938 125.168 115.544 125.446 116.273 125.446C116.711 125.446 117.096 125.367 117.429 125.207C117.766 125.048 118.071 124.792 118.345 124.441L118.857 124.831C118.256 125.701 117.383 126.137 116.239 126.137ZM116.089 119.164C115.474 119.164 114.954 119.39 114.53 119.841C114.111 120.292 113.856 120.898 113.765 121.659H118.201V121.57C118.178 120.859 117.976 120.281 117.593 119.834C117.21 119.387 116.709 119.164 116.089 119.164ZM125.276 126C125.194 125.768 125.142 125.424 125.119 124.968C124.832 125.341 124.465 125.631 124.019 125.836C123.576 126.036 123.107 126.137 122.61 126.137C121.899 126.137 121.323 125.938 120.881 125.542C120.443 125.146 120.225 124.644 120.225 124.038C120.225 123.318 120.523 122.748 121.12 122.329C121.722 121.91 122.558 121.7 123.629 121.7H125.112V120.859C125.112 120.331 124.948 119.916 124.62 119.615C124.297 119.31 123.823 119.157 123.198 119.157C122.629 119.157 122.157 119.303 121.783 119.595C121.41 119.886 121.223 120.237 121.223 120.647L120.402 120.641C120.402 120.053 120.676 119.545 121.223 119.116C121.77 118.683 122.442 118.467 123.239 118.467C124.064 118.467 124.714 118.674 125.188 119.089C125.666 119.499 125.912 120.073 125.926 120.812V124.312C125.926 125.027 126.001 125.562 126.151 125.918V126H125.276ZM122.706 125.412C123.253 125.412 123.741 125.28 124.169 125.016C124.602 124.751 124.916 124.398 125.112 123.956V122.329H123.649C122.834 122.338 122.196 122.489 121.735 122.78C121.275 123.067 121.045 123.464 121.045 123.97C121.045 124.384 121.198 124.729 121.503 125.002C121.813 125.275 122.214 125.412 122.706 125.412ZM133.801 118.604V126H132.98V119.308H129.952L129.822 122.076C129.768 123.102 129.665 123.885 129.515 124.428C129.364 124.965 129.141 125.362 128.845 125.617C128.549 125.872 128.154 126 127.662 126H127.348V125.275L127.601 125.262C128.07 125.253 128.407 125.025 128.612 124.578C128.817 124.132 128.952 123.334 129.016 122.186L129.166 118.604H133.801ZM136.904 121.29H139.037C139.584 121.29 140.062 121.39 140.473 121.591C140.887 121.787 141.2 122.06 141.409 122.411C141.623 122.762 141.73 123.17 141.73 123.635C141.73 124.35 141.484 124.924 140.992 125.357C140.505 125.786 139.844 126 139.01 126H136.091V118.604H136.904V121.29ZM136.904 121.987V125.31H139.023C139.611 125.31 140.072 125.161 140.404 124.865C140.742 124.569 140.91 124.163 140.91 123.648C140.91 123.156 140.746 122.76 140.418 122.459C140.094 122.154 139.65 121.996 139.085 121.987H136.904ZM149.175 126H148.354V122.609H144.369V126H143.549V118.604H144.369V121.919H148.354V118.604H149.175V126ZM153.714 124.824L155.874 118.604H156.756L153.598 127.258L153.434 127.641C153.028 128.538 152.401 128.987 151.554 128.987C151.358 128.987 151.148 128.955 150.925 128.892L150.918 128.215L151.342 128.256C151.743 128.256 152.066 128.156 152.312 127.955C152.563 127.759 152.775 127.42 152.948 126.937L153.311 125.938L150.521 118.604H151.417L153.714 124.824ZM158.93 121.974H161.042C161.065 121.299 161.22 120.693 161.507 120.155C161.794 119.613 162.184 119.196 162.676 118.904C163.168 118.613 163.719 118.467 164.33 118.467C165.31 118.467 166.105 118.813 166.716 119.506C167.331 120.199 167.639 121.115 167.639 122.254V122.418C167.639 123.129 167.5 123.771 167.222 124.346C166.944 124.92 166.554 125.362 166.053 125.672C165.551 125.982 164.982 126.137 164.344 126.137C163.4 126.137 162.626 125.818 162.02 125.18C161.413 124.537 161.088 123.701 161.042 122.671H158.93V126H158.116V118.604H158.93V121.974ZM161.849 122.418C161.849 123.302 162.076 124.029 162.532 124.599C162.993 125.164 163.596 125.446 164.344 125.446C165.077 125.446 165.672 125.164 166.128 124.599C166.588 124.029 166.818 123.279 166.818 122.35V122.192C166.818 121.317 166.588 120.595 166.128 120.025C165.668 119.451 165.068 119.164 164.33 119.164C163.596 119.164 162.999 119.451 162.539 120.025C162.079 120.595 161.849 121.342 161.849 122.268V122.418ZM28.0762 142.609H26.9414V146H26.1143V138.604H26.9414V141.885H28.0625L30.7764 138.604H31.8086L28.7734 142.192L32.1436 146H31.0635L28.0762 142.609ZM32.7246 142.192C32.7246 141.481 32.8613 140.841 33.1348 140.271C33.4128 139.702 33.8024 139.26 34.3037 138.945C34.8096 138.626 35.3815 138.467 36.0195 138.467C37.0039 138.467 37.8014 138.813 38.4121 139.506C39.0228 140.194 39.3281 141.108 39.3281 142.247V142.418C39.3281 143.133 39.1891 143.778 38.9111 144.353C38.6377 144.922 38.2503 145.362 37.749 145.672C37.2477 145.982 36.6758 146.137 36.0332 146.137C35.0534 146.137 34.2559 145.793 33.6406 145.104C33.0299 144.412 32.7246 143.496 32.7246 142.356V142.192ZM33.5449 142.418C33.5449 143.302 33.7728 144.029 34.2285 144.599C34.6888 145.164 35.2904 145.446 36.0332 145.446C36.7715 145.446 37.3685 145.164 37.8242 144.599C38.2845 144.029 38.5146 143.279 38.5146 142.35V142.192C38.5146 141.627 38.4098 141.11 38.2002 140.641C37.9906 140.171 37.6966 139.809 37.3184 139.554C36.9401 139.294 36.5072 139.164 36.0195 139.164C35.2904 139.164 34.6956 139.451 34.2354 140.025C33.7751 140.595 33.5449 141.342 33.5449 142.268V142.418ZM45.6309 139.308H41.8916V146H41.0713V138.604H45.6309V139.308ZM52.2412 139.301H49.5479V146H48.7275V139.301H46.1367V138.604H52.2412V139.301ZM55.9053 146.137C55.2764 146.137 54.7067 145.982 54.1963 145.672C53.6904 145.362 53.2962 144.931 53.0137 144.38C52.7311 143.824 52.5898 143.202 52.5898 142.514V142.22C52.5898 141.509 52.7266 140.868 53 140.299C53.278 139.729 53.6631 139.283 54.1553 138.959C54.6475 138.631 55.1807 138.467 55.7549 138.467C56.6527 138.467 57.3636 138.774 57.8877 139.39C58.4163 140 58.6807 140.837 58.6807 141.898V142.356H53.4033V142.514C53.4033 143.352 53.6426 144.052 54.1211 144.612C54.6042 145.168 55.2103 145.446 55.9395 145.446C56.377 145.446 56.762 145.367 57.0947 145.207C57.432 145.048 57.7373 144.792 58.0107 144.441L58.5234 144.831C57.9219 145.701 57.0492 146.137 55.9053 146.137ZM55.7549 139.164C55.1396 139.164 54.6201 139.39 54.1963 139.841C53.777 140.292 53.5218 140.898 53.4307 141.659H57.8672V141.57C57.8444 140.859 57.6416 140.281 57.2588 139.834C56.876 139.387 56.3747 139.164 55.7549 139.164ZM65.5029 139.301H62.8096V146H61.9893V139.301H59.3984V138.604H65.5029V139.301ZM66.1113 142.192C66.1113 141.481 66.248 140.841 66.5215 140.271C66.7995 139.702 67.1891 139.26 67.6904 138.945C68.1963 138.626 68.7682 138.467 69.4062 138.467C70.3906 138.467 71.1882 138.813 71.7988 139.506C72.4095 140.194 72.7148 141.108 72.7148 142.247V142.418C72.7148 143.133 72.5758 143.778 72.2979 144.353C72.0244 144.922 71.637 145.362 71.1357 145.672C70.6344 145.982 70.0625 146.137 69.4199 146.137C68.4401 146.137 67.6426 145.793 67.0273 145.104C66.4167 144.412 66.1113 143.496 66.1113 142.356V142.192ZM66.9316 142.418C66.9316 143.302 67.1595 144.029 67.6152 144.599C68.0755 145.164 68.6771 145.446 69.4199 145.446C70.1582 145.446 70.7552 145.164 71.2109 144.599C71.6712 144.029 71.9014 143.279 71.9014 142.35V142.192C71.9014 141.627 71.7965 141.11 71.5869 140.641C71.3773 140.171 71.0833 139.809 70.7051 139.554C70.3268 139.294 69.8939 139.164 69.4062 139.164C68.6771 139.164 68.0824 139.451 67.6221 140.025C67.1618 140.595 66.9316 141.342 66.9316 142.268V142.418ZM79.6738 146H78.8535V142.89C78.179 143.136 77.5342 143.259 76.9189 143.259C75.9391 143.259 75.2282 143.045 74.7861 142.616C74.3441 142.183 74.1139 141.511 74.0957 140.6V138.604H74.9092V140.559C74.9183 141.265 75.0732 141.775 75.374 142.09C75.6794 142.4 76.1943 142.555 76.9189 142.555C77.5798 142.536 78.2246 142.418 78.8535 142.199V138.604H79.6738V146ZM83.8711 142.609H82.7363V146H81.9092V138.604H82.7363V141.885H83.8574L86.5713 138.604H87.6035L84.5684 142.192L87.9385 146H86.8584L83.8711 142.609ZM91.4658 144.824L93.626 138.604H94.5078L91.3496 147.258L91.1855 147.641C90.7799 148.538 90.1533 148.987 89.3057 148.987C89.1097 148.987 88.9001 148.955 88.6768 148.892L88.6699 148.215L89.0938 148.256C89.4948 148.256 89.8184 148.156 90.0645 147.955C90.3151 147.759 90.527 147.42 90.7002 146.937L91.0625 145.938L88.2734 138.604H89.1689L91.4658 144.824Z" fill="white"/>
<path d="M30.3174 32.7705H28.7969V38H26.1602V25.2031H28.7969V30.3271H30.001L33.1299 25.2031H36.3467L32.4004 31.2588L36.7598 38H33.6133L30.3174 32.7705ZM36.9707 33.1572C36.9707 32.2139 37.1523 31.373 37.5156 30.6348C37.8789 29.8965 38.4004 29.3252 39.0801 28.9209C39.7656 28.5166 40.5596 28.3145 41.4619 28.3145C42.7451 28.3145 43.791 28.707 44.5996 29.4922C45.4141 30.2773 45.8682 31.3438 45.9619 32.6914L45.9795 33.3418C45.9795 34.8008 45.5723 35.9727 44.7578 36.8574C43.9434 37.7363 42.8506 38.1758 41.4795 38.1758C40.1084 38.1758 39.0127 37.7363 38.1924 36.8574C37.3779 35.9785 36.9707 34.7832 36.9707 33.2715V33.1572ZM39.5107 33.3418C39.5107 34.2441 39.6807 34.9355 40.0205 35.416C40.3604 35.8906 40.8467 36.1279 41.4795 36.1279C42.0947 36.1279 42.5752 35.8936 42.9209 35.4248C43.2666 34.9502 43.4395 34.1943 43.4395 33.1572C43.4395 32.2725 43.2666 31.5869 42.9209 31.1006C42.5752 30.6143 42.0889 30.3711 41.4619 30.3711C40.8408 30.3711 40.3604 30.6143 40.0205 31.1006C39.6807 31.5811 39.5107 32.3281 39.5107 33.3418ZM54.0215 30.5469H50.084V38H47.5439V28.4902H54.0215V30.5469ZM62.9775 30.5293H59.9277V38H57.3789V30.5293H54.3818V28.4902H62.9775V30.5293ZM69.9912 28.4902H72.5312V38H69.9912V32.1289L66.8096 38H64.2607V28.4902H66.8096V34.3525L69.9912 28.4902Z" fill="#A07B50"/>
<rect x="244" width="46" height="171" fill="#A07B50"/>
<path d="M263 95L271 86L263 77" stroke="white" stroke-width="0.5"/>
</svg>
