<svg width="290" height="171" viewBox="0 0 290 171" fill="none" xmlns="http://www.w3.org/2000/svg">
<path d="M0.25 170.75V0.25H289.75V170.75H0.25Z" fill="black" fill-opacity="0.3" stroke="#A07B50" stroke-width="0.5"/>
<path d="M26.2578 68V58.0469H29.1973C30.2637 58.0469 31.0726 58.2679 31.624 58.71C32.1755 59.1475 32.4512 59.7946 32.4512 60.6514C32.4512 61.1663 32.3099 61.6152 32.0273 61.998C31.7493 62.3763 31.3665 62.6475 30.8789 62.8115C31.4577 62.9391 31.9225 63.224 32.2734 63.666C32.6289 64.1081 32.8066 64.6185 32.8066 65.1973C32.8066 66.0768 32.5218 66.765 31.9521 67.2617C31.387 67.7539 30.5986 68 29.5869 68H26.2578ZM27.0986 63.2148V67.2891H29.6211C30.3411 67.2891 30.9108 67.1068 31.3301 66.7422C31.7539 66.373 31.9658 65.8626 31.9658 65.2109C31.9658 64.5957 31.763 64.1104 31.3574 63.7549C30.9564 63.3949 30.4004 63.2148 29.6895 63.2148H27.0986ZM27.0986 62.5107H29.3955C30.0973 62.4971 30.6396 62.333 31.0225 62.0186C31.4098 61.6995 31.6035 61.237 31.6035 60.6309C31.6035 59.9928 31.403 59.5234 31.002 59.2227C30.6055 58.9173 30.0039 58.7646 29.1973 58.7646H27.0986V62.5107ZM43.7373 68H42.917V64.6094H38.9316V68H38.1113V60.6035H38.9316V63.9189H42.917V60.6035H43.7373V68ZM50.6006 68C50.5186 67.7676 50.4661 67.4235 50.4434 66.9678C50.1562 67.3415 49.7894 67.6309 49.3428 67.8359C48.9007 68.0365 48.4313 68.1367 47.9346 68.1367C47.2236 68.1367 46.6471 67.9385 46.2051 67.542C45.7676 67.1455 45.5488 66.6442 45.5488 66.0381C45.5488 65.318 45.8473 64.7484 46.4443 64.3291C47.0459 63.9098 47.8822 63.7002 48.9531 63.7002H50.4365V62.8594C50.4365 62.3307 50.2725 61.916 49.9443 61.6152C49.6208 61.3099 49.1468 61.1572 48.5225 61.1572C47.9528 61.1572 47.4811 61.3031 47.1074 61.5947C46.7337 61.8864 46.5469 62.2373 46.5469 62.6475L45.7266 62.6406C45.7266 62.0527 46 61.5446 46.5469 61.1162C47.0938 60.6833 47.766 60.4668 48.5635 60.4668C49.3883 60.4668 50.0378 60.6742 50.5117 61.0889C50.9902 61.499 51.2363 62.0732 51.25 62.8115V66.3115C51.25 67.027 51.3252 67.5625 51.4756 67.918V68H50.6006ZM48.0303 67.4121C48.5771 67.4121 49.0648 67.2799 49.4932 67.0156C49.9261 66.7513 50.2406 66.3981 50.4365 65.9561V64.3291H48.9736C48.1579 64.3382 47.5199 64.4886 47.0596 64.7803C46.5993 65.0674 46.3691 65.4639 46.3691 65.9697C46.3691 66.3844 46.5218 66.7285 46.8271 67.002C47.137 67.2754 47.5381 67.4121 48.0303 67.4121ZM54.3125 60.6035V67.3096H57.6006V60.6035H58.4209V67.3096H61.6816V60.6035H62.502V68H53.4922V60.6035H54.3125ZM67.417 68.1367C66.7881 68.1367 66.2184 67.9818 65.708 67.6719C65.2021 67.362 64.8079 66.9313 64.5254 66.3799C64.2428 65.8239 64.1016 65.2018 64.1016 64.5137V64.2197C64.1016 63.5088 64.2383 62.8685 64.5117 62.2988C64.7897 61.7292 65.1748 61.2826 65.667 60.959C66.1592 60.6309 66.6924 60.4668 67.2666 60.4668C68.1644 60.4668 68.8753 60.7744 69.3994 61.3896C69.9281 62.0003 70.1924 62.8366 70.1924 63.8984V64.3564H64.915V64.5137C64.915 65.3522 65.1543 66.0518 65.6328 66.6123C66.1159 67.1683 66.722 67.4463 67.4512 67.4463C67.8887 67.4463 68.2738 67.3665 68.6064 67.207C68.9437 67.0475 69.249 66.7923 69.5225 66.4414L70.0352 66.8311C69.4336 67.7015 68.5609 68.1367 67.417 68.1367ZM67.2666 61.1641C66.6514 61.1641 66.1318 61.3896 65.708 61.8408C65.2887 62.292 65.0335 62.8981 64.9424 63.6592H69.3789V63.5703C69.3561 62.8594 69.1533 62.2806 68.7705 61.834C68.3877 61.3874 67.8864 61.1641 67.2666 61.1641ZM75.8799 66.8926L78.8193 60.6035H79.8311V68H79.0107V61.9297L76.167 68H75.5859L72.6875 61.793V68H71.874V60.6035H72.9473L75.8799 66.8926ZM91.1104 68H90.29V61.3076H86.3047V68H85.4844V60.6035H91.1104V68ZM98.165 60.6035H98.9854V68H98.165V61.9229L94.1729 68H93.3594V60.6035H94.1729V66.6875L98.165 60.6035ZM106.491 61.3008H103.798V68H102.978V61.3008H100.387V60.6035H106.491V61.3008ZM107.1 64.1924C107.1 63.4814 107.236 62.8411 107.51 62.2715C107.788 61.7018 108.177 61.2598 108.679 60.9453C109.185 60.6263 109.757 60.4668 110.395 60.4668C111.379 60.4668 112.176 60.8132 112.787 61.5059C113.398 62.194 113.703 63.1077 113.703 64.2471V64.418C113.703 65.1335 113.564 65.7783 113.286 66.3525C113.013 66.9222 112.625 67.362 112.124 67.6719C111.623 67.9818 111.051 68.1367 110.408 68.1367C109.428 68.1367 108.631 67.7926 108.016 67.1045C107.405 66.4118 107.1 65.4958 107.1 64.3564V64.1924ZM107.92 64.418C107.92 65.3021 108.148 66.029 108.604 66.5986C109.064 67.1637 109.665 67.4463 110.408 67.4463C111.146 67.4463 111.743 67.1637 112.199 66.5986C112.66 66.029 112.89 65.2793 112.89 64.3496V64.1924C112.89 63.6273 112.785 63.11 112.575 62.6406C112.366 62.1712 112.072 61.8089 111.693 61.5537C111.315 61.2939 110.882 61.1641 110.395 61.1641C109.665 61.1641 109.071 61.4512 108.61 62.0254C108.15 62.5951 107.92 63.3424 107.92 64.2676V64.418ZM119.493 66.8926L122.433 60.6035H123.444V68H122.624V61.9297L119.78 68H119.199L116.301 61.793V68H115.487V60.6035H116.561L119.493 66.8926ZM131.319 68H130.499V64.6094H126.514V68H125.693V60.6035H126.514V63.9189H130.499V60.6035H131.319V68ZM138.374 60.6035H139.194V68H138.374V61.9229L134.382 68H133.568V60.6035H134.382V66.6875L138.374 60.6035ZM143.398 64.6094H142.264V68H141.437V60.6035H142.264V63.8848H143.385L146.099 60.6035H147.131L144.096 64.1924L147.466 68H146.386L143.398 64.6094ZM151.403 68.1367C150.774 68.1367 150.205 67.9818 149.694 67.6719C149.188 67.362 148.794 66.9313 148.512 66.3799C148.229 65.8239 148.088 65.2018 148.088 64.5137V64.2197C148.088 63.5088 148.225 62.8685 148.498 62.2988C148.776 61.7292 149.161 61.2826 149.653 60.959C150.146 60.6309 150.679 60.4668 151.253 60.4668C152.151 60.4668 152.862 60.7744 153.386 61.3896C153.914 62.0003 154.179 62.8366 154.179 63.8984V64.3564H148.901V64.5137C148.901 65.3522 149.141 66.0518 149.619 66.6123C150.102 67.1683 150.708 67.4463 151.438 67.4463C151.875 67.4463 152.26 67.3665 152.593 67.207C152.93 67.0475 153.235 66.7923 153.509 66.4414L154.021 66.8311C153.42 67.7015 152.547 68.1367 151.403 68.1367ZM151.253 61.1641C150.638 61.1641 150.118 61.3896 149.694 61.8408C149.275 62.292 149.02 62.8981 148.929 63.6592H153.365V63.5703C153.342 62.8594 153.14 62.2806 152.757 61.834C152.374 61.3874 151.873 61.1641 151.253 61.1641ZM161.91 67.4463C162.48 67.4463 162.956 67.2868 163.339 66.9678C163.726 66.6442 163.936 66.2272 163.968 65.7168H164.754C164.731 66.168 164.59 66.5804 164.33 66.9541C164.07 67.3232 163.724 67.6126 163.291 67.8223C162.863 68.0319 162.402 68.1367 161.91 68.1367C160.939 68.1367 160.169 67.7995 159.6 67.125C159.035 66.4505 158.752 65.5436 158.752 64.4043V64.1582C158.752 63.429 158.88 62.7842 159.135 62.2236C159.39 61.6631 159.755 61.2301 160.229 60.9248C160.707 60.6195 161.265 60.4668 161.903 60.4668C162.715 60.4668 163.382 60.7083 163.906 61.1914C164.435 61.6745 164.717 62.3102 164.754 63.0986H163.968C163.931 62.5199 163.722 62.0527 163.339 61.6973C162.961 61.3418 162.482 61.1641 161.903 61.1641C161.165 61.1641 160.591 61.4307 160.181 61.9639C159.775 62.4971 159.572 63.2445 159.572 64.2061V64.4453C159.572 65.3887 159.775 66.1247 160.181 66.6533C160.591 67.182 161.167 67.4463 161.91 67.4463ZM168.739 66.8242L170.899 60.6035H171.781L168.623 69.2578L168.459 69.6406C168.053 70.5384 167.427 70.9873 166.579 70.9873C166.383 70.9873 166.174 70.9554 165.95 70.8916L165.943 70.2148L166.367 70.2559C166.768 70.2559 167.092 70.1556 167.338 69.9551C167.589 69.7591 167.8 69.4196 167.974 68.9365L168.336 67.9385L165.547 60.6035H166.442L168.739 66.8242ZM173.887 60.6035V67.3096H177.182V60.6035H178.002V67.3096H181.256V60.6035H182.076V67.3096H182.965L182.903 70.1943H182.151V68H173.066V60.6035H173.887ZM187.237 68.1367C186.608 68.1367 186.039 67.9818 185.528 67.6719C185.022 67.362 184.628 66.9313 184.346 66.3799C184.063 65.8239 183.922 65.2018 183.922 64.5137V64.2197C183.922 63.5088 184.059 62.8685 184.332 62.2988C184.61 61.7292 184.995 61.2826 185.487 60.959C185.979 60.6309 186.513 60.4668 187.087 60.4668C187.985 60.4668 188.696 60.7744 189.22 61.3896C189.748 62.0003 190.013 62.8366 190.013 63.8984V64.3564H184.735V64.5137C184.735 65.3522 184.975 66.0518 185.453 66.6123C185.936 67.1683 186.542 67.4463 187.271 67.4463C187.709 67.4463 188.094 67.3665 188.427 67.207C188.764 67.0475 189.069 66.7923 189.343 66.4414L189.855 66.8311C189.254 67.7015 188.381 68.1367 187.237 68.1367ZM187.087 61.1641C186.472 61.1641 185.952 61.3896 185.528 61.8408C185.109 62.292 184.854 62.8981 184.763 63.6592H189.199V63.5703C189.176 62.8594 188.974 62.2806 188.591 61.834C188.208 61.3874 187.707 61.1641 187.087 61.1641ZM194.34 67.4463C194.91 67.4463 195.386 67.2868 195.769 66.9678C196.156 66.6442 196.366 66.2272 196.397 65.7168H197.184C197.161 66.168 197.02 66.5804 196.76 66.9541C196.5 67.3232 196.154 67.6126 195.721 67.8223C195.292 68.0319 194.832 68.1367 194.34 68.1367C193.369 68.1367 192.599 67.7995 192.029 67.125C191.464 66.4505 191.182 65.5436 191.182 64.4043V64.1582C191.182 63.429 191.309 62.7842 191.564 62.2236C191.82 61.6631 192.184 61.2301 192.658 60.9248C193.137 60.6195 193.695 60.4668 194.333 60.4668C195.144 60.4668 195.812 60.7083 196.336 61.1914C196.865 61.6745 197.147 62.3102 197.184 63.0986H196.397C196.361 62.5199 196.151 62.0527 195.769 61.6973C195.39 61.3418 194.912 61.1641 194.333 61.1641C193.595 61.1641 193.021 61.4307 192.61 61.9639C192.205 62.4971 192.002 63.2445 192.002 64.2061V64.4453C192.002 65.3887 192.205 66.1247 192.61 66.6533C193.021 67.182 193.597 67.4463 194.34 67.4463ZM204.136 61.3008H201.442V68H200.622V61.3008H198.031V60.6035H204.136V61.3008ZM205.571 68V60.6035H208.285C209.224 60.6035 209.944 60.7721 210.445 61.1094C210.947 61.4421 211.197 61.932 211.197 62.5791C211.197 62.9482 211.086 63.2786 210.862 63.5703C210.639 63.8574 210.313 64.0671 209.885 64.1992C210.368 64.2904 210.755 64.4977 211.047 64.8213C211.343 65.1449 211.491 65.5208 211.491 65.9492C211.491 66.6009 211.25 67.1068 210.767 67.4668C210.288 67.8223 209.609 68 208.729 68H205.571ZM206.385 64.5957V67.3164H208.757C209.372 67.3164 209.846 67.1979 210.179 66.9609C210.511 66.724 210.678 66.3822 210.678 65.9355C210.678 65.5254 210.511 65.1995 210.179 64.958C209.846 64.7165 209.372 64.5957 208.757 64.5957H206.385ZM206.385 63.9121H208.456C209.741 63.8939 210.384 63.4564 210.384 62.5996C210.384 62.1484 210.206 61.8203 209.851 61.6152C209.5 61.4056 208.978 61.3008 208.285 61.3008H206.385V63.9121ZM215.579 66.8242L217.739 60.6035H218.621L215.463 69.2578L215.299 69.6406C214.893 70.5384 214.267 70.9873 213.419 70.9873C213.223 70.9873 213.013 70.9554 212.79 70.8916L212.783 70.2148L213.207 70.2559C213.608 70.2559 213.932 70.1556 214.178 69.9551C214.428 69.7591 214.64 69.4196 214.813 68.9365L215.176 67.9385L212.387 60.6035H213.282L215.579 66.8242ZM222.661 68.1367C222.032 68.1367 221.463 67.9818 220.952 67.6719C220.446 67.362 220.052 66.9313 219.77 66.3799C219.487 65.8239 219.346 65.2018 219.346 64.5137V64.2197C219.346 63.5088 219.482 62.8685 219.756 62.2988C220.034 61.7292 220.419 61.2826 220.911 60.959C221.403 60.6309 221.937 60.4668 222.511 60.4668C223.409 60.4668 224.119 60.7744 224.644 61.3896C225.172 62.0003 225.437 62.8366 225.437 63.8984V64.3564H220.159V64.5137C220.159 65.3522 220.398 66.0518 220.877 66.6123C221.36 67.1683 221.966 67.4463 222.695 67.4463C223.133 67.4463 223.518 67.3665 223.851 67.207C224.188 67.0475 224.493 66.7923 224.767 66.4414L225.279 66.8311C224.678 67.7015 223.805 68.1367 222.661 68.1367ZM222.511 61.1641C221.896 61.1641 221.376 61.3896 220.952 61.8408C220.533 62.292 220.278 62.8981 220.187 63.6592H224.623V63.5703C224.6 62.8594 224.397 62.2806 224.015 61.834C223.632 61.3874 223.131 61.1641 222.511 61.1641ZM232.259 61.3008H229.565V68H228.745V61.3008H226.154V60.6035H232.259V61.3008ZM25.8955 86.3096L26.2578 85.8379C26.832 85.0586 27.1624 83.9193 27.249 82.4199L27.3789 79.6035H31.7471V86.3096H32.5127V89.1738H31.6992V87H26.1416V89.1738H25.3555L25.3623 86.3096H25.8955ZM26.8389 86.3096H30.9268V80.3691H28.1582L28.0693 82.29C27.9873 84.0537 27.5771 85.3936 26.8389 86.3096ZM34.1807 87V79.6035H36.8945C37.8333 79.6035 38.5534 79.7721 39.0547 80.1094C39.556 80.4421 39.8066 80.932 39.8066 81.5791C39.8066 81.9482 39.695 82.2786 39.4717 82.5703C39.2484 82.8574 38.9225 83.0671 38.4941 83.1992C38.9772 83.2904 39.3646 83.4977 39.6562 83.8213C39.9525 84.1449 40.1006 84.5208 40.1006 84.9492C40.1006 85.6009 39.859 86.1068 39.376 86.4668C38.8975 86.8223 38.2184 87 37.3389 87H34.1807ZM34.9941 83.5957V86.3164H37.3662C37.9814 86.3164 38.4554 86.1979 38.7881 85.9609C39.1208 85.724 39.2871 85.3822 39.2871 84.9355C39.2871 84.5254 39.1208 84.1995 38.7881 83.958C38.4554 83.7165 37.9814 83.5957 37.3662 83.5957H34.9941ZM34.9941 82.9121H37.0654C38.3506 82.8939 38.9932 82.4564 38.9932 81.5996C38.9932 81.1484 38.8154 80.8203 38.46 80.6152C38.109 80.4056 37.5872 80.3008 36.8945 80.3008H34.9941V82.9121ZM46.5947 87C46.5127 86.7676 46.4603 86.4235 46.4375 85.9678C46.1504 86.3415 45.7835 86.6309 45.3369 86.8359C44.8949 87.0365 44.4255 87.1367 43.9287 87.1367C43.2178 87.1367 42.6413 86.9385 42.1992 86.542C41.7617 86.1455 41.543 85.6442 41.543 85.0381C41.543 84.318 41.8415 83.7484 42.4385 83.3291C43.04 82.9098 43.8763 82.7002 44.9473 82.7002H46.4307V81.8594C46.4307 81.3307 46.2666 80.916 45.9385 80.6152C45.6149 80.3099 45.141 80.1572 44.5166 80.1572C43.9469 80.1572 43.4753 80.3031 43.1016 80.5947C42.7279 80.8864 42.541 81.2373 42.541 81.6475L41.7207 81.6406C41.7207 81.0527 41.9941 80.5446 42.541 80.1162C43.0879 79.6833 43.7601 79.4668 44.5576 79.4668C45.3825 79.4668 46.0319 79.6742 46.5059 80.0889C46.9844 80.499 47.2305 81.0732 47.2441 81.8115V85.3115C47.2441 86.027 47.3193 86.5625 47.4697 86.918V87H46.5947ZM44.0244 86.4121C44.5713 86.4121 45.0589 86.2799 45.4873 86.0156C45.9202 85.7513 46.2347 85.3981 46.4307 84.9561V83.3291H44.9678C44.152 83.3382 43.514 83.4886 43.0537 83.7803C42.5934 84.0674 42.3633 84.4639 42.3633 84.9697C42.3633 85.3844 42.516 85.7285 42.8213 86.002C43.1312 86.2754 43.5322 86.4121 44.0244 86.4121ZM58.5166 87H57.6963V80.3076H53.7109V87H52.8906V79.6035H58.5166V87ZM60.2598 83.1924C60.2598 82.4814 60.3965 81.8411 60.6699 81.2715C60.9479 80.7018 61.3376 80.2598 61.8389 79.9453C62.3447 79.6263 62.9167 79.4668 63.5547 79.4668C64.5391 79.4668 65.3366 79.8132 65.9473 80.5059C66.5579 81.194 66.8633 82.1077 66.8633 83.2471V83.418C66.8633 84.1335 66.7243 84.7783 66.4463 85.3525C66.1729 85.9222 65.7855 86.362 65.2842 86.6719C64.7829 86.9818 64.2109 87.1367 63.5684 87.1367C62.5885 87.1367 61.791 86.7926 61.1758 86.1045C60.5651 85.4118 60.2598 84.4958 60.2598 83.3564V83.1924ZM61.0801 83.418C61.0801 84.3021 61.3079 85.029 61.7637 85.5986C62.224 86.1637 62.8255 86.4463 63.5684 86.4463C64.3066 86.4463 64.9036 86.1637 65.3594 85.5986C65.8197 85.029 66.0498 84.2793 66.0498 83.3496V83.1924C66.0498 82.6273 65.945 82.11 65.7354 81.6406C65.5257 81.1712 65.2318 80.8089 64.8535 80.5537C64.4753 80.2939 64.0423 80.1641 63.5547 80.1641C62.8255 80.1641 62.2308 80.4512 61.7705 81.0254C61.3102 81.5951 61.0801 82.3424 61.0801 83.2676V83.418ZM67.8955 86.3096L68.2578 85.8379C68.832 85.0586 69.1624 83.9193 69.249 82.4199L69.3789 79.6035H73.7471V86.3096H74.5127V89.1738H73.6992V87H68.1416V89.1738H67.3555L67.3623 86.3096H67.8955ZM68.8389 86.3096H72.9268V80.3691H70.1582L70.0693 82.29C69.9873 84.0537 69.5771 85.3936 68.8389 86.3096ZM78.416 82.6045L80.4121 79.6035H81.3828L78.874 83.2334L81.4922 87H80.5283L78.4229 83.8691L76.3174 87H75.3535L77.9648 83.2334L75.4561 79.6035H76.4199L78.416 82.6045ZM82.3125 83.1924C82.3125 82.4814 82.4492 81.8411 82.7227 81.2715C83.0007 80.7018 83.3903 80.2598 83.8916 79.9453C84.3975 79.6263 84.9694 79.4668 85.6074 79.4668C86.5918 79.4668 87.3893 79.8132 88 80.5059C88.6107 81.194 88.916 82.1077 88.916 83.2471V83.418C88.916 84.1335 88.777 84.7783 88.499 85.3525C88.2256 85.9222 87.8382 86.362 87.3369 86.6719C86.8356 86.9818 86.2637 87.1367 85.6211 87.1367C84.6413 87.1367 83.8438 86.7926 83.2285 86.1045C82.6178 85.4118 82.3125 84.4958 82.3125 83.3564V83.1924ZM83.1328 83.418C83.1328 84.3021 83.3607 85.029 83.8164 85.5986C84.2767 86.1637 84.8783 86.4463 85.6211 86.4463C86.3594 86.4463 86.9564 86.1637 87.4121 85.5986C87.8724 85.029 88.1025 84.2793 88.1025 83.3496V83.1924C88.1025 82.6273 87.9977 82.11 87.7881 81.6406C87.5785 81.1712 87.2845 80.8089 86.9062 80.5537C86.528 80.2939 86.0951 80.1641 85.6074 80.1641C84.8783 80.1641 84.2835 80.4512 83.8232 81.0254C83.363 81.5951 83.1328 82.3424 83.1328 83.2676V83.418ZM89.9482 86.3096L90.3105 85.8379C90.8848 85.0586 91.2152 83.9193 91.3018 82.4199L91.4316 79.6035H95.7998V86.3096H96.5654V89.1738H95.752V87H90.1943V89.1738H89.4082L89.415 86.3096H89.9482ZM90.8916 86.3096H94.9795V80.3691H92.2109L92.1221 82.29C92.04 84.0537 91.6299 85.3936 90.8916 86.3096ZM102.813 87C102.731 86.7676 102.679 86.4235 102.656 85.9678C102.369 86.3415 102.002 86.6309 101.556 86.8359C101.114 87.0365 100.644 87.1367 100.147 87.1367C99.4365 87.1367 98.86 86.9385 98.418 86.542C97.9805 86.1455 97.7617 85.6442 97.7617 85.0381C97.7617 84.318 98.0602 83.7484 98.6572 83.3291C99.2588 82.9098 100.095 82.7002 101.166 82.7002H102.649V81.8594C102.649 81.3307 102.485 80.916 102.157 80.6152C101.834 80.3099 101.36 80.1572 100.735 80.1572C100.166 80.1572 99.694 80.3031 99.3203 80.5947C98.9466 80.8864 98.7598 81.2373 98.7598 81.6475L97.9395 81.6406C97.9395 81.0527 98.2129 80.5446 98.7598 80.1162C99.3066 79.6833 99.9788 79.4668 100.776 79.4668C101.601 79.4668 102.251 79.6742 102.725 80.0889C103.203 80.499 103.449 81.0732 103.463 81.8115V85.3115C103.463 86.027 103.538 86.5625 103.688 86.918V87H102.813ZM100.243 86.4121C100.79 86.4121 101.278 86.2799 101.706 86.0156C102.139 85.7513 102.453 85.3981 102.649 84.9561V83.3291H101.187C100.371 83.3382 99.7327 83.4886 99.2725 83.7803C98.8122 84.0674 98.582 84.4639 98.582 84.9697C98.582 85.3844 98.7347 85.7285 99.04 86.002C99.3499 86.2754 99.751 86.4121 100.243 86.4121ZM105.452 86.5078C105.452 86.3483 105.502 86.2139 105.603 86.1045C105.707 85.9906 105.851 85.9336 106.033 85.9336C106.215 85.9336 106.359 85.9906 106.464 86.1045C106.569 86.2139 106.621 86.3483 106.621 86.5078C106.621 86.6673 106.569 86.7995 106.464 86.9043C106.359 87.0046 106.215 87.0547 106.033 87.0547C105.851 87.0547 105.707 87.0046 105.603 86.9043C105.502 86.7995 105.452 86.6673 105.452 86.5078ZM105.466 80.1982C105.466 80.0387 105.516 79.9043 105.616 79.7949C105.721 79.681 105.865 79.624 106.047 79.624C106.229 79.624 106.373 79.681 106.478 79.7949C106.582 79.9043 106.635 80.0387 106.635 80.1982C106.635 80.3577 106.582 80.4899 106.478 80.5947C106.373 80.695 106.229 80.7451 106.047 80.7451C105.865 80.7451 105.721 80.695 105.616 80.5947C105.516 80.4899 105.466 80.3577 105.466 80.1982ZM117.675 87H116.854V83.6094H112.869V87H112.049V79.6035H112.869V82.9189H116.854V79.6035H117.675V87ZM124.538 87C124.456 86.7676 124.404 86.4235 124.381 85.9678C124.094 86.3415 123.727 86.6309 123.28 86.8359C122.838 87.0365 122.369 87.1367 121.872 87.1367C121.161 87.1367 120.585 86.9385 120.143 86.542C119.705 86.1455 119.486 85.6442 119.486 85.0381C119.486 84.318 119.785 83.7484 120.382 83.3291C120.983 82.9098 121.82 82.7002 122.891 82.7002H124.374V81.8594C124.374 81.3307 124.21 80.916 123.882 80.6152C123.558 80.3099 123.084 80.1572 122.46 80.1572C121.89 80.1572 121.419 80.3031 121.045 80.5947C120.671 80.8864 120.484 81.2373 120.484 81.6475L119.664 81.6406C119.664 81.0527 119.938 80.5446 120.484 80.1162C121.031 79.6833 121.703 79.4668 122.501 79.4668C123.326 79.4668 123.975 79.6742 124.449 80.0889C124.928 80.499 125.174 81.0732 125.188 81.8115V85.3115C125.188 86.027 125.263 86.5625 125.413 86.918V87H124.538ZM121.968 86.4121C122.515 86.4121 123.002 86.2799 123.431 86.0156C123.864 85.7513 124.178 85.3981 124.374 84.9561V83.3291H122.911C122.095 83.3382 121.457 83.4886 120.997 83.7803C120.537 84.0674 120.307 84.4639 120.307 84.9697C120.307 85.3844 120.459 85.7285 120.765 86.002C121.075 86.2754 121.476 86.4121 121.968 86.4121ZM132.577 80.3008H129.884V87H129.063V80.3008H126.473V79.6035H132.577V80.3008ZM136.351 85.8242L138.511 79.6035H139.393L136.234 88.2578L136.07 88.6406C135.665 89.5384 135.038 89.9873 134.19 89.9873C133.994 89.9873 133.785 89.9554 133.562 89.8916L133.555 89.2148L133.979 89.2559C134.38 89.2559 134.703 89.1556 134.949 88.9551C135.2 88.7591 135.412 88.4196 135.585 87.9365L135.947 86.9385L133.158 79.6035H134.054L136.351 85.8242ZM146.611 83.377C146.611 84.5299 146.356 85.446 145.846 86.125C145.335 86.7995 144.652 87.1367 143.795 87.1367C142.783 87.1367 142.008 86.7812 141.471 86.0703V89.8438H140.657V79.6035H141.416L141.457 80.6494C141.99 79.861 142.763 79.4668 143.774 79.4668C144.659 79.4668 145.351 79.8018 145.853 80.4717C146.358 81.1416 146.611 82.0713 146.611 83.2607V83.377ZM145.791 83.2334C145.791 82.29 145.597 81.5449 145.21 80.998C144.823 80.4512 144.283 80.1777 143.59 80.1777C143.089 80.1777 142.658 80.2985 142.298 80.54C141.938 80.7816 141.662 81.1325 141.471 81.5928V85.1406C141.667 85.5645 141.947 85.888 142.312 86.1113C142.676 86.3346 143.107 86.4463 143.604 86.4463C144.292 86.4463 144.827 86.1729 145.21 85.626C145.597 85.0745 145.791 84.277 145.791 83.2334ZM153.099 87C153.017 86.7676 152.964 86.4235 152.941 85.9678C152.654 86.3415 152.287 86.6309 151.841 86.8359C151.399 87.0365 150.929 87.1367 150.433 87.1367C149.722 87.1367 149.145 86.9385 148.703 86.542C148.266 86.1455 148.047 85.6442 148.047 85.0381C148.047 84.318 148.345 83.7484 148.942 83.3291C149.544 82.9098 150.38 82.7002 151.451 82.7002H152.935V81.8594C152.935 81.3307 152.771 80.916 152.442 80.6152C152.119 80.3099 151.645 80.1572 151.021 80.1572C150.451 80.1572 149.979 80.3031 149.605 80.5947C149.232 80.8864 149.045 81.2373 149.045 81.6475L148.225 81.6406C148.225 81.0527 148.498 80.5446 149.045 80.1162C149.592 79.6833 150.264 79.4668 151.062 79.4668C151.886 79.4668 152.536 79.6742 153.01 80.0889C153.488 80.499 153.734 81.0732 153.748 81.8115V85.3115C153.748 86.027 153.823 86.5625 153.974 86.918V87H153.099ZM150.528 86.4121C151.075 86.4121 151.563 86.2799 151.991 86.0156C152.424 85.7513 152.739 85.3981 152.935 84.9561V83.3291H151.472C150.656 83.3382 150.018 83.4886 149.558 83.7803C149.097 84.0674 148.867 84.4639 148.867 84.9697C148.867 85.3844 149.02 85.7285 149.325 86.002C149.635 86.2754 150.036 86.4121 150.528 86.4121ZM161.623 79.6035V87H160.803V80.3076H157.774L157.645 83.0762C157.59 84.1016 157.487 84.8854 157.337 85.4277C157.187 85.9655 156.963 86.362 156.667 86.6172C156.371 86.8724 155.977 87 155.484 87H155.17V86.2754L155.423 86.2617C155.892 86.2526 156.229 86.0247 156.435 85.5781C156.64 85.1315 156.774 84.334 156.838 83.1855L156.988 79.6035H161.623ZM164.727 82.29H166.859C167.406 82.29 167.885 82.3903 168.295 82.5908C168.71 82.7868 169.022 83.0602 169.231 83.4111C169.446 83.762 169.553 84.1699 169.553 84.6348C169.553 85.3503 169.307 85.9245 168.814 86.3574C168.327 86.7858 167.666 87 166.832 87H163.913V79.6035H164.727V82.29ZM164.727 82.9873V86.3096H166.846C167.434 86.3096 167.894 86.1615 168.227 85.8652C168.564 85.569 168.732 85.1634 168.732 84.6484C168.732 84.1562 168.568 83.7598 168.24 83.459C167.917 83.1536 167.472 82.9964 166.907 82.9873H164.727ZM176.997 87H176.177V83.6094H172.191V87H171.371V79.6035H172.191V82.9189H176.177V79.6035H176.997V87ZM178.74 83.1924C178.74 82.4814 178.877 81.8411 179.15 81.2715C179.428 80.7018 179.818 80.2598 180.319 79.9453C180.825 79.6263 181.397 79.4668 182.035 79.4668C183.02 79.4668 183.817 79.8132 184.428 80.5059C185.038 81.194 185.344 82.1077 185.344 83.2471V83.418C185.344 84.1335 185.205 84.7783 184.927 85.3525C184.653 85.9222 184.266 86.362 183.765 86.6719C183.263 86.9818 182.691 87.1367 182.049 87.1367C181.069 87.1367 180.271 86.7926 179.656 86.1045C179.046 85.4118 178.74 84.4958 178.74 83.3564V83.1924ZM179.561 83.418C179.561 84.3021 179.788 85.029 180.244 85.5986C180.704 86.1637 181.306 86.4463 182.049 86.4463C182.787 86.4463 183.384 86.1637 183.84 85.5986C184.3 85.029 184.53 84.2793 184.53 83.3496V83.1924C184.53 82.6273 184.425 82.11 184.216 81.6406C184.006 81.1712 183.712 80.8089 183.334 80.5537C182.956 80.2939 182.523 80.1641 182.035 80.1641C181.306 80.1641 180.711 80.4512 180.251 81.0254C179.791 81.5951 179.561 82.3424 179.561 83.2676V83.418ZM189.903 87.1367C189.274 87.1367 188.705 86.9818 188.194 86.6719C187.688 86.362 187.294 85.9313 187.012 85.3799C186.729 84.8239 186.588 84.2018 186.588 83.5137V83.2197C186.588 82.5088 186.725 81.8685 186.998 81.2988C187.276 80.7292 187.661 80.2826 188.153 79.959C188.646 79.6309 189.179 79.4668 189.753 79.4668C190.651 79.4668 191.362 79.7744 191.886 80.3896C192.414 81.0003 192.679 81.8366 192.679 82.8984V83.3564H187.401V83.5137C187.401 84.3522 187.641 85.0518 188.119 85.6123C188.602 86.1683 189.208 86.4463 189.938 86.4463C190.375 86.4463 190.76 86.3665 191.093 86.207C191.43 86.0475 191.735 85.7923 192.009 85.4414L192.521 85.8311C191.92 86.7015 191.047 87.1367 189.903 87.1367ZM189.753 80.1641C189.138 80.1641 188.618 80.3896 188.194 80.8408C187.775 81.292 187.52 81.8981 187.429 82.6592H191.865V82.5703C191.842 81.8594 191.64 81.2806 191.257 80.834C190.874 80.3874 190.373 80.1641 189.753 80.1641ZM31.7471 107H30.9268V100.308H26.9414V107H26.1211V99.6035H31.7471V107ZM38.8018 99.6035H39.6221V107H38.8018V100.923L34.8096 107H33.9961V99.6035H34.8096V105.688L38.8018 99.6035ZM47.1279 100.301H44.4346V107H43.6143V100.301H41.0234V99.6035H47.1279V100.301ZM53.0342 107C52.9521 106.768 52.8997 106.424 52.877 105.968C52.5898 106.341 52.223 106.631 51.7764 106.836C51.3343 107.036 50.8649 107.137 50.3682 107.137C49.6572 107.137 49.0807 106.938 48.6387 106.542C48.2012 106.146 47.9824 105.644 47.9824 105.038C47.9824 104.318 48.2809 103.748 48.8779 103.329C49.4795 102.91 50.3158 102.7 51.3867 102.7H52.8701V101.859C52.8701 101.331 52.7061 100.916 52.3779 100.615C52.0544 100.31 51.5804 100.157 50.9561 100.157C50.3864 100.157 49.9147 100.303 49.541 100.595C49.1673 100.886 48.9805 101.237 48.9805 101.647L48.1602 101.641C48.1602 101.053 48.4336 100.545 48.9805 100.116C49.5273 99.6833 50.1995 99.4668 50.9971 99.4668C51.8219 99.4668 52.4714 99.6742 52.9453 100.089C53.4238 100.499 53.6699 101.073 53.6836 101.812V105.312C53.6836 106.027 53.7588 106.562 53.9092 106.918V107H53.0342ZM50.4639 106.412C51.0107 106.412 51.4984 106.28 51.9268 106.016C52.3597 105.751 52.6742 105.398 52.8701 104.956V103.329H51.4072C50.5915 103.338 49.9535 103.489 49.4932 103.78C49.0329 104.067 48.8027 104.464 48.8027 104.97C48.8027 105.384 48.9554 105.729 49.2607 106.002C49.5706 106.275 49.9717 106.412 50.4639 106.412ZM61.5518 107H60.7314V103.609H56.7461V107H55.9258V99.6035H56.7461V102.919H60.7314V99.6035H61.5518V107ZM68.6064 99.6035H69.4268V107H68.6064V100.923L64.6143 107H63.8008V99.6035H64.6143V105.688L68.6064 99.6035ZM74.4854 107.137C73.8564 107.137 73.2868 106.982 72.7764 106.672C72.2705 106.362 71.8763 105.931 71.5938 105.38C71.3112 104.824 71.1699 104.202 71.1699 103.514V103.22C71.1699 102.509 71.3066 101.868 71.5801 101.299C71.8581 100.729 72.2432 100.283 72.7354 99.959C73.2275 99.6309 73.7607 99.4668 74.335 99.4668C75.2327 99.4668 75.9437 99.7744 76.4678 100.39C76.9964 101 77.2607 101.837 77.2607 102.898V103.356H71.9834V103.514C71.9834 104.352 72.2227 105.052 72.7012 105.612C73.1842 106.168 73.7904 106.446 74.5195 106.446C74.957 106.446 75.3421 106.367 75.6748 106.207C76.012 106.048 76.3174 105.792 76.5908 105.441L77.1035 105.831C76.502 106.701 75.6292 107.137 74.4854 107.137ZM74.335 100.164C73.7197 100.164 73.2002 100.39 72.7764 100.841C72.3571 101.292 72.1019 101.898 72.0107 102.659H76.4473V102.57C76.4245 101.859 76.2217 101.281 75.8389 100.834C75.4561 100.387 74.9548 100.164 74.335 100.164ZM87.1182 99.6035H87.9385V107H87.1182V100.923L83.126 107H82.3125V99.6035H83.126V105.688L87.1182 99.6035ZM99.2178 107H98.3975V100.308H94.4121V107H93.5918V99.6035H99.2178V107ZM106.272 99.6035H107.093V107H106.272V100.923L102.28 107H101.467V99.6035H102.28V105.688L106.272 99.6035ZM114.599 100.301H111.905V107H111.085V100.301H108.494V99.6035H114.599V100.301ZM120.505 107C120.423 106.768 120.37 106.424 120.348 105.968C120.061 106.341 119.694 106.631 119.247 106.836C118.805 107.036 118.336 107.137 117.839 107.137C117.128 107.137 116.551 106.938 116.109 106.542C115.672 106.146 115.453 105.644 115.453 105.038C115.453 104.318 115.752 103.748 116.349 103.329C116.95 102.91 117.786 102.7 118.857 102.7H120.341V101.859C120.341 101.331 120.177 100.916 119.849 100.615C119.525 100.31 119.051 100.157 118.427 100.157C117.857 100.157 117.385 100.303 117.012 100.595C116.638 100.886 116.451 101.237 116.451 101.647L115.631 101.641C115.631 101.053 115.904 100.545 116.451 100.116C116.998 99.6833 117.67 99.4668 118.468 99.4668C119.293 99.4668 119.942 99.6742 120.416 100.089C120.895 100.499 121.141 101.073 121.154 101.812V105.312C121.154 106.027 121.229 106.562 121.38 106.918V107H120.505ZM117.935 106.412C118.481 106.412 118.969 106.28 119.397 106.016C119.83 105.751 120.145 105.398 120.341 104.956V103.329H118.878C118.062 103.338 117.424 103.489 116.964 103.78C116.504 104.067 116.273 104.464 116.273 104.97C116.273 105.384 116.426 105.729 116.731 106.002C117.041 106.275 117.442 106.412 117.935 106.412ZM129.022 107H128.202V103.609H124.217V107H123.396V99.6035H124.217V102.919H128.202V99.6035H129.022V107ZM136.077 99.6035H136.897V107H136.077V100.923L132.085 107H131.271V99.6035H132.085V105.688L136.077 99.6035ZM141.956 107.137C141.327 107.137 140.757 106.982 140.247 106.672C139.741 106.362 139.347 105.931 139.064 105.38C138.782 104.824 138.641 104.202 138.641 103.514V103.22C138.641 102.509 138.777 101.868 139.051 101.299C139.329 100.729 139.714 100.283 140.206 99.959C140.698 99.6309 141.231 99.4668 141.806 99.4668C142.703 99.4668 143.414 99.7744 143.938 100.39C144.467 101 144.731 101.837 144.731 102.898V103.356H139.454V103.514C139.454 104.352 139.693 105.052 140.172 105.612C140.655 106.168 141.261 106.446 141.99 106.446C142.428 106.446 142.813 106.367 143.146 106.207C143.483 106.048 143.788 105.792 144.062 105.441L144.574 105.831C143.973 106.701 143.1 107.137 141.956 107.137ZM141.806 100.164C141.19 100.164 140.671 100.39 140.247 100.841C139.828 101.292 139.573 101.898 139.481 102.659H143.918V102.57C143.895 101.859 143.692 101.281 143.31 100.834C142.927 100.387 142.425 100.164 141.806 100.164ZM31.7471 126H30.9268V119.308H26.9414V126H26.1211V118.604H31.7471V126ZM39.8887 122.377C39.8887 123.53 39.6335 124.446 39.123 125.125C38.6126 125.799 37.929 126.137 37.0723 126.137C36.0605 126.137 35.2858 125.781 34.748 125.07V128.844H33.9346V118.604H34.6934L34.7344 119.649C35.2676 118.861 36.04 118.467 37.0518 118.467C37.9359 118.467 38.6286 118.802 39.1299 119.472C39.6357 120.142 39.8887 121.071 39.8887 122.261V122.377ZM39.0684 122.233C39.0684 121.29 38.8747 120.545 38.4873 119.998C38.0999 119.451 37.5599 119.178 36.8672 119.178C36.3659 119.178 35.9352 119.299 35.5752 119.54C35.2152 119.782 34.9395 120.132 34.748 120.593V124.141C34.944 124.564 35.2243 124.888 35.5889 125.111C35.9535 125.335 36.3841 125.446 36.8809 125.446C37.569 125.446 38.1045 125.173 38.4873 124.626C38.8747 124.075 39.0684 123.277 39.0684 122.233ZM41.2559 122.192C41.2559 121.481 41.3926 120.841 41.666 120.271C41.944 119.702 42.3337 119.26 42.835 118.945C43.3408 118.626 43.9128 118.467 44.5508 118.467C45.5352 118.467 46.3327 118.813 46.9434 119.506C47.554 120.194 47.8594 121.108 47.8594 122.247V122.418C47.8594 123.133 47.7204 123.778 47.4424 124.353C47.1689 124.922 46.7816 125.362 46.2803 125.672C45.779 125.982 45.207 126.137 44.5645 126.137C43.5846 126.137 42.7871 125.793 42.1719 125.104C41.5612 124.412 41.2559 123.496 41.2559 122.356V122.192ZM42.0762 122.418C42.0762 123.302 42.304 124.029 42.7598 124.599C43.2201 125.164 43.8216 125.446 44.5645 125.446C45.3027 125.446 45.8997 125.164 46.3555 124.599C46.8158 124.029 47.0459 123.279 47.0459 122.35V122.192C47.0459 121.627 46.9411 121.11 46.7314 120.641C46.5218 120.171 46.2279 119.809 45.8496 119.554C45.4714 119.294 45.0384 119.164 44.5508 119.164C43.8216 119.164 43.2269 119.451 42.7666 120.025C42.3063 120.595 42.0762 121.342 42.0762 122.268V122.418ZM53.6494 124.893L56.5889 118.604H57.6006V126H56.7803V119.93L53.9365 126H53.3555L50.457 119.793V126H49.6436V118.604H50.7168L53.6494 124.893ZM60.6973 121.29H62.8301C63.377 121.29 63.8555 121.39 64.2656 121.591C64.6803 121.787 64.9925 122.06 65.2021 122.411C65.4163 122.762 65.5234 123.17 65.5234 123.635C65.5234 124.35 65.2773 124.924 64.7852 125.357C64.2975 125.786 63.6367 126 62.8027 126H59.8838V118.604H60.6973V121.29ZM60.6973 121.987V125.31H62.8164C63.4043 125.31 63.8646 125.161 64.1973 124.865C64.5345 124.569 64.7031 124.163 64.7031 123.648C64.7031 123.156 64.5391 122.76 64.2109 122.459C63.8874 122.154 63.443 121.996 62.8779 121.987H60.6973ZM68.0322 126H67.2119V118.604H68.0322V126ZM71.1836 118.604V125.31H74.4717V118.604H75.292V125.31H78.5527V118.604H79.373V126H70.3633V118.604H71.1836ZM87.1113 118.604V126H86.291V119.308H83.2627L83.1328 122.076C83.0781 123.102 82.9756 123.885 82.8252 124.428C82.6748 124.965 82.4515 125.362 82.1553 125.617C81.859 125.872 81.4648 126 80.9727 126H80.6582V125.275L80.9111 125.262C81.3805 125.253 81.7178 125.025 81.9229 124.578C82.1279 124.132 82.2624 123.334 82.3262 122.186L82.4766 118.604H87.1113ZM92.1768 126.137C91.5479 126.137 90.9782 125.982 90.4678 125.672C89.9619 125.362 89.5677 124.931 89.2852 124.38C89.0026 123.824 88.8613 123.202 88.8613 122.514V122.22C88.8613 121.509 88.998 120.868 89.2715 120.299C89.5495 119.729 89.9346 119.283 90.4268 118.959C90.9189 118.631 91.4521 118.467 92.0264 118.467C92.9242 118.467 93.6351 118.774 94.1592 119.39C94.6878 120 94.9521 120.837 94.9521 121.898V122.356H89.6748V122.514C89.6748 123.352 89.9141 124.052 90.3926 124.612C90.8757 125.168 91.4818 125.446 92.2109 125.446C92.6484 125.446 93.0335 125.367 93.3662 125.207C93.7035 125.048 94.0088 124.792 94.2822 124.441L94.7949 124.831C94.1934 125.701 93.3206 126.137 92.1768 126.137ZM92.0264 119.164C91.4111 119.164 90.8916 119.39 90.4678 119.841C90.0485 120.292 89.7933 120.898 89.7021 121.659H94.1387V121.57C94.1159 120.859 93.9131 120.281 93.5303 119.834C93.1475 119.387 92.6462 119.164 92.0264 119.164ZM102.226 126H101.405V122.609H97.4199V126H96.5996V118.604H97.4199V121.919H101.405V118.604H102.226V126ZM110.101 126H109.28V122.609H105.295V126H104.475V118.604H105.295V121.919H109.28V118.604H110.101V126ZM113.197 121.29H115.33C115.877 121.29 116.355 121.39 116.766 121.591C117.18 121.787 117.493 122.06 117.702 122.411C117.916 122.762 118.023 123.17 118.023 123.635C118.023 124.35 117.777 124.924 117.285 125.357C116.798 125.786 116.137 126 115.303 126H112.384V118.604H113.197V121.29ZM113.197 121.987V125.31H115.316C115.904 125.31 116.365 125.161 116.697 124.865C117.035 124.569 117.203 124.163 117.203 123.648C117.203 123.156 117.039 122.76 116.711 122.459C116.387 122.154 115.943 121.996 115.378 121.987H113.197ZM120.532 126H119.712V118.604H120.532V126ZM126.903 124.893L129.843 118.604H130.854V126H130.034V119.93L127.19 126H126.609L123.711 119.793V126H122.897V118.604H123.971L126.903 124.893ZM137.909 118.604H138.729V126H137.909V119.923L133.917 126H133.104V118.604H133.917V124.688L137.909 118.604ZM146.338 122.609H145.203V126H144.376V118.604H145.203V121.885H146.324L149.038 118.604H150.07L147.035 122.192L150.405 126H149.325L146.338 122.609ZM150.986 122.192C150.986 121.481 151.123 120.841 151.396 120.271C151.674 119.702 152.064 119.26 152.565 118.945C153.071 118.626 153.643 118.467 154.281 118.467C155.266 118.467 156.063 118.813 156.674 119.506C157.285 120.194 157.59 121.108 157.59 122.247V122.418C157.59 123.133 157.451 123.778 157.173 124.353C156.899 124.922 156.512 125.362 156.011 125.672C155.509 125.982 154.938 126.137 154.295 126.137C153.315 126.137 152.518 125.793 151.902 125.104C151.292 124.412 150.986 123.496 150.986 122.356V122.192ZM151.807 122.418C151.807 123.302 152.035 124.029 152.49 124.599C152.951 125.164 153.552 125.446 154.295 125.446C155.033 125.446 155.63 125.164 156.086 124.599C156.546 124.029 156.776 123.279 156.776 122.35V122.192C156.776 121.627 156.672 121.11 156.462 120.641C156.252 120.171 155.958 119.809 155.58 119.554C155.202 119.294 154.769 119.164 154.281 119.164C153.552 119.164 152.957 119.451 152.497 120.025C152.037 120.595 151.807 121.342 151.807 122.268V122.418ZM165.232 122.377C165.232 123.53 164.977 124.446 164.467 125.125C163.956 125.799 163.273 126.137 162.416 126.137C161.404 126.137 160.63 125.781 160.092 125.07V128.844H159.278V118.604H160.037L160.078 119.649C160.611 118.861 161.384 118.467 162.396 118.467C163.28 118.467 163.972 118.802 164.474 119.472C164.979 120.142 165.232 121.071 165.232 122.261V122.377ZM164.412 122.233C164.412 121.29 164.218 120.545 163.831 119.998C163.444 119.451 162.904 119.178 162.211 119.178C161.71 119.178 161.279 119.299 160.919 119.54C160.559 119.782 160.283 120.132 160.092 120.593V124.141C160.288 124.564 160.568 124.888 160.933 125.111C161.297 125.335 161.728 125.446 162.225 125.446C162.913 125.446 163.448 125.173 163.831 124.626C164.218 124.075 164.412 123.277 164.412 122.233ZM171.146 124.893L174.085 118.604H175.097V126H174.276V119.93L171.433 126H170.852L167.953 119.793V126H167.14V118.604H168.213L171.146 124.893ZM181.96 126C181.878 125.768 181.826 125.424 181.803 124.968C181.516 125.341 181.149 125.631 180.702 125.836C180.26 126.036 179.791 126.137 179.294 126.137C178.583 126.137 178.007 125.938 177.564 125.542C177.127 125.146 176.908 124.644 176.908 124.038C176.908 123.318 177.207 122.748 177.804 122.329C178.405 121.91 179.242 121.7 180.312 121.7H181.796V120.859C181.796 120.331 181.632 119.916 181.304 119.615C180.98 119.31 180.506 119.157 179.882 119.157C179.312 119.157 178.84 119.303 178.467 119.595C178.093 119.886 177.906 120.237 177.906 120.647L177.086 120.641C177.086 120.053 177.359 119.545 177.906 119.116C178.453 118.683 179.125 118.467 179.923 118.467C180.748 118.467 181.397 118.674 181.871 119.089C182.35 119.499 182.596 120.073 182.609 120.812V124.312C182.609 125.027 182.685 125.562 182.835 125.918V126H181.96ZM179.39 125.412C179.937 125.412 180.424 125.28 180.853 125.016C181.285 124.751 181.6 124.398 181.796 123.956V122.329H180.333C179.517 122.338 178.879 122.489 178.419 122.78C177.959 123.067 177.729 123.464 177.729 123.97C177.729 124.384 177.881 124.729 178.187 125.002C178.496 125.275 178.897 125.412 179.39 125.412ZM188.892 124.893L191.831 118.604H192.843V126H192.022V119.93L189.179 126H188.598L185.699 119.793V126H184.886V118.604H185.959L188.892 124.893ZM199.897 118.604H200.718V126H199.897V119.923L195.905 126H195.092V118.604H195.905V124.688L199.897 118.604ZM202.741 127.859L202.256 127.504C202.671 126.948 202.885 126.371 202.898 125.774V124.715H203.698V125.569C203.698 126.517 203.379 127.281 202.741 127.859ZM31.7471 146H30.9268V142.609H26.9414V146H26.1211V138.604H26.9414V141.919H30.9268V138.604H31.7471V146ZM33.4902 142.192C33.4902 141.481 33.627 140.841 33.9004 140.271C34.1784 139.702 34.568 139.26 35.0693 138.945C35.5752 138.626 36.1471 138.467 36.7852 138.467C37.7695 138.467 38.5671 138.813 39.1777 139.506C39.7884 140.194 40.0938 141.108 40.0938 142.247V142.418C40.0938 143.133 39.9548 143.778 39.6768 144.353C39.4033 144.922 39.016 145.362 38.5146 145.672C38.0133 145.982 37.4414 146.137 36.7988 146.137C35.819 146.137 35.0215 145.793 34.4062 145.104C33.7956 144.412 33.4902 143.496 33.4902 142.356V142.192ZM34.3105 142.418C34.3105 143.302 34.5384 144.029 34.9941 144.599C35.4544 145.164 36.056 145.446 36.7988 145.446C37.5371 145.446 38.1341 145.164 38.5898 144.599C39.0501 144.029 39.2803 143.279 39.2803 142.35V142.192C39.2803 141.627 39.1755 141.11 38.9658 140.641C38.7562 140.171 38.4622 139.809 38.084 139.554C37.7057 139.294 37.2728 139.164 36.7852 139.164C36.056 139.164 35.4613 139.451 35.001 140.025C34.5407 140.595 34.3105 141.342 34.3105 142.268V142.418ZM45.2822 146V138.604H47.9961C48.9349 138.604 49.6549 138.772 50.1562 139.109C50.6576 139.442 50.9082 139.932 50.9082 140.579C50.9082 140.948 50.7965 141.279 50.5732 141.57C50.3499 141.857 50.0241 142.067 49.5957 142.199C50.0788 142.29 50.4661 142.498 50.7578 142.821C51.054 143.145 51.2021 143.521 51.2021 143.949C51.2021 144.601 50.9606 145.107 50.4775 145.467C49.999 145.822 49.32 146 48.4404 146H45.2822ZM46.0957 142.596V145.316H48.4678C49.083 145.316 49.557 145.198 49.8896 144.961C50.2223 144.724 50.3887 144.382 50.3887 143.936C50.3887 143.525 50.2223 143.2 49.8896 142.958C49.557 142.716 49.083 142.596 48.4678 142.596H46.0957ZM46.0957 141.912H48.167C49.4521 141.894 50.0947 141.456 50.0947 140.6C50.0947 140.148 49.917 139.82 49.5615 139.615C49.2106 139.406 48.6888 139.301 47.9961 139.301H46.0957V141.912ZM53.9297 141.29H56.0625C56.6094 141.29 57.0879 141.39 57.498 141.591C57.9128 141.787 58.2249 142.06 58.4346 142.411C58.6488 142.762 58.7559 143.17 58.7559 143.635C58.7559 144.35 58.5098 144.924 58.0176 145.357C57.5299 145.786 56.8691 146 56.0352 146H53.1162V138.604H53.9297V141.29ZM53.9297 141.987V145.31H56.0488C56.6367 145.31 57.097 145.161 57.4297 144.865C57.7669 144.569 57.9355 144.163 57.9355 143.648C57.9355 143.156 57.7715 142.76 57.4434 142.459C57.1198 142.154 56.6755 141.996 56.1104 141.987H53.9297ZM61.2646 146H60.4443V138.604H61.2646V146ZM66.5215 139.096C67.4603 139.096 68.2214 139.403 68.8047 140.019C69.388 140.629 69.6797 141.44 69.6797 142.452V142.63C69.6797 143.3 69.5452 143.904 69.2764 144.441C69.012 144.975 68.6292 145.392 68.1279 145.692C67.6312 145.989 67.0592 146.137 66.4121 146.137C65.4368 146.137 64.6462 145.813 64.04 145.166C63.4385 144.514 63.1377 143.646 63.1377 142.562V141.905C63.1377 140.374 63.4294 139.15 64.0127 138.234C64.596 137.318 65.4255 136.771 66.501 136.594C67.18 136.484 67.6562 136.336 67.9297 136.149C68.2077 135.963 68.3467 135.707 68.3467 135.384H69.0508C69.0508 135.767 68.971 136.083 68.8115 136.334C68.652 136.585 68.4128 136.787 68.0938 136.942C67.7747 137.093 67.2871 137.22 66.6309 137.325C65.8789 137.444 65.2728 137.765 64.8125 138.289C64.3568 138.809 64.0605 139.506 63.9238 140.381C64.2155 139.998 64.5801 139.688 65.0176 139.451C65.4596 139.214 65.9609 139.096 66.5215 139.096ZM63.958 142.459V142.63C63.958 143.464 64.1836 144.143 64.6348 144.667C65.0859 145.187 65.6784 145.446 66.4121 145.446C67.1504 145.446 67.7428 145.184 68.1895 144.66C68.6361 144.132 68.8594 143.439 68.8594 142.582V142.404C68.8594 141.634 68.6315 141.005 68.1758 140.518C67.7246 140.03 67.1322 139.786 66.3984 139.786C65.6647 139.786 65.0745 140.035 64.6279 140.531C64.1813 141.023 63.958 141.666 63.958 142.459ZM75.9893 138.604H76.8096V146H75.9893V139.923L71.9971 146H71.1836V138.604H71.9971V144.688L75.9893 138.604ZM84.9512 142.377C84.9512 143.53 84.696 144.446 84.1855 145.125C83.6751 145.799 82.9915 146.137 82.1348 146.137C81.123 146.137 80.3483 145.781 79.8105 145.07V148.844H78.9971V138.604H79.7559L79.7969 139.649C80.3301 138.861 81.1025 138.467 82.1143 138.467C82.9984 138.467 83.6911 138.802 84.1924 139.472C84.6982 140.142 84.9512 141.071 84.9512 142.261V142.377ZM84.1309 142.233C84.1309 141.29 83.9372 140.545 83.5498 139.998C83.1624 139.451 82.6224 139.178 81.9297 139.178C81.4284 139.178 80.9977 139.299 80.6377 139.54C80.2777 139.782 80.002 140.132 79.8105 140.593V144.141C80.0065 144.564 80.2868 144.888 80.6514 145.111C81.016 145.335 81.4466 145.446 81.9434 145.446C82.6315 145.446 83.167 145.173 83.5498 144.626C83.9372 144.075 84.1309 143.277 84.1309 142.233ZM91.4385 146C91.3564 145.768 91.304 145.424 91.2812 144.968C90.9941 145.341 90.6273 145.631 90.1807 145.836C89.7386 146.036 89.2692 146.137 88.7725 146.137C88.0615 146.137 87.485 145.938 87.043 145.542C86.6055 145.146 86.3867 144.644 86.3867 144.038C86.3867 143.318 86.6852 142.748 87.2822 142.329C87.8838 141.91 88.7201 141.7 89.791 141.7H91.2744V140.859C91.2744 140.331 91.1104 139.916 90.7822 139.615C90.4587 139.31 89.9847 139.157 89.3604 139.157C88.7907 139.157 88.319 139.303 87.9453 139.595C87.5716 139.886 87.3848 140.237 87.3848 140.647L86.5645 140.641C86.5645 140.053 86.8379 139.545 87.3848 139.116C87.9316 138.683 88.6038 138.467 89.4014 138.467C90.2262 138.467 90.8757 138.674 91.3496 139.089C91.8281 139.499 92.0742 140.073 92.0879 140.812V144.312C92.0879 145.027 92.1631 145.562 92.3135 145.918V146H91.4385ZM88.8682 145.412C89.415 145.412 89.9027 145.28 90.3311 145.016C90.764 144.751 91.0785 144.398 91.2744 143.956V142.329H89.8115C88.9958 142.338 88.3577 142.489 87.8975 142.78C87.4372 143.067 87.207 143.464 87.207 143.97C87.207 144.384 87.3597 144.729 87.665 145.002C87.9749 145.275 88.376 145.412 88.8682 145.412ZM99.4775 139.301H96.7842V146H95.9639V139.301H93.373V138.604H99.4775V139.301ZM101.727 141.29H103.859C104.406 141.29 104.885 141.39 105.295 141.591C105.71 141.787 106.022 142.06 106.231 142.411C106.446 142.762 106.553 143.17 106.553 143.635C106.553 144.35 106.307 144.924 105.814 145.357C105.327 145.786 104.666 146 103.832 146H100.913V138.604H101.727V141.29ZM101.727 141.987V145.31H103.846C104.434 145.31 104.894 145.161 105.227 144.865C105.564 144.569 105.732 144.163 105.732 143.648C105.732 143.156 105.568 142.76 105.24 142.459C104.917 142.154 104.472 141.996 103.907 141.987H101.727ZM117.032 139.301H114.339V146H113.519V139.301H110.928V138.604H117.032V139.301ZM117.641 142.192C117.641 141.481 117.777 140.841 118.051 140.271C118.329 139.702 118.718 139.26 119.22 138.945C119.726 138.626 120.298 138.467 120.936 138.467C121.92 138.467 122.717 138.813 123.328 139.506C123.939 140.194 124.244 141.108 124.244 142.247V142.418C124.244 143.133 124.105 143.778 123.827 144.353C123.554 144.922 123.166 145.362 122.665 145.672C122.164 145.982 121.592 146.137 120.949 146.137C119.969 146.137 119.172 145.793 118.557 145.104C117.946 144.412 117.641 143.496 117.641 142.356V142.192ZM118.461 142.418C118.461 143.302 118.689 144.029 119.145 144.599C119.605 145.164 120.206 145.446 120.949 145.446C121.688 145.446 122.285 145.164 122.74 144.599C123.201 144.029 123.431 143.279 123.431 142.35V142.192C123.431 141.627 123.326 141.11 123.116 140.641C122.907 140.171 122.613 139.809 122.234 139.554C121.856 139.294 121.423 139.164 120.936 139.164C120.206 139.164 119.612 139.451 119.151 140.025C118.691 140.595 118.461 141.342 118.461 142.268V142.418ZM131.518 138.604V146H130.697V139.308H127.669L127.539 142.076C127.484 143.102 127.382 143.885 127.231 144.428C127.081 144.965 126.858 145.362 126.562 145.617C126.265 145.872 125.871 146 125.379 146H125.064V145.275L125.317 145.262C125.787 145.253 126.124 145.025 126.329 144.578C126.534 144.132 126.669 143.334 126.732 142.186L126.883 138.604H131.518ZM134.621 141.29H136.754C137.301 141.29 137.779 141.39 138.189 141.591C138.604 141.787 138.916 142.06 139.126 142.411C139.34 142.762 139.447 143.17 139.447 143.635C139.447 144.35 139.201 144.924 138.709 145.357C138.221 145.786 137.561 146 136.727 146H133.808V138.604H134.621V141.29ZM134.621 141.987V145.31H136.74C137.328 145.31 137.788 145.161 138.121 144.865C138.458 144.569 138.627 144.163 138.627 143.648C138.627 143.156 138.463 142.76 138.135 142.459C137.811 142.154 137.367 141.996 136.802 141.987H134.621ZM143.221 142.609H142.086V146H141.259V138.604H142.086V141.885H143.207L145.921 138.604H146.953L143.918 142.192L147.288 146H146.208L143.221 142.609ZM147.869 142.192C147.869 141.481 148.006 140.841 148.279 140.271C148.557 139.702 148.947 139.26 149.448 138.945C149.954 138.626 150.526 138.467 151.164 138.467C152.148 138.467 152.946 138.813 153.557 139.506C154.167 140.194 154.473 141.108 154.473 142.247V142.418C154.473 143.133 154.334 143.778 154.056 144.353C153.782 144.922 153.395 145.362 152.894 145.672C152.392 145.982 151.82 146.137 151.178 146.137C150.198 146.137 149.4 145.793 148.785 145.104C148.174 144.412 147.869 143.496 147.869 142.356V142.192ZM148.689 142.418C148.689 143.302 148.917 144.029 149.373 144.599C149.833 145.164 150.435 145.446 151.178 145.446C151.916 145.446 152.513 145.164 152.969 144.599C153.429 144.029 153.659 143.279 153.659 142.35V142.192C153.659 141.627 153.554 141.11 153.345 140.641C153.135 140.171 152.841 139.809 152.463 139.554C152.085 139.294 151.652 139.164 151.164 139.164C150.435 139.164 149.84 139.451 149.38 140.025C148.92 140.595 148.689 141.342 148.689 142.268V142.418ZM159.661 146V138.604H162.375C163.314 138.604 164.034 138.772 164.535 139.109C165.036 139.442 165.287 139.932 165.287 140.579C165.287 140.948 165.175 141.279 164.952 141.57C164.729 141.857 164.403 142.067 163.975 142.199C164.458 142.29 164.845 142.498 165.137 142.821C165.433 143.145 165.581 143.521 165.581 143.949C165.581 144.601 165.34 145.107 164.856 145.467C164.378 145.822 163.699 146 162.819 146H159.661ZM160.475 142.596V145.316H162.847C163.462 145.316 163.936 145.198 164.269 144.961C164.601 144.724 164.768 144.382 164.768 143.936C164.768 143.525 164.601 143.2 164.269 142.958C163.936 142.716 163.462 142.596 162.847 142.596H160.475ZM160.475 141.912H162.546C163.831 141.894 164.474 141.456 164.474 140.6C164.474 140.148 164.296 139.82 163.94 139.615C163.59 139.406 163.068 139.301 162.375 139.301H160.475V141.912ZM172.075 146C171.993 145.768 171.941 145.424 171.918 144.968C171.631 145.341 171.264 145.631 170.817 145.836C170.375 146.036 169.906 146.137 169.409 146.137C168.698 146.137 168.122 145.938 167.68 145.542C167.242 145.146 167.023 144.644 167.023 144.038C167.023 143.318 167.322 142.748 167.919 142.329C168.521 141.91 169.357 141.7 170.428 141.7H171.911V140.859C171.911 140.331 171.747 139.916 171.419 139.615C171.095 139.31 170.621 139.157 169.997 139.157C169.427 139.157 168.956 139.303 168.582 139.595C168.208 139.886 168.021 140.237 168.021 140.647L167.201 140.641C167.201 140.053 167.475 139.545 168.021 139.116C168.568 138.683 169.241 138.467 170.038 138.467C170.863 138.467 171.512 138.674 171.986 139.089C172.465 139.499 172.711 140.073 172.725 140.812V144.312C172.725 145.027 172.8 145.562 172.95 145.918V146H172.075ZM169.505 145.412C170.052 145.412 170.539 145.28 170.968 145.016C171.401 144.751 171.715 144.398 171.911 143.956V142.329H170.448C169.632 142.338 168.994 142.489 168.534 142.78C168.074 143.067 167.844 143.464 167.844 143.97C167.844 144.384 167.996 144.729 168.302 145.002C168.612 145.275 169.013 145.412 169.505 145.412ZM179.007 144.893L181.946 138.604H182.958V146H182.138V139.93L179.294 146H178.713L175.814 139.793V146H175.001V138.604H176.074L179.007 144.893Z" fill="white"/>
<path d="M36.5664 38H33.9209V27.3389H28.7969V38H26.1602V25.2031H36.5664V38ZM44.4502 28.4902H46.9902V38H44.4502V32.1289L41.2686 38H38.7197V28.4902H41.2686V34.3525L44.4502 28.4902ZM56.8252 30.5293H53.7754V38H51.2266V30.5293H48.2295V28.4902H56.8252V30.5293ZM63.4785 38C63.3613 37.7715 63.2764 37.4873 63.2236 37.1475C62.6084 37.833 61.8086 38.1758 60.8242 38.1758C59.8926 38.1758 59.1191 37.9062 58.5039 37.3672C57.8945 36.8281 57.5898 36.1484 57.5898 35.3281C57.5898 34.3203 57.9619 33.5469 58.7061 33.0078C59.4561 32.4688 60.5371 32.1963 61.9492 32.1904H63.1182V31.6455C63.1182 31.2061 63.0039 30.8545 62.7754 30.5908C62.5527 30.3271 62.1982 30.1953 61.7119 30.1953C61.2842 30.1953 60.9473 30.2979 60.7012 30.5029C60.4609 30.708 60.3408 30.9893 60.3408 31.3467H57.8008C57.8008 30.7959 57.9707 30.2861 58.3105 29.8174C58.6504 29.3486 59.1309 28.9824 59.752 28.7188C60.373 28.4492 61.0703 28.3145 61.8438 28.3145C63.0156 28.3145 63.9443 28.6104 64.6299 29.2021C65.3213 29.7881 65.667 30.6143 65.667 31.6807V35.8027C65.6729 36.7051 65.7988 37.3877 66.0449 37.8506V38H63.4785ZM61.3779 36.2334C61.7529 36.2334 62.0986 36.1514 62.415 35.9873C62.7314 35.8174 62.9658 35.5918 63.1182 35.3105V33.6758H62.1689C60.8975 33.6758 60.2207 34.1152 60.1387 34.9941L60.1299 35.1436C60.1299 35.46 60.2412 35.7207 60.4639 35.9258C60.6865 36.1309 60.9912 36.2334 61.3779 36.2334ZM75.8623 38H73.3135V34.3438H70.1582V38H67.6182V28.4902H70.1582V32.3047H73.3135V28.4902H75.8623V38ZM83.5615 28.4902H86.1016V38H83.5615V32.1289L80.3799 38H77.8311V28.4902H80.3799V34.3525L83.5615 28.4902ZM92.4209 38.1758C91.0264 38.1758 89.8896 37.748 89.0107 36.8926C88.1377 36.0371 87.7012 34.8975 87.7012 33.4736V33.2275C87.7012 32.2725 87.8857 31.4199 88.2549 30.6699C88.624 29.9141 89.1455 29.334 89.8193 28.9297C90.499 28.5195 91.2725 28.3145 92.1396 28.3145C93.4404 28.3145 94.4629 28.7246 95.207 29.5449C95.957 30.3652 96.332 31.5283 96.332 33.0342V34.0713H90.2764C90.3584 34.6924 90.6045 35.1904 91.0146 35.5654C91.4307 35.9404 91.9551 36.1279 92.5879 36.1279C93.5664 36.1279 94.3311 35.7734 94.8818 35.0645L96.1299 36.4619C95.749 37.001 95.2334 37.4229 94.583 37.7275C93.9326 38.0264 93.2119 38.1758 92.4209 38.1758ZM92.1309 30.3711C91.627 30.3711 91.2168 30.541 90.9004 30.8809C90.5898 31.2207 90.3906 31.707 90.3027 32.3398H93.8359V32.1377C93.8242 31.5752 93.6719 31.1416 93.3789 30.8369C93.0859 30.5264 92.6699 30.3711 92.1309 30.3711Z" fill="#A07B50"/>
<rect x="244" width="46" height="171" fill="#A07B50"/>
<path d="M263 95L271 86L263 77" stroke="white" stroke-width="0.5"/>
</svg>
