<svg width="290" height="60" viewBox="0 0 290 60" fill="none" xmlns="http://www.w3.org/2000/svg">
<rect x="0.25" y="0.25" width="289.5" height="59.5" stroke="#A07B50" stroke-opacity="0.41" stroke-width="0.5"/>
<path d="M18.958 20.7344H17.7822V25H16.0596V15.0469H17.7822V19.2305H18.7324L21.6582 15.0469H23.7773L20.3594 19.8115L24.0781 25H22L18.958 20.7344ZM29.2939 25C29.221 24.8587 29.1572 24.6286 29.1025 24.3096C28.5739 24.861 27.9268 25.1367 27.1611 25.1367C26.4183 25.1367 25.8122 24.9248 25.3428 24.501C24.8734 24.0771 24.6387 23.5531 24.6387 22.9287C24.6387 22.1403 24.9303 21.5365 25.5137 21.1172C26.1016 20.6934 26.9401 20.4814 28.0293 20.4814H29.0479V19.9961C29.0479 19.6133 28.9408 19.3079 28.7266 19.0801C28.5124 18.8477 28.1865 18.7314 27.749 18.7314C27.3708 18.7314 27.0609 18.8271 26.8193 19.0186C26.5778 19.2054 26.457 19.4447 26.457 19.7363H24.7959C24.7959 19.3307 24.9303 18.9525 25.1992 18.6016C25.4681 18.2461 25.8327 17.9681 26.293 17.7676C26.7578 17.5671 27.2751 17.4668 27.8447 17.4668C28.7106 17.4668 29.401 17.6855 29.916 18.123C30.431 18.556 30.6953 19.1667 30.709 19.9551V23.291C30.709 23.9564 30.8024 24.4873 30.9893 24.8838V25H29.2939ZM27.4688 23.8037C27.7969 23.8037 28.1045 23.724 28.3916 23.5645C28.6833 23.4049 28.902 23.1908 29.0479 22.9219V21.5273H28.1523C27.5371 21.5273 27.0745 21.6344 26.7646 21.8486C26.4548 22.0628 26.2998 22.3659 26.2998 22.7578C26.2998 23.0768 26.4046 23.332 26.6143 23.5234C26.8285 23.7103 27.1133 23.8037 27.4688 23.8037ZM35.0771 22.0742H34.2363V25H32.5752V17.6035H34.2363V20.5566H34.9678L37.0117 17.6035H39.0625L36.3896 21.1445L39.2881 25H37.1279L35.0771 22.0742ZM49.959 25H48.2979V18.9434H45.4131V25H43.752V17.6035H49.959V25ZM51.415 21.2334C51.415 20.5088 51.5586 19.8571 51.8457 19.2783C52.1328 18.695 52.5361 18.2484 53.0557 17.9385C53.5752 17.624 54.1722 17.4668 54.8467 17.4668C55.8447 17.4668 56.6536 17.7881 57.2734 18.4307C57.8978 19.0732 58.235 19.9255 58.2852 20.9873L58.292 21.377C58.292 22.1061 58.1507 22.7578 57.8682 23.332C57.5902 23.9062 57.1891 24.3506 56.665 24.665C56.1455 24.9795 55.5439 25.1367 54.8604 25.1367C53.8167 25.1367 52.9805 24.7904 52.3516 24.0977C51.7272 23.4004 51.415 22.473 51.415 21.3154V21.2334ZM53.0762 21.377C53.0762 22.138 53.2334 22.735 53.5479 23.168C53.8623 23.5964 54.2998 23.8105 54.8604 23.8105C55.4209 23.8105 55.8561 23.5918 56.166 23.1543C56.4805 22.7168 56.6377 22.0765 56.6377 21.2334C56.6377 20.486 56.4759 19.8936 56.1523 19.4561C55.8333 19.0186 55.3981 18.7998 54.8467 18.7998C54.3044 18.7998 53.8737 19.0163 53.5547 19.4492C53.2357 19.8776 53.0762 20.5202 53.0762 21.377ZM59.2354 23.6738C59.6956 23.1589 60.0033 22.6712 60.1582 22.2109C60.3177 21.7461 60.4134 21.1536 60.4453 20.4336L60.541 17.6035H65.6748V23.6738H66.7002V27.2012H65.0459V25H60.3018V27.2012H58.6201L58.627 23.6738H59.2354ZM61.1836 23.6738H64.0205V19.0322H62.1543L62.1064 20.4473C62.0426 21.8053 61.735 22.8809 61.1836 23.6738ZM72.6885 18.9434H69.4756V25H67.8213V17.6035H72.6885V18.9434ZM73.1807 21.2334C73.1807 20.5088 73.3242 19.8571 73.6113 19.2783C73.8984 18.695 74.3018 18.2484 74.8213 17.9385C75.3408 17.624 75.9378 17.4668 76.6123 17.4668C77.6104 17.4668 78.4193 17.7881 79.0391 18.4307C79.6634 19.0732 80.0007 19.9255 80.0508 20.9873L80.0576 21.377C80.0576 22.1061 79.9163 22.7578 79.6338 23.332C79.3558 23.9062 78.9548 24.3506 78.4307 24.665C77.9111 24.9795 77.3096 25.1367 76.626 25.1367C75.5824 25.1367 74.7461 24.7904 74.1172 24.0977C73.4928 23.4004 73.1807 22.473 73.1807 21.3154V21.2334ZM74.8418 21.377C74.8418 22.138 74.999 22.735 75.3135 23.168C75.6279 23.5964 76.0654 23.8105 76.626 23.8105C77.1865 23.8105 77.6217 23.5918 77.9316 23.1543C78.2461 22.7168 78.4033 22.0765 78.4033 21.2334C78.4033 20.486 78.2415 19.8936 77.918 19.4561C77.599 19.0186 77.1637 18.7998 76.6123 18.7998C76.07 18.7998 75.6393 19.0163 75.3203 19.4492C75.0013 19.8776 74.8418 20.5202 74.8418 21.377ZM87.0781 18.9229H84.6787V25H83.0176V18.9229H80.6455V17.6035H87.0781V18.9229ZM87.6729 21.2334C87.6729 20.5088 87.8164 19.8571 88.1035 19.2783C88.3906 18.695 88.7939 18.2484 89.3135 17.9385C89.833 17.624 90.43 17.4668 91.1045 17.4668C92.1025 17.4668 92.9115 17.7881 93.5312 18.4307C94.1556 19.0732 94.4928 19.9255 94.543 20.9873L94.5498 21.377C94.5498 22.1061 94.4085 22.7578 94.126 23.332C93.848 23.9062 93.4469 24.3506 92.9229 24.665C92.4033 24.9795 91.8018 25.1367 91.1182 25.1367C90.0745 25.1367 89.2383 24.7904 88.6094 24.0977C87.985 23.4004 87.6729 22.473 87.6729 21.3154V21.2334ZM89.334 21.377C89.334 22.138 89.4912 22.735 89.8057 23.168C90.1201 23.5964 90.5576 23.8105 91.1182 23.8105C91.6787 23.8105 92.1139 23.5918 92.4238 23.1543C92.7383 22.7168 92.8955 22.0765 92.8955 21.2334C92.8955 20.486 92.7337 19.8936 92.4102 19.4561C92.0911 19.0186 91.6559 18.7998 91.1045 18.7998C90.5622 18.7998 90.1315 19.0163 89.8125 19.4492C89.4935 19.8776 89.334 20.5202 89.334 21.377ZM96.0811 25V17.6035H99.082C100.094 17.6035 100.864 17.7812 101.393 18.1367C101.921 18.4876 102.186 18.9935 102.186 19.6543C102.186 19.9961 102.078 20.3037 101.864 20.5771C101.655 20.846 101.342 21.0534 100.928 21.1992C101.411 21.2995 101.794 21.5023 102.076 21.8076C102.359 22.113 102.5 22.473 102.5 22.8877C102.5 23.5758 102.245 24.0999 101.734 24.46C101.229 24.82 100.499 25 99.5469 25H96.0811ZM97.7422 21.8486V23.6875H99.5605C100.413 23.6875 100.839 23.3822 100.839 22.7715C100.839 22.1562 100.406 21.8486 99.54 21.8486H97.7422ZM97.7422 20.6592H99.1094C100.053 20.6592 100.524 20.3812 100.524 19.8252C100.524 19.2419 100.078 18.9411 99.1846 18.9229H97.7422V20.6592ZM108.557 17.6035H110.211V25H108.557V20.0645L105.658 25H104.004V17.6035H105.658V22.5391L108.557 17.6035ZM117.799 18.9229H115.399V25H113.738V18.9229H111.366V17.6035H117.799V18.9229ZM120.697 19.9551H122.324C122.93 19.9551 123.459 20.0599 123.91 20.2695C124.361 20.4792 124.703 20.7731 124.936 21.1514C125.173 21.5296 125.291 21.9694 125.291 22.4707C125.291 23.2318 125.022 23.8424 124.484 24.3027C123.947 24.763 123.231 24.9954 122.338 25H119.036V17.6035H120.697V19.9551ZM120.697 21.2881V23.6738H122.317C122.723 23.6738 123.042 23.5736 123.274 23.373C123.511 23.168 123.63 22.8786 123.63 22.5049C123.63 22.1312 123.514 21.8372 123.281 21.623C123.053 21.4043 122.743 21.2926 122.352 21.2881H120.697ZM130.138 23.6738C130.598 23.1589 130.906 22.6712 131.061 22.2109C131.22 21.7461 131.316 21.1536 131.348 20.4336L131.443 17.6035H136.577V23.6738H137.603V27.2012H135.948V25H131.204V27.2012H129.522L129.529 23.6738H130.138ZM132.086 23.6738H134.923V19.0322H133.057L133.009 20.4473C132.945 21.8053 132.637 22.8809 132.086 23.6738ZM138.478 21.2334C138.478 20.5088 138.621 19.8571 138.908 19.2783C139.195 18.695 139.599 18.2484 140.118 17.9385C140.638 17.624 141.235 17.4668 141.909 17.4668C142.907 17.4668 143.716 17.7881 144.336 18.4307C144.96 19.0732 145.298 19.9255 145.348 20.9873L145.354 21.377C145.354 22.1061 145.213 22.7578 144.931 23.332C144.653 23.9062 144.252 24.3506 143.728 24.665C143.208 24.9795 142.606 25.1367 141.923 25.1367C140.879 25.1367 140.043 24.7904 139.414 24.0977C138.79 23.4004 138.478 22.473 138.478 21.3154V21.2334ZM140.139 21.377C140.139 22.138 140.296 22.735 140.61 23.168C140.925 23.5964 141.362 23.8105 141.923 23.8105C142.483 23.8105 142.919 23.5918 143.229 23.1543C143.543 22.7168 143.7 22.0765 143.7 21.2334C143.7 20.486 143.538 19.8936 143.215 19.4561C142.896 19.0186 142.461 18.7998 141.909 18.7998C141.367 18.7998 140.936 19.0163 140.617 19.4492C140.298 19.8776 140.139 20.5202 140.139 21.377ZM151.151 22.9561L153.339 17.6035H155.417V25H153.756V20.1055L151.719 25H150.591L148.547 20.0781V25H146.886V17.6035H148.978L151.151 22.9561ZM18.4795 42.0742H17.6387V45H15.9775V37.6035H17.6387V40.5566H18.3701L20.4141 37.6035H22.4648L19.792 41.1445L22.6904 45H20.5303L18.4795 42.0742ZM33.3613 45H31.7002V38.9434H28.8154V45H27.1543V37.6035H33.3613V45ZM41.6055 41.377C41.6055 42.5208 41.3457 43.4346 40.8262 44.1182C40.3066 44.7972 39.6094 45.1367 38.7344 45.1367C37.9232 45.1367 37.2738 44.8701 36.7861 44.3369V47.8438H35.125V37.6035H36.6562L36.7246 38.3555C37.2122 37.763 37.8753 37.4668 38.7139 37.4668C39.6162 37.4668 40.3226 37.804 40.833 38.4785C41.348 39.1484 41.6055 40.0804 41.6055 41.2744V41.377ZM39.9512 41.2334C39.9512 40.4951 39.8031 39.9095 39.5068 39.4766C39.2152 39.0436 38.7959 38.8271 38.249 38.8271C37.57 38.8271 37.0824 39.1074 36.7861 39.668V42.9492C37.0869 43.5234 37.5791 43.8105 38.2627 43.8105C38.7913 43.8105 39.2038 43.5986 39.5 43.1748C39.8008 42.7464 39.9512 42.0993 39.9512 41.2334ZM47.6348 37.6035H49.2891V45H47.6348V40.0645L44.7363 45H43.082V37.6035H44.7363V42.5391L47.6348 37.6035ZM54.3135 45.1367C53.2607 45.1367 52.4062 44.8063 51.75 44.1455C51.0983 43.4801 50.7725 42.596 50.7725 41.4932V41.2881C50.7725 40.5498 50.9137 39.8913 51.1963 39.3125C51.4834 38.7292 51.8844 38.2757 52.3994 37.9521C52.9144 37.6286 53.4886 37.4668 54.1221 37.4668C55.1292 37.4668 55.9062 37.7881 56.4531 38.4307C57.0046 39.0732 57.2803 39.9824 57.2803 41.1582V41.8281H52.4473C52.4974 42.4388 52.7002 42.9219 53.0557 43.2773C53.4157 43.6328 53.8669 43.8105 54.4092 43.8105C55.1702 43.8105 55.79 43.5029 56.2686 42.8877L57.1641 43.7422C56.8678 44.1842 56.4714 44.5283 55.9746 44.7744C55.4824 45.016 54.9287 45.1367 54.3135 45.1367ZM54.1152 38.7998C53.6595 38.7998 53.2904 38.9593 53.0078 39.2783C52.7298 39.5973 52.5521 40.0417 52.4746 40.6113H55.6396V40.4883C55.6032 39.9323 55.4551 39.513 55.1953 39.2305C54.9355 38.9434 54.5755 38.7998 54.1152 38.7998ZM62.9678 42.9561L65.1553 37.6035H67.2334V45H65.5723V40.1055L63.5352 45H62.4072L60.3633 40.0781V45H58.7021V37.6035H60.7939L62.9678 42.9561ZM71.6904 42.6211L73.1943 37.6035H74.9648L72.0254 46.1211C71.5742 47.3652 70.8086 47.9873 69.7285 47.9873C69.487 47.9873 69.2204 47.9463 68.9287 47.8643V46.5791L69.2432 46.5996C69.6624 46.5996 69.9769 46.5221 70.1865 46.3672C70.4007 46.2168 70.5693 45.9616 70.6924 45.6016L70.9316 44.9658L68.334 37.6035H70.125L71.6904 42.6211ZM85.6768 45H84.0156V42.0127H81.1377V45H79.4766V37.6035H81.1377V40.6865H84.0156V37.6035H85.6768V45ZM87.1396 41.2334C87.1396 40.5088 87.2832 39.8571 87.5703 39.2783C87.8574 38.695 88.2607 38.2484 88.7803 37.9385C89.2998 37.624 89.8968 37.4668 90.5713 37.4668C91.5693 37.4668 92.3783 37.7881 92.998 38.4307C93.6224 39.0732 93.9596 39.9255 94.0098 40.9873L94.0166 41.377C94.0166 42.1061 93.8753 42.7578 93.5928 43.332C93.3148 43.9062 92.9137 44.3506 92.3896 44.665C91.8701 44.9795 91.2686 45.1367 90.585 45.1367C89.5413 45.1367 88.7051 44.7904 88.0762 44.0977C87.4518 43.4004 87.1396 42.473 87.1396 41.3154V41.2334ZM88.8008 41.377C88.8008 42.138 88.958 42.735 89.2725 43.168C89.5869 43.5964 90.0244 43.8105 90.585 43.8105C91.1455 43.8105 91.5807 43.5918 91.8906 43.1543C92.2051 42.7168 92.3623 42.0765 92.3623 41.2334C92.3623 40.486 92.2005 39.8936 91.877 39.4561C91.5579 39.0186 91.1227 38.7998 90.5713 38.7998C90.029 38.7998 89.5983 39.0163 89.2793 39.4492C88.9603 39.8776 88.8008 40.5202 88.8008 41.377ZM95.5479 45V37.6035H98.5488C99.5605 37.6035 100.331 37.7812 100.859 38.1367C101.388 38.4876 101.652 38.9935 101.652 39.6543C101.652 39.9961 101.545 40.3037 101.331 40.5771C101.121 40.846 100.809 41.0534 100.395 41.1992C100.878 41.2995 101.26 41.5023 101.543 41.8076C101.826 42.113 101.967 42.473 101.967 42.8877C101.967 43.5758 101.712 44.0999 101.201 44.46C100.695 44.82 99.9661 45 99.0137 45H95.5479ZM97.209 41.8486V43.6875H99.0273C99.8796 43.6875 100.306 43.3822 100.306 42.7715C100.306 42.1562 99.8727 41.8486 99.0068 41.8486H97.209ZM97.209 40.6592H98.5762C99.5195 40.6592 99.9912 40.3812 99.9912 39.8252C99.9912 39.2419 99.5446 38.9411 98.6514 38.9229H97.209V40.6592ZM103.095 41.2334C103.095 40.5088 103.238 39.8571 103.525 39.2783C103.812 38.695 104.216 38.2484 104.735 37.9385C105.255 37.624 105.852 37.4668 106.526 37.4668C107.524 37.4668 108.333 37.7881 108.953 38.4307C109.577 39.0732 109.915 39.9255 109.965 40.9873L109.972 41.377C109.972 42.1061 109.83 42.7578 109.548 43.332C109.27 43.9062 108.869 44.3506 108.345 44.665C107.825 44.9795 107.224 45.1367 106.54 45.1367C105.496 45.1367 104.66 44.7904 104.031 44.0977C103.407 43.4004 103.095 42.473 103.095 41.3154V41.2334ZM104.756 41.377C104.756 42.138 104.913 42.735 105.228 43.168C105.542 43.5964 105.979 43.8105 106.54 43.8105C107.101 43.8105 107.536 43.5918 107.846 43.1543C108.16 42.7168 108.317 42.0765 108.317 41.2334C108.317 40.486 108.156 39.8936 107.832 39.4561C107.513 39.0186 107.078 38.7998 106.526 38.7998C105.984 38.7998 105.553 39.0163 105.234 39.4492C104.915 39.8776 104.756 40.5202 104.756 41.377ZM116.302 38.9434H113.089V45H111.435V37.6035H116.302V38.9434ZM116.794 41.2334C116.794 40.5088 116.938 39.8571 117.225 39.2783C117.512 38.695 117.915 38.2484 118.435 37.9385C118.954 37.624 119.551 37.4668 120.226 37.4668C121.224 37.4668 122.033 37.7881 122.652 38.4307C123.277 39.0732 123.614 39.9255 123.664 40.9873L123.671 41.377C123.671 42.1061 123.53 42.7578 123.247 43.332C122.969 43.9062 122.568 44.3506 122.044 44.665C121.524 44.9795 120.923 45.1367 120.239 45.1367C119.196 45.1367 118.359 44.7904 117.73 44.0977C117.106 43.4004 116.794 42.473 116.794 41.3154V41.2334ZM118.455 41.377C118.455 42.138 118.612 42.735 118.927 43.168C119.241 43.5964 119.679 43.8105 120.239 43.8105C120.8 43.8105 121.235 43.5918 121.545 43.1543C121.859 42.7168 122.017 42.0765 122.017 41.2334C122.017 40.486 121.855 39.8936 121.531 39.4561C121.212 39.0186 120.777 38.7998 120.226 38.7998C119.683 38.7998 119.253 39.0163 118.934 39.4492C118.615 39.8776 118.455 40.5202 118.455 41.377ZM134.834 45H133.173V38.9434H130.288V45H128.627V37.6035H134.834V45ZM141.219 37.6035H142.873V45H141.219V40.0645L138.32 45H136.666V37.6035H138.32V42.5391L141.219 37.6035ZM150.461 38.9229H148.062V45H146.4V38.9229H144.028V37.6035H150.461V38.9229ZM151.056 41.2334C151.056 40.5088 151.199 39.8571 151.486 39.2783C151.773 38.695 152.177 38.2484 152.696 37.9385C153.216 37.624 153.813 37.4668 154.487 37.4668C155.485 37.4668 156.294 37.7881 156.914 38.4307C157.538 39.0732 157.876 39.9255 157.926 40.9873L157.933 41.377C157.933 42.1061 157.791 42.7578 157.509 43.332C157.231 43.9062 156.83 44.3506 156.306 44.665C155.786 44.9795 155.185 45.1367 154.501 45.1367C153.457 45.1367 152.621 44.7904 151.992 44.0977C151.368 43.4004 151.056 42.473 151.056 41.3154V41.2334ZM152.717 41.377C152.717 42.138 152.874 42.735 153.188 43.168C153.503 43.5964 153.94 43.8105 154.501 43.8105C155.062 43.8105 155.497 43.5918 155.807 43.1543C156.121 42.7168 156.278 42.0765 156.278 41.2334C156.278 40.486 156.117 39.8936 155.793 39.4561C155.474 39.0186 155.039 38.7998 154.487 38.7998C153.945 38.7998 153.514 39.0163 153.195 39.4492C152.876 39.8776 152.717 40.5202 152.717 41.377ZM163.729 42.9561L165.917 37.6035H167.995V45H166.334V40.1055L164.297 45H163.169L161.125 40.0781V45H159.464V37.6035H161.556L163.729 42.9561ZM169.93 37.6035H171.591V43.6738H174.476V37.6035H176.137V43.6738H177.142L177.005 47.1943H175.494V45H169.93V37.6035ZM182.733 45C182.66 44.8587 182.597 44.6286 182.542 44.3096C182.013 44.861 181.366 45.1367 180.601 45.1367C179.858 45.1367 179.252 44.9248 178.782 44.501C178.313 44.0771 178.078 43.5531 178.078 42.9287C178.078 42.1403 178.37 41.5365 178.953 41.1172C179.541 40.6934 180.38 40.4814 181.469 40.4814H182.487V39.9961C182.487 39.6133 182.38 39.3079 182.166 39.0801C181.952 38.8477 181.626 38.7314 181.188 38.7314C180.81 38.7314 180.5 38.8271 180.259 39.0186C180.017 39.2054 179.896 39.4447 179.896 39.7363H178.235C178.235 39.3307 178.37 38.9525 178.639 38.6016C178.908 38.2461 179.272 37.9681 179.732 37.7676C180.197 37.5671 180.715 37.4668 181.284 37.4668C182.15 37.4668 182.84 37.6855 183.355 38.123C183.87 38.556 184.135 39.1667 184.148 39.9551V43.291C184.148 43.9564 184.242 44.4873 184.429 44.8838V45H182.733ZM180.908 43.8037C181.236 43.8037 181.544 43.724 181.831 43.5645C182.123 43.4049 182.341 43.1908 182.487 42.9219V41.5273H181.592C180.977 41.5273 180.514 41.6344 180.204 41.8486C179.894 42.0628 179.739 42.3659 179.739 42.7578C179.739 43.0768 179.844 43.332 180.054 43.5234C180.268 43.7103 180.553 43.8037 180.908 43.8037ZM187.43 42.0742C187.43 41.4681 187.505 40.985 187.655 40.625C187.806 40.265 188.102 39.8708 188.544 39.4424C188.991 39.0094 189.273 38.7018 189.392 38.5195C189.574 38.2415 189.665 37.9408 189.665 37.6172C189.665 37.1888 189.558 36.863 189.344 36.6396C189.134 36.4118 188.824 36.2979 188.414 36.2979C188.022 36.2979 187.705 36.4095 187.464 36.6328C187.227 36.8516 187.108 37.1501 187.108 37.5283H185.447C185.456 36.7217 185.73 36.0837 186.268 35.6143C186.81 35.1449 187.525 34.9102 188.414 34.9102C189.33 34.9102 190.043 35.1426 190.554 35.6074C191.069 36.0723 191.326 36.7217 191.326 37.5557C191.326 38.2985 190.98 39.0299 190.287 39.75L189.446 40.5771C189.146 40.9189 188.991 41.418 188.981 42.0742H187.43ZM187.313 44.2002C187.313 43.9313 187.398 43.7148 187.566 43.5508C187.735 43.3822 187.963 43.2979 188.25 43.2979C188.542 43.2979 188.772 43.3844 188.94 43.5576C189.109 43.7262 189.193 43.9404 189.193 44.2002C189.193 44.4508 189.111 44.6605 188.947 44.8291C188.783 44.9977 188.551 45.082 188.25 45.082C187.949 45.082 187.717 44.9977 187.553 44.8291C187.393 44.6605 187.313 44.4508 187.313 44.2002Z" fill="#DDD0C3"/>
<path d="M269 22V38M261 30H277" stroke="#A07B50" stroke-width="2"/>
<line x1="247.25" y1="1.09278e-08" x2="247.25" y2="60" stroke="#A07B50" stroke-opacity="0.41" stroke-width="0.5"/>
</svg>
