<svg width="290" height="60" viewBox="0 0 290 60" fill="none" xmlns="http://www.w3.org/2000/svg">
<line x1="247.25" y1="1.09278e-08" x2="247.25" y2="60" stroke="#544332" stroke-width="0.5"/>
<rect x="0.25" y="0.25" width="289.5" height="59.5" stroke="#544332" stroke-width="0.5"/>
<path d="M269 22V38M261 30H277" stroke="#A07B50" stroke-width="2"/>
<path d="M18.2539 15.0469L21.125 22.6758L23.9893 15.0469H26.2246V25H24.502V21.7188L24.6729 17.3301L21.7334 25H20.4961L17.5635 17.3369L17.7344 21.7188V25H16.0117V15.0469H18.2539ZM27.8037 21.2334C27.8037 20.5088 27.9473 19.8571 28.2344 19.2783C28.5215 18.695 28.9248 18.2484 29.4443 17.9385C29.9639 17.624 30.5609 17.4668 31.2354 17.4668C32.2334 17.4668 33.0423 17.7881 33.6621 18.4307C34.2865 19.0732 34.6237 19.9255 34.6738 20.9873L34.6807 21.377C34.6807 22.1061 34.5394 22.7578 34.2568 23.332C33.9788 23.9062 33.5778 24.3506 33.0537 24.665C32.5342 24.9795 31.9326 25.1367 31.249 25.1367C30.2054 25.1367 29.3691 24.7904 28.7402 24.0977C28.1159 23.4004 27.8037 22.473 27.8037 21.3154V21.2334ZM29.4648 21.377C29.4648 22.138 29.6221 22.735 29.9365 23.168C30.251 23.5964 30.6885 23.8105 31.249 23.8105C31.8096 23.8105 32.2448 23.5918 32.5547 23.1543C32.8691 22.7168 33.0264 22.0765 33.0264 21.2334C33.0264 20.486 32.8646 19.8936 32.541 19.4561C32.222 19.0186 31.7868 18.7998 31.2354 18.7998C30.693 18.7998 30.2624 19.0163 29.9434 19.4492C29.6243 19.8776 29.4648 20.5202 29.4648 21.377ZM42.4463 22.0264H41.5645V25H39.9033V22.0264H39.0283L37.3262 25H35.2891L37.7432 21.1514L35.4189 17.6035H37.4492L39.124 20.5088H39.9033V17.6035H41.5645V20.5088H42.3506L44.0322 17.6035H46.0625L43.7451 21.1309L46.2129 25H44.1484L42.4463 22.0264ZM53.5068 25H51.8457V22.0127H48.9678V25H47.3066V17.6035H48.9678V20.6865H51.8457V17.6035H53.5068V25ZM54.9697 21.2334C54.9697 20.5088 55.1133 19.8571 55.4004 19.2783C55.6875 18.695 56.0908 18.2484 56.6104 17.9385C57.1299 17.624 57.7269 17.4668 58.4014 17.4668C59.3994 17.4668 60.2083 17.7881 60.8281 18.4307C61.4525 19.0732 61.7897 19.9255 61.8398 20.9873L61.8467 21.377C61.8467 22.1061 61.7054 22.7578 61.4229 23.332C61.1449 23.9062 60.7438 24.3506 60.2197 24.665C59.7002 24.9795 59.0986 25.1367 58.415 25.1367C57.3714 25.1367 56.5352 24.7904 55.9062 24.0977C55.2819 23.4004 54.9697 22.473 54.9697 21.3154V21.2334ZM56.6309 21.377C56.6309 22.138 56.7881 22.735 57.1025 23.168C57.417 23.5964 57.8545 23.8105 58.415 23.8105C58.9756 23.8105 59.4108 23.5918 59.7207 23.1543C60.0352 22.7168 60.1924 22.0765 60.1924 21.2334C60.1924 20.486 60.0306 19.8936 59.707 19.4561C59.388 19.0186 58.9528 18.7998 58.4014 18.7998C57.859 18.7998 57.4284 19.0163 57.1094 19.4492C56.7904 19.8776 56.6309 20.5202 56.6309 21.377ZM73.0234 17.6035V25H71.3623V18.9434H69.2705L69.1338 21.5205C69.0472 22.7601 68.8079 23.651 68.416 24.1934C68.0286 24.7311 67.4339 25 66.6318 25H66.1191L66.1123 23.6191L66.4541 23.585C66.8187 23.5348 67.083 23.3138 67.2471 22.9219C67.4157 22.5254 67.5228 21.8053 67.5684 20.7617L67.7051 17.6035H73.0234ZM79.4082 17.6035H81.0625V25H79.4082V20.0645L76.5098 25H74.8555V17.6035H76.5098V22.5391L79.4082 17.6035ZM88.9443 22.0742H88.1035V25H86.4424V17.6035H88.1035V20.5566H88.835L90.8789 17.6035H92.9297L90.2568 21.1445L93.1553 25H90.9951L88.9443 22.0742ZM96.6553 22.6211L98.1592 17.6035H99.9297L96.9902 26.1211C96.5391 27.3652 95.7734 27.9873 94.6934 27.9873C94.4518 27.9873 94.1852 27.9463 93.8936 27.8643V26.5791L94.208 26.5996C94.6273 26.5996 94.9417 26.5221 95.1514 26.3672C95.3656 26.2168 95.5342 25.9616 95.6572 25.6016L95.8965 24.9658L93.2988 17.6035H95.0898L96.6553 22.6211ZM107.162 25H105.501V18.9434H102.616V25H100.955V17.6035H107.162V25ZM113.547 17.6035H115.201V25H113.547V20.0645L110.648 25H108.994V17.6035H110.648V22.5391L113.547 17.6035ZM122.789 18.9229H120.39V25H118.729V18.9229H116.356V17.6035H122.789V18.9229ZM125.688 19.9551H127.314C127.921 19.9551 128.449 20.0599 128.9 20.2695C129.352 20.4792 129.693 20.7731 129.926 21.1514C130.163 21.5296 130.281 21.9694 130.281 22.4707C130.281 23.2318 130.012 23.8424 129.475 24.3027C128.937 24.763 128.221 24.9954 127.328 25H124.026V17.6035H125.688V19.9551ZM125.688 21.2881V23.6738H127.308C127.713 23.6738 128.032 23.5736 128.265 23.373C128.502 23.168 128.62 22.8786 128.62 22.5049C128.62 22.1312 128.504 21.8372 128.271 21.623C128.044 21.4043 127.734 21.2926 127.342 21.2881H125.688ZM137.726 22.0742H136.885V25H135.224V17.6035H136.885V20.5566H137.616L139.66 17.6035H141.711L139.038 21.1445L141.937 25H139.776L137.726 22.0742ZM142.142 21.2334C142.142 20.5088 142.285 19.8571 142.572 19.2783C142.859 18.695 143.263 18.2484 143.782 17.9385C144.302 17.624 144.899 17.4668 145.573 17.4668C146.571 17.4668 147.38 17.7881 148 18.4307C148.624 19.0732 148.962 19.9255 149.012 20.9873L149.019 21.377C149.019 22.1061 148.877 22.7578 148.595 23.332C148.317 23.9062 147.916 24.3506 147.392 24.665C146.872 24.9795 146.271 25.1367 145.587 25.1367C144.543 25.1367 143.707 24.7904 143.078 24.0977C142.454 23.4004 142.142 22.473 142.142 21.3154V21.2334ZM143.803 21.377C143.803 22.138 143.96 22.735 144.274 23.168C144.589 23.5964 145.026 23.8105 145.587 23.8105C146.147 23.8105 146.583 23.5918 146.893 23.1543C147.207 22.7168 147.364 22.0765 147.364 21.2334C147.364 20.486 147.202 19.8936 146.879 19.4561C146.56 19.0186 146.125 18.7998 145.573 18.7998C145.031 18.7998 144.6 19.0163 144.281 19.4492C143.962 19.8776 143.803 20.5202 143.803 21.377ZM156.039 18.9229H153.64V25H151.979V18.9229H149.606V17.6035H156.039V18.9229ZM161.46 25C161.387 24.8587 161.323 24.6286 161.269 24.3096C160.74 24.861 160.093 25.1367 159.327 25.1367C158.584 25.1367 157.978 24.9248 157.509 24.501C157.039 24.0771 156.805 23.5531 156.805 22.9287C156.805 22.1403 157.096 21.5365 157.68 21.1172C158.268 20.6934 159.106 20.4814 160.195 20.4814H161.214V19.9961C161.214 19.6133 161.107 19.3079 160.893 19.0801C160.678 18.8477 160.353 18.7314 159.915 18.7314C159.537 18.7314 159.227 18.8271 158.985 19.0186C158.744 19.2054 158.623 19.4447 158.623 19.7363H156.962C156.962 19.3307 157.096 18.9525 157.365 18.6016C157.634 18.2461 157.999 17.9681 158.459 17.7676C158.924 17.5671 159.441 17.4668 160.011 17.4668C160.877 17.4668 161.567 17.6855 162.082 18.123C162.597 18.556 162.861 19.1667 162.875 19.9551V23.291C162.875 23.9564 162.968 24.4873 163.155 24.8838V25H161.46ZM159.635 23.8037C159.963 23.8037 160.271 23.724 160.558 23.5645C160.849 23.4049 161.068 23.1908 161.214 22.9219V21.5273H160.318C159.703 21.5273 159.241 21.6344 158.931 21.8486C158.621 22.0628 158.466 22.3659 158.466 22.7578C158.466 23.0768 158.571 23.332 158.78 23.5234C158.994 23.7103 159.279 23.8037 159.635 23.8037ZM164.851 27.2422L163.955 26.709C164.219 26.2943 164.399 25.932 164.495 25.6221C164.595 25.3167 164.648 25.0046 164.652 24.6855V23.3936H166.149L166.143 24.5898C166.138 25.0729 166.015 25.556 165.773 26.0391C165.536 26.5267 165.229 26.9277 164.851 27.2422ZM19.1084 45.1367C18.0557 45.1367 17.2012 44.8063 16.5449 44.1455C15.8932 43.4801 15.5674 42.596 15.5674 41.4932V41.2881C15.5674 40.5498 15.7087 39.8913 15.9912 39.3125C16.2783 38.7292 16.6794 38.2757 17.1943 37.9521C17.7093 37.6286 18.2835 37.4668 18.917 37.4668C19.9242 37.4668 20.7012 37.7881 21.248 38.4307C21.7995 39.0732 22.0752 39.9824 22.0752 41.1582V41.8281H17.2422C17.2923 42.4388 17.4951 42.9219 17.8506 43.2773C18.2106 43.6328 18.6618 43.8105 19.2041 43.8105C19.9652 43.8105 20.585 43.5029 21.0635 42.8877L21.959 43.7422C21.6628 44.1842 21.2663 44.5283 20.7695 44.7744C20.2773 45.016 19.7236 45.1367 19.1084 45.1367ZM18.9102 38.7998C18.4544 38.7998 18.0853 38.9593 17.8027 39.2783C17.5247 39.5973 17.347 40.0417 17.2695 40.6113H20.4346V40.4883C20.3981 39.9323 20.25 39.513 19.9902 39.2305C19.7305 38.9434 19.3704 38.7998 18.9102 38.7998ZM26.4092 43.8105C26.8239 43.8105 27.168 43.6898 27.4414 43.4482C27.7148 43.2067 27.8607 42.9082 27.8789 42.5527H29.4443C29.4261 43.013 29.2826 43.4437 29.0137 43.8447C28.7448 44.2412 28.3802 44.5557 27.9199 44.7881C27.4596 45.0205 26.9629 45.1367 26.4297 45.1367C25.3952 45.1367 24.5749 44.8018 23.9688 44.1318C23.3626 43.4619 23.0596 42.5368 23.0596 41.3564V41.1855C23.0596 40.0599 23.3604 39.1598 23.9619 38.4854C24.5635 37.8063 25.3838 37.4668 26.4229 37.4668C27.3024 37.4668 28.0179 37.7243 28.5693 38.2393C29.1253 38.7497 29.417 39.4219 29.4443 40.2559H27.8789C27.8607 39.832 27.7148 39.4834 27.4414 39.21C27.1725 38.9365 26.8285 38.7998 26.4092 38.7998C25.8714 38.7998 25.4567 38.9958 25.165 39.3877C24.8734 39.7751 24.7253 40.3652 24.7207 41.1582V41.4248C24.7207 42.2269 24.8643 42.8262 25.1514 43.2227C25.443 43.6146 25.8623 43.8105 26.4092 43.8105ZM36.9844 37.6035V45H35.3232V38.9434H33.2314L33.0947 41.5205C33.0081 42.7601 32.7689 43.651 32.377 44.1934C31.9896 44.7311 31.3949 45 30.5928 45H30.0801L30.0732 43.6191L30.415 43.585C30.7796 43.5348 31.0439 43.3138 31.208 42.9219C31.3766 42.5254 31.4837 41.8053 31.5293 40.7617L31.666 37.6035H36.9844ZM43.3691 37.6035H45.0234V45H43.3691V40.0645L40.4707 45H38.8164V37.6035H40.4707V42.5391L43.3691 37.6035ZM56.2002 37.6035V45H54.5459V42.2861H52.9941L51.415 45H49.6924L51.4355 42.0127C50.9798 41.8213 50.6289 41.5479 50.3828 41.1924C50.1413 40.8369 50.0205 40.429 50.0205 39.9688C50.0205 39.2806 50.2848 38.7178 50.8135 38.2803C51.3467 37.8382 52.0645 37.6126 52.9668 37.6035H56.2002ZM51.6816 40.0098C51.6816 40.3197 51.7956 40.5726 52.0234 40.7686C52.2559 40.96 52.5521 41.0557 52.9121 41.0557H54.5459V38.9229H53.0146C52.609 38.9229 52.2855 39.0254 52.0439 39.2305C51.8024 39.4355 51.6816 39.6953 51.6816 40.0098ZM68.04 42.0264H67.1582V45H65.4971V42.0264H64.6221L62.9199 45H60.8828L63.3369 41.1514L61.0127 37.6035H63.043L64.7178 40.5088H65.4971V37.6035H67.1582V40.5088H67.9443L69.626 37.6035H71.6562L69.3389 41.1309L71.8066 45H69.7422L68.04 42.0264ZM77.4531 37.6035H79.1074V45H77.4531V40.0645L74.5547 45H72.9004V37.6035H74.5547V42.5391L77.4531 37.6035ZM81.001 45V37.6035H84.002C85.0137 37.6035 85.7839 37.7812 86.3125 38.1367C86.8411 38.4876 87.1055 38.9935 87.1055 39.6543C87.1055 39.9961 86.9984 40.3037 86.7842 40.5771C86.5745 40.846 86.2624 41.0534 85.8477 41.1992C86.3307 41.2995 86.7135 41.5023 86.9961 41.8076C87.2786 42.113 87.4199 42.473 87.4199 42.8877C87.4199 43.5758 87.1647 44.0999 86.6543 44.46C86.1484 44.82 85.4193 45 84.4668 45H81.001ZM82.6621 41.8486V43.6875H84.4805C85.3327 43.6875 85.7588 43.3822 85.7588 42.7715C85.7588 42.1562 85.3258 41.8486 84.46 41.8486H82.6621ZM82.6621 40.6592H84.0293C84.9727 40.6592 85.4443 40.3812 85.4443 39.8252C85.4443 39.2419 84.9977 38.9411 84.1045 38.9229H82.6621V40.6592ZM91.3643 42.6211L92.8682 37.6035H94.6387L91.6992 46.1211C91.248 47.3652 90.4824 47.9873 89.4023 47.9873C89.1608 47.9873 88.8942 47.9463 88.6025 47.8643V46.5791L88.917 46.5996C89.3363 46.5996 89.6507 46.5221 89.8604 46.3672C90.0745 46.2168 90.2432 45.9616 90.3662 45.6016L90.6055 44.9658L88.0078 37.6035H89.7988L91.3643 42.6211ZM99.2119 45V37.6035H102.213C103.225 37.6035 103.995 37.7812 104.523 38.1367C105.052 38.4876 105.316 38.9935 105.316 39.6543C105.316 39.9961 105.209 40.3037 104.995 40.5771C104.785 40.846 104.473 41.0534 104.059 41.1992C104.542 41.2995 104.924 41.5023 105.207 41.8076C105.49 42.113 105.631 42.473 105.631 42.8877C105.631 43.5758 105.376 44.0999 104.865 44.46C104.359 44.82 103.63 45 102.678 45H99.2119ZM100.873 41.8486V43.6875H102.691C103.544 43.6875 103.97 43.3822 103.97 42.7715C103.97 42.1562 103.537 41.8486 102.671 41.8486H100.873ZM100.873 40.6592H102.24C103.184 40.6592 103.655 40.3812 103.655 39.8252C103.655 39.2419 103.209 38.9411 102.315 38.9229H100.873V40.6592ZM110.587 43.6738C111.047 43.1589 111.355 42.6712 111.51 42.2109C111.669 41.7461 111.765 41.1536 111.797 40.4336L111.893 37.6035H117.026V43.6738H118.052V47.2012H116.397V45H111.653V47.2012H109.972L109.979 43.6738H110.587ZM112.535 43.6738H115.372V39.0322H113.506L113.458 40.4473C113.394 41.8053 113.087 42.8809 112.535 43.6738ZM125.592 41.377C125.592 42.5208 125.332 43.4346 124.812 44.1182C124.293 44.7972 123.596 45.1367 122.721 45.1367C121.91 45.1367 121.26 44.8701 120.772 44.3369V47.8438H119.111V37.6035H120.643L120.711 38.3555C121.199 37.763 121.862 37.4668 122.7 37.4668C123.603 37.4668 124.309 37.804 124.819 38.4785C125.334 39.1484 125.592 40.0804 125.592 41.2744V41.377ZM123.938 41.2334C123.938 40.4951 123.789 39.9095 123.493 39.4766C123.201 39.0436 122.782 38.8271 122.235 38.8271C121.556 38.8271 121.069 39.1074 120.772 39.668V42.9492C121.073 43.5234 121.565 43.8105 122.249 43.8105C122.778 43.8105 123.19 43.5986 123.486 43.1748C123.787 42.7464 123.938 42.0993 123.938 41.2334ZM129.509 42.6211L131.013 37.6035H132.783L129.844 46.1211C129.393 47.3652 128.627 47.9873 127.547 47.9873C127.305 47.9873 127.039 47.9463 126.747 47.8643V46.5791L127.062 46.5996C127.481 46.5996 127.795 46.5221 128.005 46.3672C128.219 46.2168 128.388 45.9616 128.511 45.6016L128.75 44.9658L126.152 37.6035H127.943L129.509 42.6211ZM138.669 38.9434H135.456V45H133.802V37.6035H138.669V38.9434ZM139.161 41.2334C139.161 40.5088 139.305 39.8571 139.592 39.2783C139.879 38.695 140.282 38.2484 140.802 37.9385C141.321 37.624 141.918 37.4668 142.593 37.4668C143.591 37.4668 144.4 37.7881 145.02 38.4307C145.644 39.0732 145.981 39.9255 146.031 40.9873L146.038 41.377C146.038 42.1061 145.897 42.7578 145.614 43.332C145.336 43.9062 144.935 44.3506 144.411 44.665C143.892 44.9795 143.29 45.1367 142.606 45.1367C141.563 45.1367 140.727 44.7904 140.098 44.0977C139.473 43.4004 139.161 42.473 139.161 41.3154V41.2334ZM140.822 41.377C140.822 42.138 140.979 42.735 141.294 43.168C141.608 43.5964 142.046 43.8105 142.606 43.8105C143.167 43.8105 143.602 43.5918 143.912 43.1543C144.227 42.7168 144.384 42.0765 144.384 41.2334C144.384 40.486 144.222 39.8936 143.898 39.4561C143.579 39.0186 143.144 38.7998 142.593 38.7998C142.05 38.7998 141.62 39.0163 141.301 39.4492C140.982 39.8776 140.822 40.5202 140.822 41.377ZM151.835 42.9561L154.022 37.6035H156.101V45H154.439V40.1055L152.402 45H151.274L149.23 40.0781V45H147.569V37.6035H149.661L151.835 42.9561ZM166.382 38.9434H163.169V45H161.515V37.6035H166.382V38.9434ZM166.874 41.2334C166.874 40.5088 167.018 39.8571 167.305 39.2783C167.592 38.695 167.995 38.2484 168.515 37.9385C169.034 37.624 169.631 37.4668 170.306 37.4668C171.304 37.4668 172.113 37.7881 172.732 38.4307C173.357 39.0732 173.694 39.9255 173.744 40.9873L173.751 41.377C173.751 42.1061 173.61 42.7578 173.327 43.332C173.049 43.9062 172.648 44.3506 172.124 44.665C171.604 44.9795 171.003 45.1367 170.319 45.1367C169.276 45.1367 168.439 44.7904 167.811 44.0977C167.186 43.4004 166.874 42.473 166.874 41.3154V41.2334ZM168.535 41.377C168.535 42.138 168.692 42.735 169.007 43.168C169.321 43.5964 169.759 43.8105 170.319 43.8105C170.88 43.8105 171.315 43.5918 171.625 43.1543C171.939 42.7168 172.097 42.0765 172.097 41.2334C172.097 40.486 171.935 39.8936 171.611 39.4561C171.292 39.0186 170.857 38.7998 170.306 38.7998C169.763 38.7998 169.333 39.0163 169.014 39.4492C168.695 39.8776 168.535 40.5202 168.535 41.377ZM181.633 41.377C181.633 42.5208 181.373 43.4346 180.854 44.1182C180.334 44.7972 179.637 45.1367 178.762 45.1367C177.951 45.1367 177.301 44.8701 176.813 44.3369V47.8438H175.152V37.6035H176.684L176.752 38.3555C177.24 37.763 177.903 37.4668 178.741 37.4668C179.644 37.4668 180.35 37.804 180.86 38.4785C181.375 39.1484 181.633 40.0804 181.633 41.2744V41.377ZM179.979 41.2334C179.979 40.4951 179.83 39.9095 179.534 39.4766C179.243 39.0436 178.823 38.8271 178.276 38.8271C177.597 38.8271 177.11 39.1074 176.813 39.668V42.9492C177.114 43.5234 177.606 43.8105 178.29 43.8105C178.819 43.8105 179.231 43.5986 179.527 43.1748C179.828 42.7464 179.979 42.0993 179.979 41.2334ZM182.733 41.2334C182.733 40.5088 182.877 39.8571 183.164 39.2783C183.451 38.695 183.854 38.2484 184.374 37.9385C184.894 37.624 185.491 37.4668 186.165 37.4668C187.163 37.4668 187.972 37.7881 188.592 38.4307C189.216 39.0732 189.553 39.9255 189.604 40.9873L189.61 41.377C189.61 42.1061 189.469 42.7578 189.187 43.332C188.909 43.9062 188.507 44.3506 187.983 44.665C187.464 44.9795 186.862 45.1367 186.179 45.1367C185.135 45.1367 184.299 44.7904 183.67 44.0977C183.046 43.4004 182.733 42.473 182.733 41.3154V41.2334ZM184.395 41.377C184.395 42.138 184.552 42.735 184.866 43.168C185.181 43.5964 185.618 43.8105 186.179 43.8105C186.739 43.8105 187.174 43.5918 187.484 43.1543C187.799 42.7168 187.956 42.0765 187.956 41.2334C187.956 40.486 187.794 39.8936 187.471 39.4561C187.152 39.0186 186.716 38.7998 186.165 38.7998C185.623 38.7998 185.192 39.0163 184.873 39.4492C184.554 39.8776 184.395 40.5202 184.395 41.377ZM190.554 43.6738C191.014 43.1589 191.322 42.6712 191.477 42.2109C191.636 41.7461 191.732 41.1536 191.764 40.4336L191.859 37.6035H196.993V43.6738H198.019V47.2012H196.364V45H191.62V47.2012H189.938L189.945 43.6738H190.554ZM192.502 43.6738H195.339V39.0322H193.473L193.425 40.4473C193.361 41.8053 193.053 42.8809 192.502 43.6738ZM202.462 45.1367C201.409 45.1367 200.555 44.8063 199.898 44.1455C199.247 43.4801 198.921 42.596 198.921 41.4932V41.2881C198.921 40.5498 199.062 39.8913 199.345 39.3125C199.632 38.7292 200.033 38.2757 200.548 37.9521C201.063 37.6286 201.637 37.4668 202.271 37.4668C203.278 37.4668 204.055 37.7881 204.602 38.4307C205.153 39.0732 205.429 39.9824 205.429 41.1582V41.8281H200.596C200.646 42.4388 200.849 42.9219 201.204 43.2773C201.564 43.6328 202.015 43.8105 202.558 43.8105C203.319 43.8105 203.938 43.5029 204.417 42.8877L205.312 43.7422C205.016 44.1842 204.62 44.5283 204.123 44.7744C203.631 45.016 203.077 45.1367 202.462 45.1367ZM202.264 38.7998C201.808 38.7998 201.439 38.9593 201.156 39.2783C200.878 39.5973 200.701 40.0417 200.623 40.6113H203.788V40.4883C203.752 39.9323 203.604 39.513 203.344 39.2305C203.084 38.9434 202.724 38.7998 202.264 38.7998ZM208.266 42.0742C208.266 41.4681 208.341 40.985 208.491 40.625C208.642 40.265 208.938 39.8708 209.38 39.4424C209.826 39.0094 210.109 38.7018 210.228 38.5195C210.41 38.2415 210.501 37.9408 210.501 37.6172C210.501 37.1888 210.394 36.863 210.18 36.6396C209.97 36.4118 209.66 36.2979 209.25 36.2979C208.858 36.2979 208.541 36.4095 208.3 36.6328C208.063 36.8516 207.944 37.1501 207.944 37.5283H206.283C206.292 36.7217 206.566 36.0837 207.104 35.6143C207.646 35.1449 208.361 34.9102 209.25 34.9102C210.166 34.9102 210.879 35.1426 211.39 35.6074C211.905 36.0723 212.162 36.7217 212.162 37.5557C212.162 38.2985 211.816 39.0299 211.123 39.75L210.282 40.5771C209.981 40.9189 209.826 41.418 209.817 42.0742H208.266ZM208.149 44.2002C208.149 43.9313 208.234 43.7148 208.402 43.5508C208.571 43.3822 208.799 43.2979 209.086 43.2979C209.378 43.2979 209.608 43.3844 209.776 43.5576C209.945 43.7262 210.029 43.9404 210.029 44.2002C210.029 44.4508 209.947 44.6605 209.783 44.8291C209.619 44.9977 209.387 45.082 209.086 45.082C208.785 45.082 208.553 44.9977 208.389 44.8291C208.229 44.6605 208.149 44.4508 208.149 44.2002Z" fill="#DDD0C3"/>
</svg>
