<svg width="290" height="60" viewBox="0 0 290 60" fill="none" xmlns="http://www.w3.org/2000/svg">
<rect x="0.25" y="0.25" width="289.5" height="59.5" stroke="#544332" stroke-width="0.5"/>
<rect x="247" width="43" height="60" fill="#A07B50"/>
<path d="M261 30H277" stroke="white" stroke-width="2"/>
<path d="M23.6064 21.7598C23.5062 22.8216 23.1143 23.651 22.4307 24.248C21.7471 24.8405 20.8379 25.1367 19.7031 25.1367C18.9102 25.1367 18.2106 24.9499 17.6045 24.5762C17.0029 24.1979 16.5381 23.6624 16.21 22.9697C15.8818 22.277 15.7109 21.4727 15.6973 20.5566V19.627C15.6973 18.6882 15.8636 17.861 16.1963 17.1455C16.529 16.43 17.0052 15.8786 17.625 15.4912C18.2493 15.1038 18.9694 14.9102 19.7852 14.9102C20.8835 14.9102 21.7676 15.2087 22.4375 15.8057C23.1074 16.4027 23.4971 17.2458 23.6064 18.335H21.8838C21.8018 17.6195 21.5921 17.1045 21.2549 16.79C20.9222 16.471 20.4323 16.3115 19.7852 16.3115C19.0332 16.3115 18.4544 16.5872 18.0488 17.1387C17.6478 17.6855 17.4427 18.4899 17.4336 19.5518V20.4336C17.4336 21.5091 17.625 22.3294 18.0078 22.8945C18.3952 23.4596 18.9603 23.7422 19.7031 23.7422C20.3822 23.7422 20.8926 23.5895 21.2344 23.2842C21.5762 22.9788 21.7926 22.4707 21.8838 21.7598H23.6064ZM31.1123 22.0742H30.2715V25H28.6104V17.6035H30.2715V20.5566H31.0029L33.0469 17.6035H35.0977L32.4248 21.1445L35.3232 25H33.1631L31.1123 22.0742ZM40.6553 25C40.5824 24.8587 40.5186 24.6286 40.4639 24.3096C39.9352 24.861 39.2881 25.1367 38.5225 25.1367C37.7796 25.1367 37.1735 24.9248 36.7041 24.501C36.2347 24.0771 36 23.5531 36 22.9287C36 22.1403 36.2917 21.5365 36.875 21.1172C37.4629 20.6934 38.3014 20.4814 39.3906 20.4814H40.4092V19.9961C40.4092 19.6133 40.3021 19.3079 40.0879 19.0801C39.8737 18.8477 39.5479 18.7314 39.1104 18.7314C38.7321 18.7314 38.4222 18.8271 38.1807 19.0186C37.9391 19.2054 37.8184 19.4447 37.8184 19.7363H36.1572C36.1572 19.3307 36.2917 18.9525 36.5605 18.6016C36.8294 18.2461 37.194 17.9681 37.6543 17.7676C38.1191 17.5671 38.6364 17.4668 39.2061 17.4668C40.0719 17.4668 40.7624 17.6855 41.2773 18.123C41.7923 18.556 42.0566 19.1667 42.0703 19.9551V23.291C42.0703 23.9564 42.1637 24.4873 42.3506 24.8838V25H40.6553ZM38.8301 23.8037C39.1582 23.8037 39.4658 23.724 39.7529 23.5645C40.0446 23.4049 40.2633 23.1908 40.4092 22.9219V21.5273H39.5137C38.8984 21.5273 38.4359 21.6344 38.126 21.8486C37.8161 22.0628 37.6611 22.3659 37.6611 22.7578C37.6611 23.0768 37.766 23.332 37.9756 23.5234C38.1898 23.7103 38.4746 23.8037 38.8301 23.8037ZM46.4385 22.0742H45.5977V25H43.9365V17.6035H45.5977V20.5566H46.3291L48.373 17.6035H50.4238L47.751 21.1445L50.6494 25H48.4893L46.4385 22.0742ZM50.8545 21.2334C50.8545 20.5088 50.998 19.8571 51.2852 19.2783C51.5723 18.695 51.9756 18.2484 52.4951 17.9385C53.0146 17.624 53.6117 17.4668 54.2861 17.4668C55.2842 17.4668 56.0931 17.7881 56.7129 18.4307C57.3372 19.0732 57.6745 19.9255 57.7246 20.9873L57.7314 21.377C57.7314 22.1061 57.5902 22.7578 57.3076 23.332C57.0296 23.9062 56.6286 24.3506 56.1045 24.665C55.585 24.9795 54.9834 25.1367 54.2998 25.1367C53.2562 25.1367 52.4199 24.7904 51.791 24.0977C51.1667 23.4004 50.8545 22.473 50.8545 21.3154V21.2334ZM52.5156 21.377C52.5156 22.138 52.6729 22.735 52.9873 23.168C53.3018 23.5964 53.7393 23.8105 54.2998 23.8105C54.8604 23.8105 55.2956 23.5918 55.6055 23.1543C55.9199 22.7168 56.0771 22.0765 56.0771 21.2334C56.0771 20.486 55.9154 19.8936 55.5918 19.4561C55.2728 19.0186 54.8376 18.7998 54.2861 18.7998C53.7438 18.7998 53.3132 19.0163 52.9941 19.4492C52.6751 19.8776 52.5156 20.5202 52.5156 21.377ZM64.0615 18.9434H60.8486V25H59.1943V17.6035H64.0615V18.9434ZM64.5537 21.2334C64.5537 20.5088 64.6973 19.8571 64.9844 19.2783C65.2715 18.695 65.6748 18.2484 66.1943 17.9385C66.7139 17.624 67.3109 17.4668 67.9854 17.4668C68.9834 17.4668 69.7923 17.7881 70.4121 18.4307C71.0365 19.0732 71.3737 19.9255 71.4238 20.9873L71.4307 21.377C71.4307 22.1061 71.2894 22.7578 71.0068 23.332C70.7288 23.9062 70.3278 24.3506 69.8037 24.665C69.2842 24.9795 68.6826 25.1367 67.999 25.1367C66.9554 25.1367 66.1191 24.7904 65.4902 24.0977C64.8659 23.4004 64.5537 22.473 64.5537 21.3154V21.2334ZM66.2148 21.377C66.2148 22.138 66.3721 22.735 66.6865 23.168C67.001 23.5964 67.4385 23.8105 67.999 23.8105C68.5596 23.8105 68.9948 23.5918 69.3047 23.1543C69.6191 22.7168 69.7764 22.0765 69.7764 21.2334C69.7764 20.486 69.6146 19.8936 69.291 19.4561C68.972 19.0186 68.5368 18.7998 67.9854 18.7998C67.443 18.7998 67.0124 19.0163 66.6934 19.4492C66.3743 19.8776 66.2148 20.5202 66.2148 21.377ZM76.4482 25V17.6035H79.4492C80.4609 17.6035 81.2311 17.7812 81.7598 18.1367C82.2884 18.4876 82.5527 18.9935 82.5527 19.6543C82.5527 19.9961 82.4456 20.3037 82.2314 20.5771C82.0218 20.846 81.7096 21.0534 81.2949 21.1992C81.778 21.2995 82.1608 21.5023 82.4434 21.8076C82.7259 22.113 82.8672 22.473 82.8672 22.8877C82.8672 23.5758 82.612 24.0999 82.1016 24.46C81.5957 24.82 80.8665 25 79.9141 25H76.4482ZM78.1094 21.8486V23.6875H79.9277C80.7799 23.6875 81.2061 23.3822 81.2061 22.7715C81.2061 22.1562 80.7731 21.8486 79.9072 21.8486H78.1094ZM78.1094 20.6592H79.4766C80.4199 20.6592 80.8916 20.3812 80.8916 19.8252C80.8916 19.2419 80.445 18.9411 79.5518 18.9229H78.1094V20.6592ZM83.9951 21.2334C83.9951 20.5088 84.1387 19.8571 84.4258 19.2783C84.7129 18.695 85.1162 18.2484 85.6357 17.9385C86.1553 17.624 86.7523 17.4668 87.4268 17.4668C88.4248 17.4668 89.2337 17.7881 89.8535 18.4307C90.4779 19.0732 90.8151 19.9255 90.8652 20.9873L90.8721 21.377C90.8721 22.1061 90.7308 22.7578 90.4482 23.332C90.1702 23.9062 89.7692 24.3506 89.2451 24.665C88.7256 24.9795 88.124 25.1367 87.4404 25.1367C86.3968 25.1367 85.5605 24.7904 84.9316 24.0977C84.3073 23.4004 83.9951 22.473 83.9951 21.3154V21.2334ZM85.6562 21.377C85.6562 22.138 85.8135 22.735 86.1279 23.168C86.4424 23.5964 86.8799 23.8105 87.4404 23.8105C88.001 23.8105 88.4362 23.5918 88.7461 23.1543C89.0605 22.7168 89.2178 22.0765 89.2178 21.2334C89.2178 20.486 89.056 19.8936 88.7324 19.4561C88.4134 19.0186 87.9782 18.7998 87.4268 18.7998C86.8844 18.7998 86.4538 19.0163 86.1348 19.4492C85.8158 19.8776 85.6562 20.5202 85.6562 21.377ZM97.8789 19.627C97.8789 19.9551 97.7786 20.2581 97.5781 20.5361C97.3822 20.8096 97.1042 21.0283 96.7441 21.1924C97.5918 21.4886 98.0156 22.0605 98.0156 22.9082C98.0156 23.5872 97.7399 24.1296 97.1885 24.5352C96.637 24.9362 95.8988 25.1367 94.9736 25.1367C94.4085 25.1367 93.8936 25.0433 93.4287 24.8564C92.9639 24.665 92.6016 24.3962 92.3418 24.0498C92.082 23.6989 91.9521 23.2842 91.9521 22.8057H93.6064C93.6064 23.1064 93.7409 23.3594 94.0098 23.5645C94.2786 23.765 94.6182 23.8652 95.0283 23.8652C95.4339 23.8652 95.7552 23.7718 95.9922 23.585C96.2337 23.3936 96.3545 23.1452 96.3545 22.8398C96.3545 22.4798 96.2497 22.2201 96.04 22.0605C95.8304 21.901 95.5068 21.8213 95.0693 21.8213H93.8799V20.625H95.1104C95.8532 20.6159 96.2246 20.3105 96.2246 19.709C96.2246 19.4082 96.1175 19.1735 95.9033 19.0049C95.6891 18.8363 95.3952 18.752 95.0215 18.752C94.6569 18.752 94.3493 18.8431 94.0986 19.0254C93.848 19.2031 93.7227 19.4287 93.7227 19.7021H92.0684C92.0684 19.0505 92.3418 18.5173 92.8887 18.1025C93.4355 17.6833 94.1305 17.4736 94.9736 17.4736C95.8896 17.4736 96.6029 17.6605 97.1133 18.0342C97.6237 18.4079 97.8789 18.9388 97.8789 19.627ZM105.904 21.377C105.904 22.5208 105.645 23.4346 105.125 24.1182C104.605 24.7972 103.908 25.1367 103.033 25.1367C102.222 25.1367 101.573 24.8701 101.085 24.3369V27.8438H99.4238V17.6035H100.955L101.023 18.3555C101.511 17.763 102.174 17.4668 103.013 17.4668C103.915 17.4668 104.621 17.804 105.132 18.4785C105.647 19.1484 105.904 20.0804 105.904 21.2744V21.377ZM104.25 21.2334C104.25 20.4951 104.102 19.9095 103.806 19.4766C103.514 19.0436 103.095 18.8271 102.548 18.8271C101.869 18.8271 101.381 19.1074 101.085 19.668V22.9492C101.386 23.5234 101.878 23.8105 102.562 23.8105C103.09 23.8105 103.503 23.5986 103.799 23.1748C104.1 22.7464 104.25 22.0993 104.25 21.2334ZM111.735 25C111.662 24.8587 111.599 24.6286 111.544 24.3096C111.015 24.861 110.368 25.1367 109.603 25.1367C108.86 25.1367 108.254 24.9248 107.784 24.501C107.315 24.0771 107.08 23.5531 107.08 22.9287C107.08 22.1403 107.372 21.5365 107.955 21.1172C108.543 20.6934 109.382 20.4814 110.471 20.4814H111.489V19.9961C111.489 19.6133 111.382 19.3079 111.168 19.0801C110.954 18.8477 110.628 18.7314 110.19 18.7314C109.812 18.7314 109.502 18.8271 109.261 19.0186C109.019 19.2054 108.898 19.4447 108.898 19.7363H107.237C107.237 19.3307 107.372 18.9525 107.641 18.6016C107.91 18.2461 108.274 17.9681 108.734 17.7676C109.199 17.5671 109.716 17.4668 110.286 17.4668C111.152 17.4668 111.842 17.6855 112.357 18.123C112.872 18.556 113.137 19.1667 113.15 19.9551V23.291C113.15 23.9564 113.244 24.4873 113.431 24.8838V25H111.735ZM109.91 23.8037C110.238 23.8037 110.546 23.724 110.833 23.5645C111.125 23.4049 111.343 23.1908 111.489 22.9219V21.5273H110.594C109.979 21.5273 109.516 21.6344 109.206 21.8486C108.896 22.0628 108.741 22.3659 108.741 22.7578C108.741 23.0768 108.846 23.332 109.056 23.5234C109.27 23.7103 109.555 23.8037 109.91 23.8037ZM117.929 23.8105C118.343 23.8105 118.688 23.6898 118.961 23.4482C119.234 23.2067 119.38 22.9082 119.398 22.5527H120.964C120.946 23.013 120.802 23.4437 120.533 23.8447C120.264 24.2412 119.9 24.5557 119.439 24.7881C118.979 25.0205 118.482 25.1367 117.949 25.1367C116.915 25.1367 116.094 24.8018 115.488 24.1318C114.882 23.4619 114.579 22.5368 114.579 21.3564V21.1855C114.579 20.0599 114.88 19.1598 115.481 18.4854C116.083 17.8063 116.903 17.4668 117.942 17.4668C118.822 17.4668 119.537 17.7243 120.089 18.2393C120.645 18.7497 120.937 19.4219 120.964 20.2559H119.398C119.38 19.832 119.234 19.4834 118.961 19.21C118.692 18.9365 118.348 18.7998 117.929 18.7998C117.391 18.7998 116.976 18.9958 116.685 19.3877C116.393 19.7751 116.245 20.3652 116.24 21.1582V21.4248C116.24 22.2269 116.384 22.8262 116.671 23.2227C116.963 23.6146 117.382 23.8105 117.929 23.8105ZM128.039 18.9229H125.64V25H123.979V18.9229H121.606V17.6035H128.039V18.9229ZM133.46 25C133.387 24.8587 133.323 24.6286 133.269 24.3096C132.74 24.861 132.093 25.1367 131.327 25.1367C130.584 25.1367 129.978 24.9248 129.509 24.501C129.039 24.0771 128.805 23.5531 128.805 22.9287C128.805 22.1403 129.096 21.5365 129.68 21.1172C130.268 20.6934 131.106 20.4814 132.195 20.4814H133.214V19.9961C133.214 19.6133 133.107 19.3079 132.893 19.0801C132.678 18.8477 132.353 18.7314 131.915 18.7314C131.537 18.7314 131.227 18.8271 130.985 19.0186C130.744 19.2054 130.623 19.4447 130.623 19.7363H128.962C128.962 19.3307 129.096 18.9525 129.365 18.6016C129.634 18.2461 129.999 17.9681 130.459 17.7676C130.924 17.5671 131.441 17.4668 132.011 17.4668C132.877 17.4668 133.567 17.6855 134.082 18.123C134.597 18.556 134.861 19.1667 134.875 19.9551V23.291C134.875 23.9564 134.968 24.4873 135.155 24.8838V25H133.46ZM131.635 23.8037C131.963 23.8037 132.271 23.724 132.558 23.5645C132.849 23.4049 133.068 23.1908 133.214 22.9219V21.5273H132.318C131.703 21.5273 131.241 21.6344 130.931 21.8486C130.621 22.0628 130.466 22.3659 130.466 22.7578C130.466 23.0768 130.571 23.332 130.78 23.5234C130.994 23.7103 131.279 23.8037 131.635 23.8037ZM144.493 22.9561L146.681 17.6035H148.759V25H147.098V20.1055L145.061 25H143.933L141.889 20.0781V25H140.228V17.6035H142.319L144.493 22.9561ZM150.317 21.2334C150.317 20.5088 150.461 19.8571 150.748 19.2783C151.035 18.695 151.438 18.2484 151.958 17.9385C152.478 17.624 153.075 17.4668 153.749 17.4668C154.747 17.4668 155.556 17.7881 156.176 18.4307C156.8 19.0732 157.137 19.9255 157.188 20.9873L157.194 21.377C157.194 22.1061 157.053 22.7578 156.771 23.332C156.493 23.9062 156.091 24.3506 155.567 24.665C155.048 24.9795 154.446 25.1367 153.763 25.1367C152.719 25.1367 151.883 24.7904 151.254 24.0977C150.63 23.4004 150.317 22.473 150.317 21.3154V21.2334ZM151.979 21.377C151.979 22.138 152.136 22.735 152.45 23.168C152.765 23.5964 153.202 23.8105 153.763 23.8105C154.323 23.8105 154.758 23.5918 155.068 23.1543C155.383 22.7168 155.54 22.0765 155.54 21.2334C155.54 20.486 155.378 19.8936 155.055 19.4561C154.736 19.0186 154.3 18.7998 153.749 18.7998C153.207 18.7998 152.776 19.0163 152.457 19.4492C152.138 19.8776 151.979 20.5202 151.979 21.377ZM164.96 22.0264H164.078V25H162.417V22.0264H161.542L159.84 25H157.803L160.257 21.1514L157.933 17.6035H159.963L161.638 20.5088H162.417V17.6035H164.078V20.5088H164.864L166.546 17.6035H168.576L166.259 21.1309L168.727 25H166.662L164.96 22.0264ZM176.021 25H174.359V22.0127H171.481V25H169.82V17.6035H171.481V20.6865H174.359V17.6035H176.021V25ZM177.483 21.2334C177.483 20.5088 177.627 19.8571 177.914 19.2783C178.201 18.695 178.604 18.2484 179.124 17.9385C179.644 17.624 180.241 17.4668 180.915 17.4668C181.913 17.4668 182.722 17.7881 183.342 18.4307C183.966 19.0732 184.303 19.9255 184.354 20.9873L184.36 21.377C184.36 22.1061 184.219 22.7578 183.937 23.332C183.659 23.9062 183.257 24.3506 182.733 24.665C182.214 24.9795 181.612 25.1367 180.929 25.1367C179.885 25.1367 179.049 24.7904 178.42 24.0977C177.796 23.4004 177.483 22.473 177.483 21.3154V21.2334ZM179.145 21.377C179.145 22.138 179.302 22.735 179.616 23.168C179.931 23.5964 180.368 23.8105 180.929 23.8105C181.489 23.8105 181.924 23.5918 182.234 23.1543C182.549 22.7168 182.706 22.0765 182.706 21.2334C182.706 20.486 182.544 19.8936 182.221 19.4561C181.902 19.0186 181.466 18.7998 180.915 18.7998C180.373 18.7998 179.942 19.0163 179.623 19.4492C179.304 19.8776 179.145 20.5202 179.145 21.377ZM21.4531 39.627C21.4531 39.9551 21.3529 40.2581 21.1523 40.5361C20.9564 40.8096 20.6784 41.0283 20.3184 41.1924C21.166 41.4886 21.5898 42.0605 21.5898 42.9082C21.5898 43.5872 21.3141 44.1296 20.7627 44.5352C20.2113 44.9362 19.473 45.1367 18.5479 45.1367C17.9827 45.1367 17.4678 45.0433 17.0029 44.8564C16.5381 44.665 16.1758 44.3962 15.916 44.0498C15.6562 43.6989 15.5264 43.2842 15.5264 42.8057H17.1807C17.1807 43.1064 17.3151 43.3594 17.584 43.5645C17.8529 43.765 18.1924 43.8652 18.6025 43.8652C19.0081 43.8652 19.3294 43.7718 19.5664 43.585C19.8079 43.3936 19.9287 43.1452 19.9287 42.8398C19.9287 42.4798 19.8239 42.2201 19.6143 42.0605C19.4046 41.901 19.0811 41.8213 18.6436 41.8213H17.4541V40.625H18.6846C19.4274 40.6159 19.7988 40.3105 19.7988 39.709C19.7988 39.4082 19.6917 39.1735 19.4775 39.0049C19.2633 38.8363 18.9694 38.752 18.5957 38.752C18.2311 38.752 17.9235 38.8431 17.6729 39.0254C17.4222 39.2031 17.2969 39.4287 17.2969 39.7021H15.6426C15.6426 39.0505 15.916 38.5173 16.4629 38.1025C17.0098 37.6833 17.7048 37.4736 18.5479 37.4736C19.4639 37.4736 20.1771 37.6605 20.6875 38.0342C21.1979 38.4079 21.4531 38.9388 21.4531 39.627ZM27.4209 45C27.348 44.8587 27.2842 44.6286 27.2295 44.3096C26.7008 44.861 26.0537 45.1367 25.2881 45.1367C24.5452 45.1367 23.9391 44.9248 23.4697 44.501C23.0003 44.0771 22.7656 43.5531 22.7656 42.9287C22.7656 42.1403 23.0573 41.5365 23.6406 41.1172C24.2285 40.6934 25.0671 40.4814 26.1562 40.4814H27.1748V39.9961C27.1748 39.6133 27.0677 39.3079 26.8535 39.0801C26.6393 38.8477 26.3135 38.7314 25.876 38.7314C25.4977 38.7314 25.1878 38.8271 24.9463 39.0186C24.7048 39.2054 24.584 39.4447 24.584 39.7363H22.9229C22.9229 39.3307 23.0573 38.9525 23.3262 38.6016C23.5951 38.2461 23.9596 37.9681 24.4199 37.7676C24.8848 37.5671 25.402 37.4668 25.9717 37.4668C26.8376 37.4668 27.528 37.6855 28.043 38.123C28.5579 38.556 28.8223 39.1667 28.8359 39.9551V43.291C28.8359 43.9564 28.9294 44.4873 29.1162 44.8838V45H27.4209ZM25.5957 43.8037C25.9238 43.8037 26.2314 43.724 26.5186 43.5645C26.8102 43.4049 27.029 43.1908 27.1748 42.9219V41.5273H26.2793C25.6641 41.5273 25.2015 41.6344 24.8916 41.8486C24.5817 42.0628 24.4268 42.3659 24.4268 42.7578C24.4268 43.0768 24.5316 43.332 24.7412 43.5234C24.9554 43.7103 25.2402 43.8037 25.5957 43.8037ZM34.0586 38.0137C34.9883 38.0137 35.7334 38.3258 36.2939 38.9502C36.8545 39.57 37.1348 40.4131 37.1348 41.4795V41.5615C37.1348 42.6279 36.8294 43.4915 36.2188 44.1523C35.6126 44.8132 34.7878 45.1436 33.7441 45.1436C32.7279 45.1436 31.9076 44.8063 31.2832 44.1318C30.6589 43.4574 30.3467 42.5368 30.3467 41.3701V40.8916C30.3467 39.2965 30.6292 38.0342 31.1943 37.1045C31.7594 36.1748 32.6025 35.5938 33.7236 35.3613C34.3525 35.2337 34.7581 35.0993 34.9404 34.958C35.1273 34.8122 35.2207 34.6162 35.2207 34.3701H36.5605C36.5605 34.8304 36.4854 35.2041 36.335 35.4912C36.1846 35.7783 35.9544 36.013 35.6445 36.1953C35.3346 36.373 34.8014 36.5417 34.0449 36.7012C33.3522 36.847 32.8236 37.1068 32.459 37.4805C32.099 37.8542 31.8574 38.3714 31.7344 39.0322C32.3952 38.3532 33.1699 38.0137 34.0586 38.0137ZM33.7305 39.3467C33.1927 39.3467 32.7712 39.529 32.4658 39.8936C32.1605 40.2536 32.0078 40.8096 32.0078 41.5615C32.0078 42.2725 32.1582 42.8262 32.459 43.2227C32.7598 43.6191 33.1882 43.8174 33.7441 43.8174C34.2956 43.8174 34.7217 43.6191 35.0225 43.2227C35.3278 42.8216 35.4805 42.2201 35.4805 41.418C35.4805 40.7799 35.3278 40.2764 35.0225 39.9072C34.7217 39.5335 34.291 39.3467 33.7305 39.3467ZM42.9316 37.6035H44.5859V45H42.9316V40.0645L40.0332 45H38.3789V37.6035H40.0332V42.5391L42.9316 37.6035ZM52.8301 41.377C52.8301 42.5208 52.5703 43.4346 52.0508 44.1182C51.5312 44.7972 50.834 45.1367 49.959 45.1367C49.1478 45.1367 48.4984 44.8701 48.0107 44.3369V47.8438H46.3496V37.6035H47.8809L47.9492 38.3555C48.4368 37.763 49.0999 37.4668 49.9385 37.4668C50.8408 37.4668 51.5472 37.804 52.0576 38.4785C52.5726 39.1484 52.8301 40.0804 52.8301 41.2744V41.377ZM51.1758 41.2334C51.1758 40.4951 51.0277 39.9095 50.7314 39.4766C50.4398 39.0436 50.0205 38.8271 49.4736 38.8271C48.7946 38.8271 48.307 39.1074 48.0107 39.668V42.9492C48.3115 43.5234 48.8037 43.8105 49.4873 43.8105C50.016 43.8105 50.4284 43.5986 50.7246 43.1748C51.0254 42.7464 51.1758 42.0993 51.1758 41.2334ZM58.6611 45C58.5882 44.8587 58.5244 44.6286 58.4697 44.3096C57.9411 44.861 57.2939 45.1367 56.5283 45.1367C55.7855 45.1367 55.1794 44.9248 54.71 44.501C54.2406 44.0771 54.0059 43.5531 54.0059 42.9287C54.0059 42.1403 54.2975 41.5365 54.8809 41.1172C55.4688 40.6934 56.3073 40.4814 57.3965 40.4814H58.415V39.9961C58.415 39.6133 58.3079 39.3079 58.0938 39.0801C57.8796 38.8477 57.5537 38.7314 57.1162 38.7314C56.738 38.7314 56.4281 38.8271 56.1865 39.0186C55.945 39.2054 55.8242 39.4447 55.8242 39.7363H54.1631C54.1631 39.3307 54.2975 38.9525 54.5664 38.6016C54.8353 38.2461 55.1999 37.9681 55.6602 37.7676C56.125 37.5671 56.6423 37.4668 57.2119 37.4668C58.0778 37.4668 58.7682 37.6855 59.2832 38.123C59.7982 38.556 60.0625 39.1667 60.0762 39.9551V43.291C60.0762 43.9564 60.1696 44.4873 60.3564 44.8838V45H58.6611ZM56.8359 43.8037C57.1641 43.8037 57.4717 43.724 57.7588 43.5645C58.0505 43.4049 58.2692 43.1908 58.415 42.9219V41.5273H57.5195C56.9043 41.5273 56.4417 41.6344 56.1318 41.8486C55.8219 42.0628 55.667 42.3659 55.667 42.7578C55.667 43.0768 55.7718 43.332 55.9814 43.5234C56.1956 43.7103 56.4805 43.8037 56.8359 43.8037ZM67.5273 38.9229H65.1279V45H63.4668V38.9229H61.0947V37.6035H67.5273V38.9229ZM70.4258 39.9551H72.0527C72.6589 39.9551 73.1875 40.0599 73.6387 40.2695C74.0898 40.4792 74.4316 40.7731 74.6641 41.1514C74.901 41.5296 75.0195 41.9694 75.0195 42.4707C75.0195 43.2318 74.7507 43.8424 74.2129 44.3027C73.6751 44.763 72.9596 44.9954 72.0664 45H68.7646V37.6035H70.4258V39.9551ZM70.4258 41.2881V43.6738H72.0459C72.4515 43.6738 72.7705 43.5736 73.0029 43.373C73.2399 43.168 73.3584 42.8786 73.3584 42.5049C73.3584 42.1312 73.2422 41.8372 73.0098 41.623C72.7819 41.4043 72.472 41.2926 72.0801 41.2881H70.4258ZM82.4639 42.0742H81.623V45H79.9619V37.6035H81.623V40.5566H82.3545L84.3984 37.6035H86.4492L83.7764 41.1445L86.6748 45H84.5146L82.4639 42.0742ZM86.8799 41.2334C86.8799 40.5088 87.0234 39.8571 87.3105 39.2783C87.5977 38.695 88.001 38.2484 88.5205 37.9385C89.04 37.624 89.637 37.4668 90.3115 37.4668C91.3096 37.4668 92.1185 37.7881 92.7383 38.4307C93.3626 39.0732 93.6999 39.9255 93.75 40.9873L93.7568 41.377C93.7568 42.1061 93.6156 42.7578 93.333 43.332C93.055 43.9062 92.654 44.3506 92.1299 44.665C91.6104 44.9795 91.0088 45.1367 90.3252 45.1367C89.2816 45.1367 88.4453 44.7904 87.8164 44.0977C87.1921 43.4004 86.8799 42.473 86.8799 41.3154V41.2334ZM88.541 41.377C88.541 42.138 88.6982 42.735 89.0127 43.168C89.3271 43.5964 89.7646 43.8105 90.3252 43.8105C90.8857 43.8105 91.321 43.5918 91.6309 43.1543C91.9453 42.7168 92.1025 42.0765 92.1025 41.2334C92.1025 40.486 91.9408 39.8936 91.6172 39.4561C91.2982 39.0186 90.863 38.7998 90.3115 38.7998C89.7692 38.7998 89.3385 39.0163 89.0195 39.4492C88.7005 39.8776 88.541 40.5202 88.541 41.377ZM100.777 38.9229H98.3779V45H96.7168V38.9229H94.3447V37.6035H100.777V38.9229ZM104.708 45.1367C103.655 45.1367 102.801 44.8063 102.145 44.1455C101.493 43.4801 101.167 42.596 101.167 41.4932V41.2881C101.167 40.5498 101.308 39.8913 101.591 39.3125C101.878 38.7292 102.279 38.2757 102.794 37.9521C103.309 37.6286 103.883 37.4668 104.517 37.4668C105.524 37.4668 106.301 37.7881 106.848 38.4307C107.399 39.0732 107.675 39.9824 107.675 41.1582V41.8281H102.842C102.892 42.4388 103.095 42.9219 103.45 43.2773C103.81 43.6328 104.261 43.8105 104.804 43.8105C105.565 43.8105 106.185 43.5029 106.663 42.8877L107.559 43.7422C107.262 44.1842 106.866 44.5283 106.369 44.7744C105.877 45.016 105.323 45.1367 104.708 45.1367ZM104.51 38.7998C104.054 38.7998 103.685 38.9593 103.402 39.2783C103.124 39.5973 102.947 40.0417 102.869 40.6113H106.034V40.4883C105.998 39.9323 105.85 39.513 105.59 39.2305C105.33 38.9434 104.97 38.7998 104.51 38.7998ZM115.235 45H113.574V42.0127H110.696V45H109.035V37.6035H110.696V40.6865H113.574V37.6035H115.235V45ZM119.638 42.0742H118.797V45H117.136V37.6035H118.797V40.5566H119.528L121.572 37.6035H123.623L120.95 41.1445L123.849 45H121.688L119.638 42.0742ZM129.181 45C129.108 44.8587 129.044 44.6286 128.989 44.3096C128.461 44.861 127.813 45.1367 127.048 45.1367C126.305 45.1367 125.699 44.9248 125.229 44.501C124.76 44.0771 124.525 43.5531 124.525 42.9287C124.525 42.1403 124.817 41.5365 125.4 41.1172C125.988 40.6934 126.827 40.4814 127.916 40.4814H128.935V39.9961C128.935 39.6133 128.827 39.3079 128.613 39.0801C128.399 38.8477 128.073 38.7314 127.636 38.7314C127.257 38.7314 126.948 38.8271 126.706 39.0186C126.465 39.2054 126.344 39.4447 126.344 39.7363H124.683C124.683 39.3307 124.817 38.9525 125.086 38.6016C125.355 38.2461 125.719 37.9681 126.18 37.7676C126.645 37.5671 127.162 37.4668 127.731 37.4668C128.597 37.4668 129.288 37.6855 129.803 38.123C130.318 38.556 130.582 39.1667 130.596 39.9551V43.291C130.596 43.9564 130.689 44.4873 130.876 44.8838V45H129.181ZM127.355 43.8037C127.684 43.8037 127.991 43.724 128.278 43.5645C128.57 43.4049 128.789 43.1908 128.935 42.9219V41.5273H128.039C127.424 41.5273 126.961 41.6344 126.651 41.8486C126.341 42.0628 126.187 42.3659 126.187 42.7578C126.187 43.0768 126.291 43.332 126.501 43.5234C126.715 43.7103 127 43.8037 127.355 43.8037ZM140.439 37.6035H142.094V45H140.439V40.0645L137.541 45H135.887V37.6035H137.541V42.5391L140.439 37.6035ZM149.463 39.627C149.463 39.9551 149.363 40.2581 149.162 40.5361C148.966 40.8096 148.688 41.0283 148.328 41.1924C149.176 41.4886 149.6 42.0605 149.6 42.9082C149.6 43.5872 149.324 44.1296 148.772 44.5352C148.221 44.9362 147.483 45.1367 146.558 45.1367C145.993 45.1367 145.478 45.0433 145.013 44.8564C144.548 44.665 144.186 44.3962 143.926 44.0498C143.666 43.6989 143.536 43.2842 143.536 42.8057H145.19C145.19 43.1064 145.325 43.3594 145.594 43.5645C145.863 43.765 146.202 43.8652 146.612 43.8652C147.018 43.8652 147.339 43.7718 147.576 43.585C147.818 43.3936 147.938 43.1452 147.938 42.8398C147.938 42.4798 147.834 42.2201 147.624 42.0605C147.414 41.901 147.091 41.8213 146.653 41.8213H145.464V40.625H146.694C147.437 40.6159 147.809 40.3105 147.809 39.709C147.809 39.4082 147.701 39.1735 147.487 39.0049C147.273 38.8363 146.979 38.752 146.605 38.752C146.241 38.752 145.933 38.8431 145.683 39.0254C145.432 39.2031 145.307 39.4287 145.307 39.7021H143.652C143.652 39.0505 143.926 38.5173 144.473 38.1025C145.02 37.6833 145.715 37.4736 146.558 37.4736C147.474 37.4736 148.187 37.6605 148.697 38.0342C149.208 38.4079 149.463 38.9388 149.463 39.627ZM160.77 45H159.108V38.9434H156.224V45H154.562V37.6035H160.77V45ZM167.154 37.6035H168.809V45H167.154V40.0645L164.256 45H162.602V37.6035H164.256V42.5391L167.154 37.6035ZM176.396 38.9229H173.997V45H172.336V38.9229H169.964V37.6035H176.396V38.9229ZM176.991 41.2334C176.991 40.5088 177.135 39.8571 177.422 39.2783C177.709 38.695 178.112 38.2484 178.632 37.9385C179.151 37.624 179.748 37.4668 180.423 37.4668C181.421 37.4668 182.23 37.7881 182.85 38.4307C183.474 39.0732 183.811 39.9255 183.861 40.9873L183.868 41.377C183.868 42.1061 183.727 42.7578 183.444 43.332C183.166 43.9062 182.765 44.3506 182.241 44.665C181.722 44.9795 181.12 45.1367 180.437 45.1367C179.393 45.1367 178.557 44.7904 177.928 44.0977C177.303 43.4004 176.991 42.473 176.991 41.3154V41.2334ZM178.652 41.377C178.652 42.138 178.81 42.735 179.124 43.168C179.438 43.5964 179.876 43.8105 180.437 43.8105C180.997 43.8105 181.432 43.5918 181.742 43.1543C182.057 42.7168 182.214 42.0765 182.214 41.2334C182.214 40.486 182.052 39.8936 181.729 39.4561C181.41 39.0186 180.974 38.7998 180.423 38.7998C179.881 38.7998 179.45 39.0163 179.131 39.4492C178.812 39.8776 178.652 40.5202 178.652 41.377ZM189.665 42.9561L191.853 37.6035H193.931V45H192.27V40.1055L190.232 45H189.104L187.061 40.0781V45H185.399V37.6035H187.491L189.665 42.9561ZM202.065 45H200.404V42.0127H197.526V45H195.865V37.6035H197.526V40.6865H200.404V37.6035H202.065V45ZM208.457 37.6035H210.111V45H208.457V40.0645L205.559 45H203.904V37.6035H205.559V42.5391L208.457 37.6035ZM214.507 42.0742H213.666V45H212.005V37.6035H213.666V40.5566H214.397L216.441 37.6035H218.492L215.819 41.1445L218.718 45H216.558L214.507 42.0742ZM224.05 45C223.977 44.8587 223.913 44.6286 223.858 44.3096C223.33 44.861 222.683 45.1367 221.917 45.1367C221.174 45.1367 220.568 44.9248 220.099 44.501C219.629 44.0771 219.395 43.5531 219.395 42.9287C219.395 42.1403 219.686 41.5365 220.27 41.1172C220.857 40.6934 221.696 40.4814 222.785 40.4814H223.804V39.9961C223.804 39.6133 223.697 39.3079 223.482 39.0801C223.268 38.8477 222.942 38.7314 222.505 38.7314C222.127 38.7314 221.817 38.8271 221.575 39.0186C221.334 39.2054 221.213 39.4447 221.213 39.7363H219.552C219.552 39.3307 219.686 38.9525 219.955 38.6016C220.224 38.2461 220.589 37.9681 221.049 37.7676C221.514 37.5671 222.031 37.4668 222.601 37.4668C223.466 37.4668 224.157 37.6855 224.672 38.123C225.187 38.556 225.451 39.1667 225.465 39.9551V43.291C225.465 43.9564 225.558 44.4873 225.745 44.8838V45H224.05ZM222.225 43.8037C222.553 43.8037 222.86 43.724 223.147 43.5645C223.439 43.4049 223.658 43.1908 223.804 42.9219V41.5273H222.908C222.293 41.5273 221.83 41.6344 221.521 41.8486C221.211 42.0628 221.056 42.3659 221.056 42.7578C221.056 43.0768 221.16 43.332 221.37 43.5234C221.584 43.7103 221.869 43.8037 222.225 43.8037ZM228.746 42.0742C228.746 41.4681 228.821 40.985 228.972 40.625C229.122 40.265 229.418 39.8708 229.86 39.4424C230.307 39.0094 230.59 38.7018 230.708 38.5195C230.89 38.2415 230.981 37.9408 230.981 37.6172C230.981 37.1888 230.874 36.863 230.66 36.6396C230.451 36.4118 230.141 36.2979 229.73 36.2979C229.339 36.2979 229.022 36.4095 228.78 36.6328C228.543 36.8516 228.425 37.1501 228.425 37.5283H226.764C226.773 36.7217 227.046 36.0837 227.584 35.6143C228.126 35.1449 228.842 34.9102 229.73 34.9102C230.646 34.9102 231.36 35.1426 231.87 35.6074C232.385 36.0723 232.643 36.7217 232.643 37.5557C232.643 38.2985 232.296 39.0299 231.604 39.75L230.763 40.5771C230.462 40.9189 230.307 41.418 230.298 42.0742H228.746ZM228.63 44.2002C228.63 43.9313 228.714 43.7148 228.883 43.5508C229.051 43.3822 229.279 43.2979 229.566 43.2979C229.858 43.2979 230.088 43.3844 230.257 43.5576C230.425 43.7262 230.51 43.9404 230.51 44.2002C230.51 44.4508 230.428 44.6605 230.264 44.8291C230.1 44.9977 229.867 45.082 229.566 45.082C229.266 45.082 229.033 44.9977 228.869 44.8291C228.71 44.6605 228.63 44.4508 228.63 44.2002Z" fill="#DDD0C3"/>
</svg>
