<svg width="290" height="43" viewBox="0 0 290 43" fill="none" xmlns="http://www.w3.org/2000/svg">
<rect x="0.25" y="0.25" width="289.5" height="42.5" stroke="#544332" stroke-width="0.5"/>
<path d="M18.958 23.7344H17.7822V28H16.0596V18.0469H17.7822V22.2305H18.7324L21.6582 18.0469H23.7773L20.3594 22.8115L24.0781 28H22L18.958 23.7344ZM29.2939 28C29.221 27.8587 29.1572 27.6286 29.1025 27.3096C28.5739 27.861 27.9268 28.1367 27.1611 28.1367C26.4183 28.1367 25.8122 27.9248 25.3428 27.501C24.8734 27.0771 24.6387 26.5531 24.6387 25.9287C24.6387 25.1403 24.9303 24.5365 25.5137 24.1172C26.1016 23.6934 26.9401 23.4814 28.0293 23.4814H29.0479V22.9961C29.0479 22.6133 28.9408 22.3079 28.7266 22.0801C28.5124 21.8477 28.1865 21.7314 27.749 21.7314C27.3708 21.7314 27.0609 21.8271 26.8193 22.0186C26.5778 22.2054 26.457 22.4447 26.457 22.7363H24.7959C24.7959 22.3307 24.9303 21.9525 25.1992 21.6016C25.4681 21.2461 25.8327 20.9681 26.293 20.7676C26.7578 20.5671 27.2751 20.4668 27.8447 20.4668C28.7106 20.4668 29.401 20.6855 29.916 21.123C30.431 21.556 30.6953 22.1667 30.709 22.9551V26.291C30.709 26.9564 30.8024 27.4873 30.9893 27.8838V28H29.2939ZM27.4688 26.8037C27.7969 26.8037 28.1045 26.724 28.3916 26.5645C28.6833 26.4049 28.902 26.1908 29.0479 25.9219V24.5273H28.1523C27.5371 24.5273 27.0745 24.6344 26.7646 24.8486C26.4548 25.0628 26.2998 25.3659 26.2998 25.7578C26.2998 26.0768 26.4046 26.332 26.6143 26.5234C26.8285 26.7103 27.1133 26.8037 27.4688 26.8037ZM35.0771 25.0742H34.2363V28H32.5752V20.6035H34.2363V23.5566H34.9678L37.0117 20.6035H39.0625L36.3896 24.1445L39.2881 28H37.1279L35.0771 25.0742ZM49.2891 22.627C49.2891 22.9551 49.1888 23.2581 48.9883 23.5361C48.7923 23.8096 48.5143 24.0283 48.1543 24.1924C49.002 24.4886 49.4258 25.0605 49.4258 25.9082C49.4258 26.5872 49.1501 27.1296 48.5986 27.5352C48.0472 27.9362 47.3089 28.1367 46.3838 28.1367C45.8187 28.1367 45.3037 28.0433 44.8389 27.8564C44.374 27.665 44.0117 27.3962 43.752 27.0498C43.4922 26.6989 43.3623 26.2842 43.3623 25.8057H45.0166C45.0166 26.1064 45.151 26.3594 45.4199 26.5645C45.6888 26.765 46.0283 26.8652 46.4385 26.8652C46.8441 26.8652 47.1654 26.7718 47.4023 26.585C47.6439 26.3936 47.7646 26.1452 47.7646 25.8398C47.7646 25.4798 47.6598 25.2201 47.4502 25.0605C47.2406 24.901 46.917 24.8213 46.4795 24.8213H45.29V23.625H46.5205C47.2633 23.6159 47.6348 23.3105 47.6348 22.709C47.6348 22.4082 47.5277 22.1735 47.3135 22.0049C47.0993 21.8363 46.8053 21.752 46.4316 21.752C46.0671 21.752 45.7594 21.8431 45.5088 22.0254C45.2581 22.2031 45.1328 22.4287 45.1328 22.7021H43.4785C43.4785 22.0505 43.752 21.5173 44.2988 21.1025C44.8457 20.6833 45.5407 20.4736 46.3838 20.4736C47.2998 20.4736 48.013 20.6605 48.5234 21.0342C49.0339 21.4079 49.2891 21.9388 49.2891 22.627ZM55.2568 28C55.1839 27.8587 55.1201 27.6286 55.0654 27.3096C54.5368 27.861 53.8896 28.1367 53.124 28.1367C52.3812 28.1367 51.7751 27.9248 51.3057 27.501C50.8363 27.0771 50.6016 26.5531 50.6016 25.9287C50.6016 25.1403 50.8932 24.5365 51.4766 24.1172C52.0645 23.6934 52.903 23.4814 53.9922 23.4814H55.0107V22.9961C55.0107 22.6133 54.9036 22.3079 54.6895 22.0801C54.4753 21.8477 54.1494 21.7314 53.7119 21.7314C53.3337 21.7314 53.0238 21.8271 52.7822 22.0186C52.5407 22.2054 52.4199 22.4447 52.4199 22.7363H50.7588C50.7588 22.3307 50.8932 21.9525 51.1621 21.6016C51.431 21.2461 51.7956 20.9681 52.2559 20.7676C52.7207 20.5671 53.238 20.4668 53.8076 20.4668C54.6735 20.4668 55.3639 20.6855 55.8789 21.123C56.3939 21.556 56.6582 22.1667 56.6719 22.9551V26.291C56.6719 26.9564 56.7653 27.4873 56.9521 27.8838V28H55.2568ZM53.4316 26.8037C53.7598 26.8037 54.0674 26.724 54.3545 26.5645C54.6462 26.4049 54.8649 26.1908 55.0107 25.9219V24.5273H54.1152C53.5 24.5273 53.0374 24.6344 52.7275 24.8486C52.4176 25.0628 52.2627 25.3659 52.2627 25.7578C52.2627 26.0768 52.3675 26.332 52.5771 26.5234C52.7913 26.7103 53.0762 26.8037 53.4316 26.8037ZM64.8887 24.377C64.8887 25.5208 64.6289 26.4346 64.1094 27.1182C63.5898 27.7972 62.8926 28.1367 62.0176 28.1367C61.2064 28.1367 60.557 27.8701 60.0693 27.3369V30.8438H58.4082V20.6035H59.9395L60.0078 21.3555C60.4954 20.763 61.1585 20.4668 61.9971 20.4668C62.8994 20.4668 63.6058 20.804 64.1162 21.4785C64.6312 22.1484 64.8887 23.0804 64.8887 24.2744V24.377ZM63.2344 24.2334C63.2344 23.4951 63.0863 22.9095 62.79 22.4766C62.4984 22.0436 62.0791 21.8271 61.5322 21.8271C60.8532 21.8271 60.3656 22.1074 60.0693 22.668V25.9492C60.3701 26.5234 60.8623 26.8105 61.5459 26.8105C62.0745 26.8105 62.487 26.5986 62.7832 26.1748C63.084 25.7464 63.2344 25.0993 63.2344 24.2334ZM69.5576 28.1367C68.5049 28.1367 67.6504 27.8063 66.9941 27.1455C66.3424 26.4801 66.0166 25.596 66.0166 24.4932V24.2881C66.0166 23.5498 66.1579 22.8913 66.4404 22.3125C66.7275 21.7292 67.1286 21.2757 67.6436 20.9521C68.1585 20.6286 68.7327 20.4668 69.3662 20.4668C70.3734 20.4668 71.1504 20.7881 71.6973 21.4307C72.2487 22.0732 72.5244 22.9824 72.5244 24.1582V24.8281H67.6914C67.7415 25.4388 67.9443 25.9219 68.2998 26.2773C68.6598 26.6328 69.111 26.8105 69.6533 26.8105C70.4144 26.8105 71.0342 26.5029 71.5127 25.8877L72.4082 26.7422C72.112 27.1842 71.7155 27.5283 71.2188 27.7744C70.7266 28.016 70.1729 28.1367 69.5576 28.1367ZM69.3594 21.7998C68.9036 21.7998 68.5345 21.9593 68.252 22.2783C67.974 22.5973 67.7962 23.0417 67.7188 23.6113H70.8838V23.4883C70.8473 22.9323 70.6992 22.513 70.4395 22.2305C70.1797 21.9434 69.8197 21.7998 69.3594 21.7998ZM79.4219 22.627C79.4219 22.9551 79.3216 23.2581 79.1211 23.5361C78.9251 23.8096 78.6471 24.0283 78.2871 24.1924C79.1348 24.4886 79.5586 25.0605 79.5586 25.9082C79.5586 26.5872 79.2829 27.1296 78.7314 27.5352C78.18 27.9362 77.4417 28.1367 76.5166 28.1367C75.9515 28.1367 75.4365 28.0433 74.9717 27.8564C74.5068 27.665 74.1445 27.3962 73.8848 27.0498C73.625 26.6989 73.4951 26.2842 73.4951 25.8057H75.1494C75.1494 26.1064 75.2839 26.3594 75.5527 26.5645C75.8216 26.765 76.1611 26.8652 76.5713 26.8652C76.9769 26.8652 77.2982 26.7718 77.5352 26.585C77.7767 26.3936 77.8975 26.1452 77.8975 25.8398C77.8975 25.4798 77.7926 25.2201 77.583 25.0605C77.3734 24.901 77.0498 24.8213 76.6123 24.8213H75.4229V23.625H76.6533C77.3962 23.6159 77.7676 23.3105 77.7676 22.709C77.7676 22.4082 77.6605 22.1735 77.4463 22.0049C77.2321 21.8363 76.9382 21.752 76.5645 21.752C76.1999 21.752 75.8923 21.8431 75.6416 22.0254C75.391 22.2031 75.2656 22.4287 75.2656 22.7021H73.6113C73.6113 22.0505 73.8848 21.5173 74.4316 21.1025C74.9785 20.6833 75.6735 20.4736 76.5166 20.4736C77.4326 20.4736 78.1458 20.6605 78.6562 21.0342C79.1667 21.4079 79.4219 21.9388 79.4219 22.627ZM84.2275 28.1367C83.1748 28.1367 82.3203 27.8063 81.6641 27.1455C81.0124 26.4801 80.6865 25.596 80.6865 24.4932V24.2881C80.6865 23.5498 80.8278 22.8913 81.1104 22.3125C81.3975 21.7292 81.7985 21.2757 82.3135 20.9521C82.8285 20.6286 83.4027 20.4668 84.0361 20.4668C85.0433 20.4668 85.8203 20.7881 86.3672 21.4307C86.9186 22.0732 87.1943 22.9824 87.1943 24.1582V24.8281H82.3613C82.4115 25.4388 82.6143 25.9219 82.9697 26.2773C83.3298 26.6328 83.7809 26.8105 84.3232 26.8105C85.0843 26.8105 85.7041 26.5029 86.1826 25.8877L87.0781 26.7422C86.7819 27.1842 86.3854 27.5283 85.8887 27.7744C85.3965 28.016 84.8428 28.1367 84.2275 28.1367ZM84.0293 21.7998C83.5736 21.7998 83.2044 21.9593 82.9219 22.2783C82.6439 22.5973 82.4661 23.0417 82.3887 23.6113H85.5537V23.4883C85.5173 22.9323 85.3691 22.513 85.1094 22.2305C84.8496 21.9434 84.4896 21.7998 84.0293 21.7998ZM94.9668 24.377C94.9668 25.5208 94.707 26.4346 94.1875 27.1182C93.668 27.7972 92.9707 28.1367 92.0957 28.1367C91.2845 28.1367 90.6351 27.8701 90.1475 27.3369V30.8438H88.4863V20.6035H90.0176L90.0859 21.3555C90.5736 20.763 91.2367 20.4668 92.0752 20.4668C92.9775 20.4668 93.6839 20.804 94.1943 21.4785C94.7093 22.1484 94.9668 23.0804 94.9668 24.2744V24.377ZM93.3125 24.2334C93.3125 23.4951 93.1644 22.9095 92.8682 22.4766C92.5765 22.0436 92.1572 21.8271 91.6104 21.8271C90.9313 21.8271 90.4437 22.1074 90.1475 22.668V25.9492C90.4482 26.5234 90.9404 26.8105 91.624 26.8105C92.1527 26.8105 92.5651 26.5986 92.8613 26.1748C93.1621 25.7464 93.3125 25.0993 93.3125 24.2334ZM96.5049 28V20.6035H99.5059C100.518 20.6035 101.288 20.7812 101.816 21.1367C102.345 21.4876 102.609 21.9935 102.609 22.6543C102.609 22.9961 102.502 23.3037 102.288 23.5771C102.078 23.846 101.766 24.0534 101.352 24.1992C101.835 24.2995 102.217 24.5023 102.5 24.8076C102.783 25.113 102.924 25.473 102.924 25.8877C102.924 26.5758 102.669 27.0999 102.158 27.46C101.652 27.82 100.923 28 99.9707 28H96.5049ZM98.166 24.8486V26.6875H99.9844C100.837 26.6875 101.263 26.3822 101.263 25.7715C101.263 25.1562 100.83 24.8486 99.9639 24.8486H98.166ZM98.166 23.6592H99.5332C100.477 23.6592 100.948 23.3812 100.948 22.8252C100.948 22.2419 100.502 21.9411 99.6084 21.9229H98.166V23.6592ZM108.98 20.6035H110.635V28H108.98V23.0645L106.082 28H104.428V20.6035H106.082V25.5391L108.98 20.6035ZM118.879 24.377C118.879 25.5208 118.619 26.4346 118.1 27.1182C117.58 27.7972 116.883 28.1367 116.008 28.1367C115.197 28.1367 114.547 27.8701 114.06 27.3369V30.8438H112.398V20.6035H113.93L113.998 21.3555C114.486 20.763 115.149 20.4668 115.987 20.4668C116.89 20.4668 117.596 20.804 118.106 21.4785C118.621 22.1484 118.879 23.0804 118.879 24.2744V24.377ZM117.225 24.2334C117.225 23.4951 117.076 22.9095 116.78 22.4766C116.489 22.0436 116.069 21.8271 115.522 21.8271C114.843 21.8271 114.356 22.1074 114.06 22.668V25.9492C114.36 26.5234 114.853 26.8105 115.536 26.8105C116.065 26.8105 116.477 26.5986 116.773 26.1748C117.074 25.7464 117.225 25.0993 117.225 24.2334ZM119.979 24.2334C119.979 23.5088 120.123 22.8571 120.41 22.2783C120.697 21.695 121.101 21.2484 121.62 20.9385C122.14 20.624 122.737 20.4668 123.411 20.4668C124.409 20.4668 125.218 20.7881 125.838 21.4307C126.462 22.0732 126.799 22.9255 126.85 23.9873L126.856 24.377C126.856 25.1061 126.715 25.7578 126.433 26.332C126.155 26.9062 125.754 27.3506 125.229 27.665C124.71 27.9795 124.108 28.1367 123.425 28.1367C122.381 28.1367 121.545 27.7904 120.916 27.0977C120.292 26.4004 119.979 25.473 119.979 24.3154V24.2334ZM121.641 24.377C121.641 25.138 121.798 25.735 122.112 26.168C122.427 26.5964 122.864 26.8105 123.425 26.8105C123.985 26.8105 124.421 26.5918 124.73 26.1543C125.045 25.7168 125.202 25.0765 125.202 24.2334C125.202 23.486 125.04 22.8936 124.717 22.4561C124.398 22.0186 123.963 21.7998 123.411 21.7998C122.869 21.7998 122.438 22.0163 122.119 22.4492C121.8 22.8776 121.641 23.5202 121.641 24.377ZM128.388 28V20.6035H131.389C132.4 20.6035 133.171 20.7812 133.699 21.1367C134.228 21.4876 134.492 21.9935 134.492 22.6543C134.492 22.9961 134.385 23.3037 134.171 23.5771C133.961 23.846 133.649 24.0534 133.234 24.1992C133.717 24.2995 134.1 24.5023 134.383 24.8076C134.665 25.113 134.807 25.473 134.807 25.8877C134.807 26.5758 134.551 27.0999 134.041 27.46C133.535 27.82 132.806 28 131.854 28H128.388ZM130.049 24.8486V26.6875H131.867C132.719 26.6875 133.146 26.3822 133.146 25.7715C133.146 25.1562 132.713 24.8486 131.847 24.8486H130.049ZM130.049 23.6592H131.416C132.359 23.6592 132.831 23.3812 132.831 22.8252C132.831 22.2419 132.384 21.9411 131.491 21.9229H130.049V23.6592ZM140.665 28C140.592 27.8587 140.528 27.6286 140.474 27.3096C139.945 27.861 139.298 28.1367 138.532 28.1367C137.789 28.1367 137.183 27.9248 136.714 27.501C136.244 27.0771 136.01 26.5531 136.01 25.9287C136.01 25.1403 136.301 24.5365 136.885 24.1172C137.473 23.6934 138.311 23.4814 139.4 23.4814H140.419V22.9961C140.419 22.6133 140.312 22.3079 140.098 22.0801C139.883 21.8477 139.558 21.7314 139.12 21.7314C138.742 21.7314 138.432 21.8271 138.19 22.0186C137.949 22.2054 137.828 22.4447 137.828 22.7363H136.167C136.167 22.3307 136.301 21.9525 136.57 21.6016C136.839 21.2461 137.204 20.9681 137.664 20.7676C138.129 20.5671 138.646 20.4668 139.216 20.4668C140.082 20.4668 140.772 20.6855 141.287 21.123C141.802 21.556 142.066 22.1667 142.08 22.9551V26.291C142.08 26.9564 142.174 27.4873 142.36 27.8838V28H140.665ZM138.84 26.8037C139.168 26.8037 139.476 26.724 139.763 26.5645C140.054 26.4049 140.273 26.1908 140.419 25.9219V24.5273H139.523C138.908 24.5273 138.446 24.6344 138.136 24.8486C137.826 25.0628 137.671 25.3659 137.671 25.7578C137.671 26.0768 137.776 26.332 137.985 26.5234C138.2 26.7103 138.484 26.8037 138.84 26.8037ZM149.531 21.9229H147.132V28H145.471V21.9229H143.099V20.6035H149.531V21.9229ZM152.43 22.9551H154.057C154.663 22.9551 155.191 23.0599 155.643 23.2695C156.094 23.4792 156.436 23.7731 156.668 24.1514C156.905 24.5296 157.023 24.9694 157.023 25.4707C157.023 26.2318 156.755 26.8424 156.217 27.3027C155.679 27.763 154.964 27.9954 154.07 28H150.769V20.6035H152.43V22.9551ZM152.43 24.2881V26.6738H154.05C154.455 26.6738 154.774 26.5736 155.007 26.373C155.244 26.168 155.362 25.8786 155.362 25.5049C155.362 25.1312 155.246 24.8372 155.014 24.623C154.786 24.4043 154.476 24.2926 154.084 24.2881H152.43ZM164.468 25.0742H163.627V28H161.966V20.6035H163.627V23.5566H164.358L166.402 20.6035H168.453L165.78 24.1445L168.679 28H166.519L164.468 25.0742ZM168.884 24.2334C168.884 23.5088 169.027 22.8571 169.314 22.2783C169.602 21.695 170.005 21.2484 170.524 20.9385C171.044 20.624 171.641 20.4668 172.315 20.4668C173.313 20.4668 174.122 20.7881 174.742 21.4307C175.367 22.0732 175.704 22.9255 175.754 23.9873L175.761 24.377C175.761 25.1061 175.619 25.7578 175.337 26.332C175.059 26.9062 174.658 27.3506 174.134 27.665C173.614 27.9795 173.013 28.1367 172.329 28.1367C171.285 28.1367 170.449 27.7904 169.82 27.0977C169.196 26.4004 168.884 25.473 168.884 24.3154V24.2334ZM170.545 24.377C170.545 25.138 170.702 25.735 171.017 26.168C171.331 26.5964 171.769 26.8105 172.329 26.8105C172.89 26.8105 173.325 26.5918 173.635 26.1543C173.949 25.7168 174.106 25.0765 174.106 24.2334C174.106 23.486 173.945 22.8936 173.621 22.4561C173.302 22.0186 172.867 21.7998 172.315 21.7998C171.773 21.7998 171.342 22.0163 171.023 22.4492C170.704 22.8776 170.545 23.5202 170.545 24.377ZM182.781 21.9229H180.382V28H178.721V21.9229H176.349V20.6035H182.781V21.9229ZM186.712 28.1367C185.659 28.1367 184.805 27.8063 184.148 27.1455C183.497 26.4801 183.171 25.596 183.171 24.4932V24.2881C183.171 23.5498 183.312 22.8913 183.595 22.3125C183.882 21.7292 184.283 21.2757 184.798 20.9521C185.313 20.6286 185.887 20.4668 186.521 20.4668C187.528 20.4668 188.305 20.7881 188.852 21.4307C189.403 22.0732 189.679 22.9824 189.679 24.1582V24.8281H184.846C184.896 25.4388 185.099 25.9219 185.454 26.2773C185.814 26.6328 186.265 26.8105 186.808 26.8105C187.569 26.8105 188.188 26.5029 188.667 25.8877L189.562 26.7422C189.266 27.1842 188.87 27.5283 188.373 27.7744C187.881 28.016 187.327 28.1367 186.712 28.1367ZM186.514 21.7998C186.058 21.7998 185.689 21.9593 185.406 22.2783C185.128 22.5973 184.951 23.0417 184.873 23.6113H188.038V23.4883C188.002 22.9323 187.854 22.513 187.594 22.2305C187.334 21.9434 186.974 21.7998 186.514 21.7998ZM197.239 28H195.578V25.0127H192.7V28H191.039V20.6035H192.7V23.6865H195.578V20.6035H197.239V28ZM201.642 25.0742H200.801V28H199.14V20.6035H200.801V23.5566H201.532L203.576 20.6035H205.627L202.954 24.1445L205.853 28H203.692L201.642 25.0742ZM211.185 28C211.112 27.8587 211.048 27.6286 210.993 27.3096C210.465 27.861 209.817 28.1367 209.052 28.1367C208.309 28.1367 207.703 27.9248 207.233 27.501C206.764 27.0771 206.529 26.5531 206.529 25.9287C206.529 25.1403 206.821 24.5365 207.404 24.1172C207.992 23.6934 208.831 23.4814 209.92 23.4814H210.938V22.9961C210.938 22.6133 210.831 22.3079 210.617 22.0801C210.403 21.8477 210.077 21.7314 209.64 21.7314C209.261 21.7314 208.951 21.8271 208.71 22.0186C208.468 22.2054 208.348 22.4447 208.348 22.7363H206.687C206.687 22.3307 206.821 21.9525 207.09 21.6016C207.359 21.2461 207.723 20.9681 208.184 20.7676C208.648 20.5671 209.166 20.4668 209.735 20.4668C210.601 20.4668 211.292 20.6855 211.807 21.123C212.322 21.556 212.586 22.1667 212.6 22.9551V26.291C212.6 26.9564 212.693 27.4873 212.88 27.8838V28H211.185ZM209.359 26.8037C209.688 26.8037 209.995 26.724 210.282 26.5645C210.574 26.4049 210.793 26.1908 210.938 25.9219V24.5273H210.043C209.428 24.5273 208.965 24.6344 208.655 24.8486C208.345 25.0628 208.19 25.3659 208.19 25.7578C208.19 26.0768 208.295 26.332 208.505 26.5234C208.719 26.7103 209.004 26.8037 209.359 26.8037ZM215.881 25.0742C215.881 24.4681 215.956 23.985 216.106 23.625C216.257 23.265 216.553 22.8708 216.995 22.4424C217.442 22.0094 217.724 21.7018 217.843 21.5195C218.025 21.2415 218.116 20.9408 218.116 20.6172C218.116 20.1888 218.009 19.863 217.795 19.6396C217.585 19.4118 217.275 19.2979 216.865 19.2979C216.473 19.2979 216.157 19.4095 215.915 19.6328C215.678 19.8516 215.56 20.1501 215.56 20.5283H213.898C213.908 19.7217 214.181 19.0837 214.719 18.6143C215.261 18.1449 215.977 17.9102 216.865 17.9102C217.781 17.9102 218.494 18.1426 219.005 18.6074C219.52 19.0723 219.777 19.7217 219.777 20.5557C219.777 21.2985 219.431 22.0299 218.738 22.75L217.897 23.5771C217.597 23.9189 217.442 24.418 217.433 25.0742H215.881ZM215.765 27.2002C215.765 26.9313 215.849 26.7148 216.018 26.5508C216.186 26.3822 216.414 26.2979 216.701 26.2979C216.993 26.2979 217.223 26.3844 217.392 26.5576C217.56 26.7262 217.645 26.9404 217.645 27.2002C217.645 27.4508 217.562 27.6605 217.398 27.8291C217.234 27.9977 217.002 28.082 216.701 28.082C216.4 28.082 216.168 27.9977 216.004 27.8291C215.844 27.6605 215.765 27.4508 215.765 27.2002Z" fill="#DDD0C3"/>
<path d="M269 14V30M261 22H277" stroke="#A07B50" stroke-width="2"/>
<line x1="247.25" y1="1.09278e-08" x2="247.25" y2="43" stroke="#544332" stroke-width="0.5"/>
</svg>
